<svg xmlns="http://www.w3.org/2000/svg" xmlns:xlink="http://www.w3.org/1999/xlink" width="337" zoomAndPan="magnify" viewBox="0 0 252.75 141.750002" height="189" preserveAspectRatio="xMidYMid meet" version="1.0"><defs><g/><clipPath id="7a730831d9"><path d="M 0.0976562 0 L 252.402344 0 L 252.402344 128.773438 L 0.0976562 128.773438 Z M 0.0976562 0 " clip-rule="nonzero"/></clipPath></defs><path fill="#736f99" d="M 226.382812 92.667969 L 226.382812 97.808594 L 231.527344 97.808594 L 231.527344 92.667969 Z M 226.382812 97.808594 L 226.382812 102.953125 L 231.527344 102.953125 L 231.527344 97.808594 Z M 226.382812 102.953125 L 226.382812 108.09375 L 231.527344 108.09375 L 231.527344 102.953125 Z M 221.242188 87.523438 L 221.242188 92.667969 L 226.382812 92.667969 L 226.382812 87.523438 Z M 221.242188 92.667969 L 221.242188 97.808594 L 226.382812 97.808594 L 226.382812 92.667969 Z M 221.242188 97.808594 L 221.242188 102.953125 L 226.382812 102.953125 L 226.382812 97.808594 Z M 216.097656 82.382812 L 216.097656 87.523438 L 221.242188 87.523438 L 221.242188 82.382812 Z M 216.097656 87.523438 L 216.097656 92.667969 L 221.242188 92.667969 L 221.242188 87.523438 Z M 216.097656 92.667969 L 216.097656 97.808594 L 221.242188 97.808594 L 221.242188 92.667969 Z M 216.097656 97.808594 L 216.097656 102.953125 L 221.242188 102.953125 L 221.242188 97.808594 Z M 210.953125 82.382812 L 210.953125 87.523438 L 216.097656 87.523438 L 216.097656 82.382812 Z M 210.953125 87.523438 L 210.953125 92.667969 L 216.097656 92.667969 L 216.097656 87.523438 Z M 210.953125 92.667969 L 210.953125 97.808594 L 216.097656 97.808594 L 216.097656 92.667969 Z M 210.953125 97.808594 L 210.953125 102.953125 L 216.097656 102.953125 L 216.097656 97.808594 Z M 210.953125 102.953125 L 210.953125 108.09375 L 216.097656 108.09375 L 216.097656 102.953125 Z M 205.8125 61.8125 L 205.8125 66.953125 L 210.953125 66.953125 L 210.953125 61.8125 Z M 205.8125 66.953125 L 205.8125 72.097656 L 210.953125 72.097656 L 210.953125 66.953125 Z M 205.8125 82.382812 L 205.8125 87.523438 L 210.953125 87.523438 L 210.953125 82.382812 Z M 205.8125 87.523438 L 205.8125 92.667969 L 210.953125 92.667969 L 210.953125 87.523438 Z M 205.8125 92.667969 L 205.8125 97.808594 L 210.953125 97.808594 L 210.953125 92.667969 Z M 205.8125 97.808594 L 205.8125 102.953125 L 210.953125 102.953125 L 210.953125 97.808594 Z M 205.8125 102.953125 L 205.8125 108.09375 L 210.953125 108.09375 L 210.953125 102.953125 Z M 205.8125 108.09375 L 205.8125 113.238281 L 210.953125 113.238281 L 210.953125 108.09375 Z M 200.667969 20.667969 L 200.667969 25.8125 L 205.8125 25.8125 L 205.8125 20.667969 Z M 200.667969 25.8125 L 200.667969 30.953125 L 205.8125 30.953125 L 205.8125 25.8125 Z M 200.667969 30.953125 L 200.667969 36.097656 L 205.8125 36.097656 L 205.8125 30.953125 Z M 200.667969 36.097656 L 200.667969 41.238281 L 205.8125 41.238281 L 205.8125 36.097656 Z M 200.667969 56.667969 L 200.667969 61.8125 L 205.8125 61.8125 L 205.8125 56.667969 Z M 200.667969 61.8125 L 200.667969 66.953125 L 205.8125 66.953125 L 205.8125 61.8125 Z M 200.667969 66.953125 L 200.667969 72.097656 L 205.8125 72.097656 L 205.8125 66.953125 Z M 200.667969 82.382812 L 200.667969 87.523438 L 205.8125 87.523438 L 205.8125 82.382812 Z M 200.667969 87.523438 L 200.667969 92.667969 L 205.8125 92.667969 L 205.8125 87.523438 Z M 200.667969 92.667969 L 200.667969 97.808594 L 205.8125 97.808594 L 205.8125 92.667969 Z M 200.667969 97.808594 L 200.667969 102.953125 L 205.8125 102.953125 L 205.8125 97.808594 Z M 200.667969 102.953125 L 200.667969 108.09375 L 205.8125 108.09375 L 205.8125 102.953125 Z M 200.667969 108.09375 L 200.667969 113.238281 L 205.8125 113.238281 L 205.8125 108.09375 Z M 200.667969 113.238281 L 200.667969 118.382812 L 205.8125 118.382812 L 205.8125 113.238281 Z M 195.527344 10.382812 L 195.527344 15.523438 L 200.667969 15.523438 L 200.667969 10.382812 Z M 195.527344 15.523438 L 195.527344 20.667969 L 200.667969 20.667969 L 200.667969 15.523438 Z M 195.527344 20.667969 L 195.527344 25.8125 L 200.667969 25.8125 L 200.667969 20.667969 Z M 195.527344 25.8125 L 195.527344 30.953125 L 200.667969 30.953125 L 200.667969 25.8125 Z M 195.527344 30.953125 L 195.527344 36.097656 L 200.667969 36.097656 L 200.667969 30.953125 Z M 195.527344 36.097656 L 195.527344 41.238281 L 200.667969 41.238281 L 200.667969 36.097656 Z M 195.527344 41.238281 L 195.527344 46.382812 L 200.667969 46.382812 L 200.667969 41.238281 Z M 195.527344 56.667969 L 195.527344 61.8125 L 200.667969 61.8125 L 200.667969 56.667969 Z M 195.527344 61.8125 L 195.527344 66.953125 L 200.667969 66.953125 L 200.667969 61.8125 Z M 195.527344 66.953125 L 195.527344 72.097656 L 200.667969 72.097656 L 200.667969 66.953125 Z M 195.527344 72.097656 L 195.527344 77.238281 L 200.667969 77.238281 L 200.667969 72.097656 Z M 195.527344 87.523438 L 195.527344 92.667969 L 200.667969 92.667969 L 200.667969 87.523438 Z M 195.527344 92.667969 L 195.527344 97.808594 L 200.667969 97.808594 L 200.667969 92.667969 Z M 195.527344 97.808594 L 195.527344 102.953125 L 200.667969 102.953125 L 200.667969 97.808594 Z M 195.527344 102.953125 L 195.527344 108.09375 L 200.667969 108.09375 L 200.667969 102.953125 Z M 195.527344 108.09375 L 195.527344 113.238281 L 200.667969 113.238281 L 200.667969 108.09375 Z M 195.527344 113.238281 L 195.527344 118.382812 L 200.667969 118.382812 L 200.667969 113.238281 Z M 190.382812 10.382812 L 190.382812 15.523438 L 195.527344 15.523438 L 195.527344 10.382812 Z M 190.382812 15.523438 L 190.382812 20.667969 L 195.527344 20.667969 L 195.527344 15.523438 Z M 190.382812 20.667969 L 190.382812 25.8125 L 195.527344 25.8125 L 195.527344 20.667969 Z M 190.382812 25.8125 L 190.382812 30.953125 L 195.527344 30.953125 L 195.527344 25.8125 Z M 190.382812 30.953125 L 190.382812 36.097656 L 195.527344 36.097656 L 195.527344 30.953125 Z M 190.382812 36.097656 L 190.382812 41.238281 L 195.527344 41.238281 L 195.527344 36.097656 Z M 190.382812 41.238281 L 190.382812 46.382812 L 195.527344 46.382812 L 195.527344 41.238281 Z M 190.382812 46.382812 L 190.382812 51.523438 L 195.527344 51.523438 L 195.527344 46.382812 Z M 190.382812 51.523438 L 190.382812 56.667969 L 195.527344 56.667969 L 195.527344 51.523438 Z M 190.382812 56.667969 L 190.382812 61.8125 L 195.527344 61.8125 L 195.527344 56.667969 Z M 190.382812 61.8125 L 190.382812 66.953125 L 195.527344 66.953125 L 195.527344 61.8125 Z M 190.382812 66.953125 L 190.382812 72.097656 L 195.527344 72.097656 L 195.527344 66.953125 Z M 190.382812 72.097656 L 190.382812 77.238281 L 195.527344 77.238281 L 195.527344 72.097656 Z M 190.382812 87.523438 L 190.382812 92.667969 L 195.527344 92.667969 L 195.527344 87.523438 Z M 190.382812 92.667969 L 190.382812 97.808594 L 195.527344 97.808594 L 195.527344 92.667969 Z M 190.382812 97.808594 L 190.382812 102.953125 L 195.527344 102.953125 L 195.527344 97.808594 Z M 190.382812 102.953125 L 190.382812 108.09375 L 195.527344 108.09375 L 195.527344 102.953125 Z M 190.382812 108.09375 L 190.382812 113.238281 L 195.527344 113.238281 L 195.527344 108.09375 Z M 190.382812 113.238281 L 190.382812 118.382812 L 195.527344 118.382812 L 195.527344 113.238281 Z M 185.238281 5.238281 L 185.238281 10.382812 L 190.382812 10.382812 L 190.382812 5.238281 Z M 185.238281 10.382812 L 185.238281 15.523438 L 190.382812 15.523438 L 190.382812 10.382812 Z M 185.238281 15.523438 L 185.238281 20.667969 L 190.382812 20.667969 L 190.382812 15.523438 Z M 185.238281 20.667969 L 185.238281 25.8125 L 190.382812 25.8125 L 190.382812 20.667969 Z M 185.238281 25.8125 L 185.238281 30.953125 L 190.382812 30.953125 L 190.382812 25.8125 Z M 185.238281 30.953125 L 185.238281 36.097656 L 190.382812 36.097656 L 190.382812 30.953125 Z M 185.238281 36.097656 L 185.238281 41.238281 L 190.382812 41.238281 L 190.382812 36.097656 Z M 185.238281 41.238281 L 185.238281 46.382812 L 190.382812 46.382812 L 190.382812 41.238281 Z M 185.238281 46.382812 L 185.238281 51.523438 L 190.382812 51.523438 L 190.382812 46.382812 Z M 185.238281 51.523438 L 185.238281 56.667969 L 190.382812 56.667969 L 190.382812 51.523438 Z M 185.238281 56.667969 L 185.238281 61.8125 L 190.382812 61.8125 L 190.382812 56.667969 Z M 185.238281 61.8125 L 185.238281 66.953125 L 190.382812 66.953125 L 190.382812 61.8125 Z M 185.238281 66.953125 L 185.238281 72.097656 L 190.382812 72.097656 L 190.382812 66.953125 Z M 185.238281 72.097656 L 185.238281 77.238281 L 190.382812 77.238281 L 190.382812 72.097656 Z M 185.238281 77.238281 L 185.238281 82.382812 L 190.382812 82.382812 L 190.382812 77.238281 Z M 185.238281 87.523438 L 185.238281 92.667969 L 190.382812 92.667969 L 190.382812 87.523438 Z M 185.238281 92.667969 L 185.238281 97.808594 L 190.382812 97.808594 L 190.382812 92.667969 Z M 185.238281 97.808594 L 185.238281 102.953125 L 190.382812 102.953125 L 190.382812 97.808594 Z M 185.238281 102.953125 L 185.238281 108.09375 L 190.382812 108.09375 L 190.382812 102.953125 Z M 185.238281 108.09375 L 185.238281 113.238281 L 190.382812 113.238281 L 190.382812 108.09375 Z M 185.238281 113.238281 L 185.238281 118.382812 L 190.382812 118.382812 L 190.382812 113.238281 Z M 180.097656 5.238281 L 180.097656 10.382812 L 185.238281 10.382812 L 185.238281 5.238281 Z M 180.097656 10.382812 L 180.097656 15.523438 L 185.238281 15.523438 L 185.238281 10.382812 Z M 180.097656 15.523438 L 180.097656 20.667969 L 185.238281 20.667969 L 185.238281 15.523438 Z M 180.097656 20.667969 L 180.097656 25.8125 L 185.238281 25.8125 L 185.238281 20.667969 Z M 180.097656 25.8125 L 180.097656 30.953125 L 185.238281 30.953125 L 185.238281 25.8125 Z M 180.097656 30.953125 L 180.097656 36.097656 L 185.238281 36.097656 L 185.238281 30.953125 Z M 180.097656 36.097656 L 180.097656 41.238281 L 185.238281 41.238281 L 185.238281 36.097656 Z M 180.097656 41.238281 L 180.097656 46.382812 L 185.238281 46.382812 L 185.238281 41.238281 Z M 180.097656 46.382812 L 180.097656 51.523438 L 185.238281 51.523438 L 185.238281 46.382812 Z M 180.097656 51.523438 L 180.097656 56.667969 L 185.238281 56.667969 L 185.238281 51.523438 Z M 180.097656 56.667969 L 180.097656 61.8125 L 185.238281 61.8125 L 185.238281 56.667969 Z M 180.097656 61.8125 L 180.097656 66.953125 L 185.238281 66.953125 L 185.238281 61.8125 Z M 180.097656 66.953125 L 180.097656 72.097656 L 185.238281 72.097656 L 185.238281 66.953125 Z M 180.097656 72.097656 L 180.097656 77.238281 L 185.238281 77.238281 L 185.238281 72.097656 Z M 180.097656 77.238281 L 180.097656 82.382812 L 185.238281 82.382812 L 185.238281 77.238281 Z M 180.097656 87.523438 L 180.097656 92.667969 L 185.238281 92.667969 L 185.238281 87.523438 Z M 180.097656 92.667969 L 180.097656 97.808594 L 185.238281 97.808594 L 185.238281 92.667969 Z M 180.097656 97.808594 L 180.097656 102.953125 L 185.238281 102.953125 L 185.238281 97.808594 Z M 180.097656 102.953125 L 180.097656 108.09375 L 185.238281 108.09375 L 185.238281 102.953125 Z M 180.097656 108.09375 L 180.097656 113.238281 L 185.238281 113.238281 L 185.238281 108.09375 Z M 180.097656 113.238281 L 180.097656 118.382812 L 185.238281 118.382812 L 185.238281 113.238281 Z M 174.953125 0.0976562 L 174.953125 5.238281 L 180.097656 5.238281 L 180.097656 0.0976562 Z M 174.953125 5.238281 L 174.953125 10.382812 L 180.097656 10.382812 L 180.097656 5.238281 Z M 174.953125 10.382812 L 174.953125 15.523438 L 180.097656 15.523438 L 180.097656 10.382812 Z M 174.953125 15.523438 L 174.953125 20.667969 L 180.097656 20.667969 L 180.097656 15.523438 Z M 174.953125 20.667969 L 174.953125 25.8125 L 180.097656 25.8125 L 180.097656 20.667969 Z M 174.953125 25.8125 L 174.953125 30.953125 L 180.097656 30.953125 L 180.097656 25.8125 Z M 174.953125 30.953125 L 174.953125 36.097656 L 180.097656 36.097656 L 180.097656 30.953125 Z M 174.953125 36.097656 L 174.953125 41.238281 L 180.097656 41.238281 L 180.097656 36.097656 Z M 174.953125 41.238281 L 174.953125 46.382812 L 180.097656 46.382812 L 180.097656 41.238281 Z M 174.953125 46.382812 L 174.953125 51.523438 L 180.097656 51.523438 L 180.097656 46.382812 Z M 174.953125 51.523438 L 174.953125 56.667969 L 180.097656 56.667969 L 180.097656 51.523438 Z M 174.953125 56.667969 L 174.953125 61.8125 L 180.097656 61.8125 L 180.097656 56.667969 Z M 174.953125 61.8125 L 174.953125 66.953125 L 180.097656 66.953125 L 180.097656 61.8125 Z M 174.953125 66.953125 L 174.953125 72.097656 L 180.097656 72.097656 L 180.097656 66.953125 Z M 174.953125 72.097656 L 174.953125 77.238281 L 180.097656 77.238281 L 180.097656 72.097656 Z M 174.953125 77.238281 L 174.953125 82.382812 L 180.097656 82.382812 L 180.097656 77.238281 Z M 174.953125 82.382812 L 174.953125 87.523438 L 180.097656 87.523438 L 180.097656 82.382812 Z M 174.953125 87.523438 L 174.953125 92.667969 L 180.097656 92.667969 L 180.097656 87.523438 Z M 174.953125 92.667969 L 174.953125 97.808594 L 180.097656 97.808594 L 180.097656 92.667969 Z M 174.953125 97.808594 L 174.953125 102.953125 L 180.097656 102.953125 L 180.097656 97.808594 Z M 174.953125 102.953125 L 174.953125 108.09375 L 180.097656 108.09375 L 180.097656 102.953125 Z M 174.953125 108.09375 L 174.953125 113.238281 L 180.097656 113.238281 L 180.097656 108.09375 Z M 169.8125 0.0976562 L 169.8125 5.238281 L 174.953125 5.238281 L 174.953125 0.0976562 Z M 169.8125 5.238281 L 169.8125 10.382812 L 174.953125 10.382812 L 174.953125 5.238281 Z M 169.8125 10.382812 L 169.8125 15.523438 L 174.953125 15.523438 L 174.953125 10.382812 Z M 169.8125 15.523438 L 169.8125 20.667969 L 174.953125 20.667969 L 174.953125 15.523438 Z M 169.8125 20.667969 L 169.8125 25.8125 L 174.953125 25.8125 L 174.953125 20.667969 Z M 169.8125 25.8125 L 169.8125 30.953125 L 174.953125 30.953125 L 174.953125 25.8125 Z M 169.8125 30.953125 L 169.8125 36.097656 L 174.953125 36.097656 L 174.953125 30.953125 Z M 169.8125 36.097656 L 169.8125 41.238281 L 174.953125 41.238281 L 174.953125 36.097656 Z M 169.8125 41.238281 L 169.8125 46.382812 L 174.953125 46.382812 L 174.953125 41.238281 Z M 169.8125 46.382812 L 169.8125 51.523438 L 174.953125 51.523438 L 174.953125 46.382812 Z M 169.8125 61.8125 L 169.8125 66.953125 L 174.953125 66.953125 L 174.953125 61.8125 Z M 169.8125 66.953125 L 169.8125 72.097656 L 174.953125 72.097656 L 174.953125 66.953125 Z M 169.8125 72.097656 L 169.8125 77.238281 L 174.953125 77.238281 L 174.953125 72.097656 Z M 169.8125 77.238281 L 169.8125 82.382812 L 174.953125 82.382812 L 174.953125 77.238281 Z M 169.8125 82.382812 L 169.8125 87.523438 L 174.953125 87.523438 L 174.953125 82.382812 Z M 169.8125 87.523438 L 169.8125 92.667969 L 174.953125 92.667969 L 174.953125 87.523438 Z M 169.8125 97.808594 L 169.8125 102.953125 L 174.953125 102.953125 L 174.953125 97.808594 Z M 169.8125 102.953125 L 169.8125 108.09375 L 174.953125 108.09375 L 174.953125 102.953125 Z M 169.8125 108.09375 L 169.8125 113.238281 L 174.953125 113.238281 L 174.953125 108.09375 Z M 164.667969 5.238281 L 164.667969 10.382812 L 169.8125 10.382812 L 169.8125 5.238281 Z M 164.667969 10.382812 L 164.667969 15.523438 L 169.8125 15.523438 L 169.8125 10.382812 Z M 164.667969 15.523438 L 164.667969 20.667969 L 169.8125 20.667969 L 169.8125 15.523438 Z M 164.667969 20.667969 L 164.667969 25.8125 L 169.8125 25.8125 L 169.8125 20.667969 Z M 164.667969 25.8125 L 164.667969 30.953125 L 169.8125 30.953125 L 169.8125 25.8125 Z M 164.667969 30.953125 L 164.667969 36.097656 L 169.8125 36.097656 L 169.8125 30.953125 Z M 164.667969 36.097656 L 164.667969 41.238281 L 169.8125 41.238281 L 169.8125 36.097656 Z M 164.667969 41.238281 L 164.667969 46.382812 L 169.8125 46.382812 L 169.8125 41.238281 Z M 164.667969 56.667969 L 164.667969 61.8125 L 169.8125 61.8125 L 169.8125 56.667969 Z M 164.667969 61.8125 L 164.667969 66.953125 L 169.8125 66.953125 L 169.8125 61.8125 Z M 164.667969 66.953125 L 164.667969 72.097656 L 169.8125 72.097656 L 169.8125 66.953125 Z M 164.667969 72.097656 L 164.667969 77.238281 L 169.8125 77.238281 L 169.8125 72.097656 Z M 164.667969 77.238281 L 164.667969 82.382812 L 169.8125 82.382812 L 169.8125 77.238281 Z M 164.667969 82.382812 L 164.667969 87.523438 L 169.8125 87.523438 L 169.8125 82.382812 Z M 164.667969 87.523438 L 164.667969 92.667969 L 169.8125 92.667969 L 169.8125 87.523438 Z M 164.667969 102.953125 L 164.667969 108.09375 L 169.8125 108.09375 L 169.8125 102.953125 Z M 159.527344 5.238281 L 159.527344 10.382812 L 164.667969 10.382812 L 164.667969 5.238281 Z M 159.527344 10.382812 L 159.527344 15.523438 L 164.667969 15.523438 L 164.667969 10.382812 Z M 159.527344 15.523438 L 159.527344 20.667969 L 164.667969 20.667969 L 164.667969 15.523438 Z M 159.527344 20.667969 L 159.527344 25.8125 L 164.667969 25.8125 L 164.667969 20.667969 Z M 159.527344 25.8125 L 159.527344 30.953125 L 164.667969 30.953125 L 164.667969 25.8125 Z M 159.527344 30.953125 L 159.527344 36.097656 L 164.667969 36.097656 L 164.667969 30.953125 Z M 159.527344 36.097656 L 159.527344 41.238281 L 164.667969 41.238281 L 164.667969 36.097656 Z M 159.527344 41.238281 L 159.527344 46.382812 L 164.667969 46.382812 L 164.667969 41.238281 Z M 159.527344 51.523438 L 159.527344 56.667969 L 164.667969 56.667969 L 164.667969 51.523438 Z M 159.527344 56.667969 L 159.527344 61.8125 L 164.667969 61.8125 L 164.667969 56.667969 Z M 159.527344 61.8125 L 159.527344 66.953125 L 164.667969 66.953125 L 164.667969 61.8125 Z M 159.527344 66.953125 L 159.527344 72.097656 L 164.667969 72.097656 L 164.667969 66.953125 Z M 159.527344 72.097656 L 159.527344 77.238281 L 164.667969 77.238281 L 164.667969 72.097656 Z M 159.527344 77.238281 L 159.527344 82.382812 L 164.667969 82.382812 L 164.667969 77.238281 Z M 159.527344 82.382812 L 159.527344 87.523438 L 164.667969 87.523438 L 164.667969 82.382812 Z M 159.527344 87.523438 L 159.527344 92.667969 L 164.667969 92.667969 L 164.667969 87.523438 Z M 159.527344 92.667969 L 159.527344 97.808594 L 164.667969 97.808594 L 164.667969 92.667969 Z M 154.382812 5.238281 L 154.382812 10.382812 L 159.527344 10.382812 L 159.527344 5.238281 Z M 154.382812 10.382812 L 154.382812 15.523438 L 159.527344 15.523438 L 159.527344 10.382812 Z M 154.382812 15.523438 L 154.382812 20.667969 L 159.527344 20.667969 L 159.527344 15.523438 Z M 154.382812 20.667969 L 154.382812 25.8125 L 159.527344 25.8125 L 159.527344 20.667969 Z M 154.382812 25.8125 L 154.382812 30.953125 L 159.527344 30.953125 L 159.527344 25.8125 Z M 154.382812 30.953125 L 154.382812 36.097656 L 159.527344 36.097656 L 159.527344 30.953125 Z M 154.382812 36.097656 L 154.382812 41.238281 L 159.527344 41.238281 L 159.527344 36.097656 Z M 154.382812 41.238281 L 154.382812 46.382812 L 159.527344 46.382812 L 159.527344 41.238281 Z M 154.382812 56.667969 L 154.382812 61.8125 L 159.527344 61.8125 L 159.527344 56.667969 Z M 154.382812 61.8125 L 154.382812 66.953125 L 159.527344 66.953125 L 159.527344 61.8125 Z M 154.382812 66.953125 L 154.382812 72.097656 L 159.527344 72.097656 L 159.527344 66.953125 Z M 154.382812 72.097656 L 154.382812 77.238281 L 159.527344 77.238281 L 159.527344 72.097656 Z M 154.382812 77.238281 L 154.382812 82.382812 L 159.527344 82.382812 L 159.527344 77.238281 Z M 154.382812 82.382812 L 154.382812 87.523438 L 159.527344 87.523438 L 159.527344 82.382812 Z M 154.382812 87.523438 L 154.382812 92.667969 L 159.527344 92.667969 L 159.527344 87.523438 Z M 154.382812 92.667969 L 154.382812 97.808594 L 159.527344 97.808594 L 159.527344 92.667969 Z M 154.382812 97.808594 L 154.382812 102.953125 L 159.527344 102.953125 L 159.527344 97.808594 Z M 149.238281 10.382812 L 149.238281 15.523438 L 154.382812 15.523438 L 154.382812 10.382812 Z M 149.238281 15.523438 L 149.238281 20.667969 L 154.382812 20.667969 L 154.382812 15.523438 Z M 149.238281 20.667969 L 149.238281 25.8125 L 154.382812 25.8125 L 154.382812 20.667969 Z M 149.238281 25.8125 L 149.238281 30.953125 L 154.382812 30.953125 L 154.382812 25.8125 Z M 149.238281 30.953125 L 149.238281 36.097656 L 154.382812 36.097656 L 154.382812 30.953125 Z M 149.238281 36.097656 L 149.238281 41.238281 L 154.382812 41.238281 L 154.382812 36.097656 Z M 149.238281 41.238281 L 149.238281 46.382812 L 154.382812 46.382812 L 154.382812 41.238281 Z M 149.238281 56.667969 L 149.238281 61.8125 L 154.382812 61.8125 L 154.382812 56.667969 Z M 149.238281 61.8125 L 149.238281 66.953125 L 154.382812 66.953125 L 154.382812 61.8125 Z M 149.238281 66.953125 L 149.238281 72.097656 L 154.382812 72.097656 L 154.382812 66.953125 Z M 149.238281 72.097656 L 149.238281 77.238281 L 154.382812 77.238281 L 154.382812 72.097656 Z M 149.238281 77.238281 L 149.238281 82.382812 L 154.382812 82.382812 L 154.382812 77.238281 Z M 149.238281 82.382812 L 149.238281 87.523438 L 154.382812 87.523438 L 154.382812 82.382812 Z M 149.238281 87.523438 L 149.238281 92.667969 L 154.382812 92.667969 L 154.382812 87.523438 Z M 149.238281 92.667969 L 149.238281 97.808594 L 154.382812 97.808594 L 154.382812 92.667969 Z M 149.238281 97.808594 L 149.238281 102.953125 L 154.382812 102.953125 L 154.382812 97.808594 Z M 149.238281 102.953125 L 149.238281 108.09375 L 154.382812 108.09375 L 154.382812 102.953125 Z M 149.238281 108.09375 L 149.238281 113.238281 L 154.382812 113.238281 L 154.382812 108.09375 Z M 144.097656 10.382812 L 144.097656 15.523438 L 149.238281 15.523438 L 149.238281 10.382812 Z M 144.097656 15.523438 L 144.097656 20.667969 L 149.238281 20.667969 L 149.238281 15.523438 Z M 144.097656 20.667969 L 144.097656 25.8125 L 149.238281 25.8125 L 149.238281 20.667969 Z M 144.097656 25.8125 L 144.097656 30.953125 L 149.238281 30.953125 L 149.238281 25.8125 Z M 144.097656 30.953125 L 144.097656 36.097656 L 149.238281 36.097656 L 149.238281 30.953125 Z M 144.097656 36.097656 L 144.097656 41.238281 L 149.238281 41.238281 L 149.238281 36.097656 Z M 144.097656 41.238281 L 144.097656 46.382812 L 149.238281 46.382812 L 149.238281 41.238281 Z M 144.097656 56.667969 L 144.097656 61.8125 L 149.238281 61.8125 L 149.238281 56.667969 Z M 144.097656 61.8125 L 144.097656 66.953125 L 149.238281 66.953125 L 149.238281 61.8125 Z M 144.097656 66.953125 L 144.097656 72.097656 L 149.238281 72.097656 L 149.238281 66.953125 Z M 144.097656 72.097656 L 144.097656 77.238281 L 149.238281 77.238281 L 149.238281 72.097656 Z M 144.097656 77.238281 L 144.097656 82.382812 L 149.238281 82.382812 L 149.238281 77.238281 Z M 144.097656 82.382812 L 144.097656 87.523438 L 149.238281 87.523438 L 149.238281 82.382812 Z M 144.097656 87.523438 L 144.097656 92.667969 L 149.238281 92.667969 L 149.238281 87.523438 Z M 144.097656 92.667969 L 144.097656 97.808594 L 149.238281 97.808594 L 149.238281 92.667969 Z M 144.097656 97.808594 L 144.097656 102.953125 L 149.238281 102.953125 L 149.238281 97.808594 Z M 144.097656 102.953125 L 144.097656 108.09375 L 149.238281 108.09375 L 149.238281 102.953125 Z M 144.097656 108.09375 L 144.097656 113.238281 L 149.238281 113.238281 L 149.238281 108.09375 Z M 138.953125 15.523438 L 138.953125 20.667969 L 144.097656 20.667969 L 144.097656 15.523438 Z M 138.953125 20.667969 L 138.953125 25.8125 L 144.097656 25.8125 L 144.097656 20.667969 Z M 138.953125 25.8125 L 138.953125 30.953125 L 144.097656 30.953125 L 144.097656 25.8125 Z M 138.953125 30.953125 L 138.953125 36.097656 L 144.097656 36.097656 L 144.097656 30.953125 Z M 138.953125 36.097656 L 138.953125 41.238281 L 144.097656 41.238281 L 144.097656 36.097656 Z M 138.953125 41.238281 L 138.953125 46.382812 L 144.097656 46.382812 L 144.097656 41.238281 Z M 138.953125 46.382812 L 138.953125 51.523438 L 144.097656 51.523438 L 144.097656 46.382812 Z M 138.953125 61.8125 L 138.953125 66.953125 L 144.097656 66.953125 L 144.097656 61.8125 Z M 138.953125 66.953125 L 138.953125 72.097656 L 144.097656 72.097656 L 144.097656 66.953125 Z M 138.953125 72.097656 L 138.953125 77.238281 L 144.097656 77.238281 L 144.097656 72.097656 Z M 138.953125 77.238281 L 138.953125 82.382812 L 144.097656 82.382812 L 144.097656 77.238281 Z M 138.953125 82.382812 L 138.953125 87.523438 L 144.097656 87.523438 L 144.097656 82.382812 Z M 138.953125 87.523438 L 138.953125 92.667969 L 144.097656 92.667969 L 144.097656 87.523438 Z M 138.953125 97.808594 L 138.953125 102.953125 L 144.097656 102.953125 L 144.097656 97.808594 Z M 138.953125 102.953125 L 138.953125 108.09375 L 144.097656 108.09375 L 144.097656 102.953125 Z M 138.953125 108.09375 L 138.953125 113.238281 L 144.097656 113.238281 L 144.097656 108.09375 Z M 138.953125 113.238281 L 138.953125 118.382812 L 144.097656 118.382812 L 144.097656 113.238281 Z M 133.8125 15.523438 L 133.8125 20.667969 L 138.953125 20.667969 L 138.953125 15.523438 Z M 133.8125 20.667969 L 133.8125 25.8125 L 138.953125 25.8125 L 138.953125 20.667969 Z M 133.8125 25.8125 L 133.8125 30.953125 L 138.953125 30.953125 L 138.953125 25.8125 Z M 133.8125 30.953125 L 133.8125 36.097656 L 138.953125 36.097656 L 138.953125 30.953125 Z M 133.8125 36.097656 L 133.8125 41.238281 L 138.953125 41.238281 L 138.953125 36.097656 Z M 133.8125 41.238281 L 133.8125 46.382812 L 138.953125 46.382812 L 138.953125 41.238281 Z M 133.8125 46.382812 L 133.8125 51.523438 L 138.953125 51.523438 L 138.953125 46.382812 Z M 133.8125 61.8125 L 133.8125 66.953125 L 138.953125 66.953125 L 138.953125 61.8125 Z M 133.8125 66.953125 L 133.8125 72.097656 L 138.953125 72.097656 L 138.953125 66.953125 Z M 133.8125 72.097656 L 133.8125 77.238281 L 138.953125 77.238281 L 138.953125 72.097656 Z M 133.8125 77.238281 L 133.8125 82.382812 L 138.953125 82.382812 L 138.953125 77.238281 Z M 133.8125 82.382812 L 133.8125 87.523438 L 138.953125 87.523438 L 138.953125 82.382812 Z M 133.8125 92.667969 L 133.8125 97.808594 L 138.953125 97.808594 L 138.953125 92.667969 Z M 133.8125 97.808594 L 133.8125 102.953125 L 138.953125 102.953125 L 138.953125 97.808594 Z M 133.8125 102.953125 L 133.8125 108.09375 L 138.953125 108.09375 L 138.953125 102.953125 Z M 133.8125 108.09375 L 133.8125 113.238281 L 138.953125 113.238281 L 138.953125 108.09375 Z M 133.8125 113.238281 L 133.8125 118.382812 L 138.953125 118.382812 L 138.953125 113.238281 Z M 128.667969 15.523438 L 128.667969 20.667969 L 133.8125 20.667969 L 133.8125 15.523438 Z M 128.667969 20.667969 L 128.667969 25.8125 L 133.8125 25.8125 L 133.8125 20.667969 Z M 128.667969 25.8125 L 128.667969 30.953125 L 133.8125 30.953125 L 133.8125 25.8125 Z M 128.667969 30.953125 L 128.667969 36.097656 L 133.8125 36.097656 L 133.8125 30.953125 Z M 128.667969 36.097656 L 128.667969 41.238281 L 133.8125 41.238281 L 133.8125 36.097656 Z M 128.667969 41.238281 L 128.667969 46.382812 L 133.8125 46.382812 L 133.8125 41.238281 Z M 128.667969 46.382812 L 128.667969 51.523438 L 133.8125 51.523438 L 133.8125 46.382812 Z M 128.667969 51.523438 L 128.667969 56.667969 L 133.8125 56.667969 L 133.8125 51.523438 Z M 128.667969 72.097656 L 128.667969 77.238281 L 133.8125 77.238281 L 133.8125 72.097656 Z M 128.667969 77.238281 L 128.667969 82.382812 L 133.8125 82.382812 L 133.8125 77.238281 Z M 128.667969 87.523438 L 128.667969 92.667969 L 133.8125 92.667969 L 133.8125 87.523438 Z M 128.667969 92.667969 L 128.667969 97.808594 L 133.8125 97.808594 L 133.8125 92.667969 Z M 128.667969 97.808594 L 128.667969 102.953125 L 133.8125 102.953125 L 133.8125 97.808594 Z M 128.667969 102.953125 L 128.667969 108.09375 L 133.8125 108.09375 L 133.8125 102.953125 Z M 128.667969 108.09375 L 128.667969 113.238281 L 133.8125 113.238281 L 133.8125 108.09375 Z M 128.667969 113.238281 L 128.667969 118.382812 L 133.8125 118.382812 L 133.8125 113.238281 Z M 123.527344 20.667969 L 123.527344 25.8125 L 128.667969 25.8125 L 128.667969 20.667969 Z M 123.527344 25.8125 L 123.527344 30.953125 L 128.667969 30.953125 L 128.667969 25.8125 Z M 123.527344 30.953125 L 123.527344 36.097656 L 128.667969 36.097656 L 128.667969 30.953125 Z M 123.527344 36.097656 L 123.527344 41.238281 L 128.667969 41.238281 L 128.667969 36.097656 Z M 123.527344 41.238281 L 123.527344 46.382812 L 128.667969 46.382812 L 128.667969 41.238281 Z M 123.527344 46.382812 L 123.527344 51.523438 L 128.667969 51.523438 L 128.667969 46.382812 Z M 123.527344 51.523438 L 123.527344 56.667969 L 128.667969 56.667969 L 128.667969 51.523438 Z M 123.527344 87.523438 L 123.527344 92.667969 L 128.667969 92.667969 L 128.667969 87.523438 Z M 123.527344 92.667969 L 123.527344 97.808594 L 128.667969 97.808594 L 128.667969 92.667969 Z M 123.527344 97.808594 L 123.527344 102.953125 L 128.667969 102.953125 L 128.667969 97.808594 Z M 123.527344 102.953125 L 123.527344 108.09375 L 128.667969 108.09375 L 128.667969 102.953125 Z M 123.527344 108.09375 L 123.527344 113.238281 L 128.667969 113.238281 L 128.667969 108.09375 Z M 123.527344 113.238281 L 123.527344 118.382812 L 128.667969 118.382812 L 128.667969 113.238281 Z M 118.382812 25.8125 L 118.382812 30.953125 L 123.527344 30.953125 L 123.527344 25.8125 Z M 118.382812 30.953125 L 118.382812 36.097656 L 123.527344 36.097656 L 123.527344 30.953125 Z M 118.382812 36.097656 L 118.382812 41.238281 L 123.527344 41.238281 L 123.527344 36.097656 Z M 118.382812 41.238281 L 118.382812 46.382812 L 123.527344 46.382812 L 123.527344 41.238281 Z M 118.382812 46.382812 L 118.382812 51.523438 L 123.527344 51.523438 L 123.527344 46.382812 Z M 118.382812 51.523438 L 118.382812 56.667969 L 123.527344 56.667969 L 123.527344 51.523438 Z M 118.382812 56.667969 L 118.382812 61.8125 L 123.527344 61.8125 L 123.527344 56.667969 Z M 118.382812 61.8125 L 118.382812 66.953125 L 123.527344 66.953125 L 123.527344 61.8125 Z M 118.382812 87.523438 L 118.382812 92.667969 L 123.527344 92.667969 L 123.527344 87.523438 Z M 118.382812 92.667969 L 118.382812 97.808594 L 123.527344 97.808594 L 123.527344 92.667969 Z M 118.382812 97.808594 L 118.382812 102.953125 L 123.527344 102.953125 L 123.527344 97.808594 Z M 118.382812 102.953125 L 118.382812 108.09375 L 123.527344 108.09375 L 123.527344 102.953125 Z M 118.382812 108.09375 L 118.382812 113.238281 L 123.527344 113.238281 L 123.527344 108.09375 Z M 118.382812 113.238281 L 118.382812 118.382812 L 123.527344 118.382812 L 123.527344 113.238281 Z M 113.242188 30.953125 L 113.242188 36.097656 L 118.382812 36.097656 L 118.382812 30.953125 Z M 113.242188 36.097656 L 113.242188 41.238281 L 118.382812 41.238281 L 118.382812 36.097656 Z M 113.242188 51.523438 L 113.242188 56.667969 L 118.382812 56.667969 L 118.382812 51.523438 Z M 113.242188 56.667969 L 113.242188 61.8125 L 118.382812 61.8125 L 118.382812 56.667969 Z M 113.242188 61.8125 L 113.242188 66.953125 L 118.382812 66.953125 L 118.382812 61.8125 Z M 113.242188 66.953125 L 113.242188 72.097656 L 118.382812 72.097656 L 118.382812 66.953125 Z M 113.242188 72.097656 L 113.242188 77.238281 L 118.382812 77.238281 L 118.382812 72.097656 Z M 113.242188 87.523438 L 113.242188 92.667969 L 118.382812 92.667969 L 118.382812 87.523438 Z M 113.242188 92.667969 L 113.242188 97.808594 L 118.382812 97.808594 L 118.382812 92.667969 Z M 113.242188 97.808594 L 113.242188 102.953125 L 118.382812 102.953125 L 118.382812 97.808594 Z M 113.242188 102.953125 L 113.242188 108.09375 L 118.382812 108.09375 L 118.382812 102.953125 Z M 113.242188 108.09375 L 113.242188 113.238281 L 118.382812 113.238281 L 118.382812 108.09375 Z M 113.242188 113.238281 L 113.242188 118.382812 L 118.382812 118.382812 L 118.382812 113.238281 Z M 108.097656 41.238281 L 108.097656 46.382812 L 113.242188 46.382812 L 113.242188 41.238281 Z M 108.097656 46.382812 L 108.097656 51.523438 L 113.242188 51.523438 L 113.242188 46.382812 Z M 108.097656 51.523438 L 108.097656 56.667969 L 113.242188 56.667969 L 113.242188 51.523438 Z M 108.097656 56.667969 L 108.097656 61.8125 L 113.242188 61.8125 L 113.242188 56.667969 Z M 108.097656 61.8125 L 108.097656 66.953125 L 113.242188 66.953125 L 113.242188 61.8125 Z M 108.097656 66.953125 L 108.097656 72.097656 L 113.242188 72.097656 L 113.242188 66.953125 Z M 108.097656 72.097656 L 108.097656 77.238281 L 113.242188 77.238281 L 113.242188 72.097656 Z M 108.097656 87.523438 L 108.097656 92.667969 L 113.242188 92.667969 L 113.242188 87.523438 Z M 108.097656 92.667969 L 108.097656 97.808594 L 113.242188 97.808594 L 113.242188 92.667969 Z M 108.097656 97.808594 L 108.097656 102.953125 L 113.242188 102.953125 L 113.242188 97.808594 Z M 108.097656 102.953125 L 108.097656 108.09375 L 113.242188 108.09375 L 113.242188 102.953125 Z M 108.097656 108.09375 L 108.097656 113.238281 L 113.242188 113.238281 L 113.242188 108.09375 Z M 108.097656 113.238281 L 108.097656 118.382812 L 113.242188 118.382812 L 113.242188 113.238281 Z M 102.953125 41.238281 L 102.953125 46.382812 L 108.097656 46.382812 L 108.097656 41.238281 Z M 102.953125 46.382812 L 102.953125 51.523438 L 108.097656 51.523438 L 108.097656 46.382812 Z M 102.953125 51.523438 L 102.953125 56.667969 L 108.097656 56.667969 L 108.097656 51.523438 Z M 102.953125 56.667969 L 102.953125 61.8125 L 108.097656 61.8125 L 108.097656 56.667969 Z M 102.953125 61.8125 L 102.953125 66.953125 L 108.097656 66.953125 L 108.097656 61.8125 Z M 102.953125 66.953125 L 102.953125 72.097656 L 108.097656 72.097656 L 108.097656 66.953125 Z M 102.953125 72.097656 L 102.953125 77.238281 L 108.097656 77.238281 L 108.097656 72.097656 Z M 102.953125 92.667969 L 102.953125 97.808594 L 108.097656 97.808594 L 108.097656 92.667969 Z M 102.953125 97.808594 L 102.953125 102.953125 L 108.097656 102.953125 L 108.097656 97.808594 Z M 102.953125 102.953125 L 102.953125 108.09375 L 108.097656 108.09375 L 108.097656 102.953125 Z M 102.953125 108.09375 L 102.953125 113.238281 L 108.097656 113.238281 L 108.097656 108.09375 Z M 102.953125 113.238281 L 102.953125 118.382812 L 108.097656 118.382812 L 108.097656 113.238281 Z M 97.8125 41.238281 L 97.8125 46.382812 L 102.953125 46.382812 L 102.953125 41.238281 Z M 97.8125 46.382812 L 97.8125 51.523438 L 102.953125 51.523438 L 102.953125 46.382812 Z M 97.8125 51.523438 L 97.8125 56.667969 L 102.953125 56.667969 L 102.953125 51.523438 Z M 97.8125 56.667969 L 97.8125 61.8125 L 102.953125 61.8125 L 102.953125 56.667969 Z M 97.8125 61.8125 L 97.8125 66.953125 L 102.953125 66.953125 L 102.953125 61.8125 Z M 97.8125 66.953125 L 97.8125 72.097656 L 102.953125 72.097656 L 102.953125 66.953125 Z M 97.8125 72.097656 L 97.8125 77.238281 L 102.953125 77.238281 L 102.953125 72.097656 Z M 97.8125 77.238281 L 97.8125 82.382812 L 102.953125 82.382812 L 102.953125 77.238281 Z M 97.8125 92.667969 L 97.8125 97.808594 L 102.953125 97.808594 L 102.953125 92.667969 Z M 97.8125 97.808594 L 97.8125 102.953125 L 102.953125 102.953125 L 102.953125 97.808594 Z M 97.8125 102.953125 L 97.8125 108.09375 L 102.953125 108.09375 L 102.953125 102.953125 Z M 97.8125 108.09375 L 97.8125 113.238281 L 102.953125 113.238281 L 102.953125 108.09375 Z M 92.667969 41.238281 L 92.667969 46.382812 L 97.8125 46.382812 L 97.8125 41.238281 Z M 92.667969 46.382812 L 92.667969 51.523438 L 97.8125 51.523438 L 97.8125 46.382812 Z M 92.667969 51.523438 L 92.667969 56.667969 L 97.8125 56.667969 L 97.8125 51.523438 Z M 92.667969 56.667969 L 92.667969 61.8125 L 97.8125 61.8125 L 97.8125 56.667969 Z M 92.667969 61.8125 L 92.667969 66.953125 L 97.8125 66.953125 L 97.8125 61.8125 Z M 92.667969 66.953125 L 92.667969 72.097656 L 97.8125 72.097656 L 97.8125 66.953125 Z M 92.667969 72.097656 L 92.667969 77.238281 L 97.8125 77.238281 L 97.8125 72.097656 Z M 92.667969 77.238281 L 92.667969 82.382812 L 97.8125 82.382812 L 97.8125 77.238281 Z M 92.667969 82.382812 L 92.667969 87.523438 L 97.8125 87.523438 L 97.8125 82.382812 Z M 92.667969 97.808594 L 92.667969 102.953125 L 97.8125 102.953125 L 97.8125 97.808594 Z M 92.667969 102.953125 L 92.667969 108.09375 L 97.8125 108.09375 L 97.8125 102.953125 Z M 92.667969 108.09375 L 92.667969 113.238281 L 97.8125 113.238281 L 97.8125 108.09375 Z M 87.527344 41.238281 L 87.527344 46.382812 L 92.667969 46.382812 L 92.667969 41.238281 Z M 87.527344 46.382812 L 87.527344 51.523438 L 92.667969 51.523438 L 92.667969 46.382812 Z M 87.527344 51.523438 L 87.527344 56.667969 L 92.667969 56.667969 L 92.667969 51.523438 Z M 87.527344 56.667969 L 87.527344 61.8125 L 92.667969 61.8125 L 92.667969 56.667969 Z M 87.527344 61.8125 L 87.527344 66.953125 L 92.667969 66.953125 L 92.667969 61.8125 Z M 87.527344 66.953125 L 87.527344 72.097656 L 92.667969 72.097656 L 92.667969 66.953125 Z M 87.527344 72.097656 L 87.527344 77.238281 L 92.667969 77.238281 L 92.667969 72.097656 Z M 87.527344 77.238281 L 87.527344 82.382812 L 92.667969 82.382812 L 92.667969 77.238281 Z M 87.527344 82.382812 L 87.527344 87.523438 L 92.667969 87.523438 L 92.667969 82.382812 Z M 87.527344 102.953125 L 87.527344 108.09375 L 92.667969 108.09375 L 92.667969 102.953125 Z M 82.382812 46.382812 L 82.382812 51.523438 L 87.527344 51.523438 L 87.527344 46.382812 Z M 82.382812 51.523438 L 82.382812 56.667969 L 87.527344 56.667969 L 87.527344 51.523438 Z M 82.382812 56.667969 L 82.382812 61.8125 L 87.527344 61.8125 L 87.527344 56.667969 Z M 82.382812 61.8125 L 82.382812 66.953125 L 87.527344 66.953125 L 87.527344 61.8125 Z M 82.382812 66.953125 L 82.382812 72.097656 L 87.527344 72.097656 L 87.527344 66.953125 Z M 82.382812 72.097656 L 82.382812 77.238281 L 87.527344 77.238281 L 87.527344 72.097656 Z M 82.382812 77.238281 L 82.382812 82.382812 L 87.527344 82.382812 L 87.527344 77.238281 Z M 82.382812 82.382812 L 82.382812 87.523438 L 87.527344 87.523438 L 87.527344 82.382812 Z M 82.382812 87.523438 L 82.382812 92.667969 L 87.527344 92.667969 L 87.527344 87.523438 Z M 77.242188 51.523438 L 77.242188 56.667969 L 82.382812 56.667969 L 82.382812 51.523438 Z M 77.242188 56.667969 L 77.242188 61.8125 L 82.382812 61.8125 L 82.382812 56.667969 Z M 77.242188 61.8125 L 77.242188 66.953125 L 82.382812 66.953125 L 82.382812 61.8125 Z M 77.242188 66.953125 L 77.242188 72.097656 L 82.382812 72.097656 L 82.382812 66.953125 Z M 77.242188 72.097656 L 77.242188 77.238281 L 82.382812 77.238281 L 82.382812 72.097656 Z M 77.242188 77.238281 L 77.242188 82.382812 L 82.382812 82.382812 L 82.382812 77.238281 Z M 77.242188 82.382812 L 77.242188 87.523438 L 82.382812 87.523438 L 82.382812 82.382812 Z M 77.242188 87.523438 L 77.242188 92.667969 L 82.382812 92.667969 L 82.382812 87.523438 Z M 72.097656 61.8125 L 72.097656 66.953125 L 77.242188 66.953125 L 77.242188 61.8125 Z M 72.097656 66.953125 L 72.097656 72.097656 L 77.242188 72.097656 L 77.242188 66.953125 Z M 72.097656 72.097656 L 72.097656 77.238281 L 77.242188 77.238281 L 77.242188 72.097656 Z M 72.097656 77.238281 L 72.097656 82.382812 L 77.242188 82.382812 L 77.242188 77.238281 Z M 72.097656 82.382812 L 72.097656 87.523438 L 77.242188 87.523438 L 77.242188 82.382812 Z M 72.097656 87.523438 L 72.097656 92.667969 L 77.242188 92.667969 L 77.242188 87.523438 Z M 66.953125 66.953125 L 66.953125 72.097656 L 72.097656 72.097656 L 72.097656 66.953125 Z M 66.953125 72.097656 L 66.953125 77.238281 L 72.097656 77.238281 L 72.097656 72.097656 Z M 66.953125 77.238281 L 66.953125 82.382812 L 72.097656 82.382812 L 72.097656 77.238281 Z M 66.953125 82.382812 L 66.953125 87.523438 L 72.097656 87.523438 L 72.097656 82.382812 Z M 66.953125 87.523438 L 66.953125 92.667969 L 72.097656 92.667969 L 72.097656 87.523438 Z M 61.8125 77.238281 L 61.8125 82.382812 L 66.953125 82.382812 L 66.953125 77.238281 Z M 56.667969 97.808594 L 56.667969 102.953125 L 61.8125 102.953125 L 61.8125 97.808594 Z M 56.667969 102.953125 L 56.667969 108.09375 L 61.8125 108.09375 L 61.8125 102.953125 Z M 56.667969 108.09375 L 56.667969 113.238281 L 61.8125 113.238281 L 61.8125 108.09375 Z M 51.527344 66.953125 L 51.527344 72.097656 L 56.667969 72.097656 L 56.667969 66.953125 Z M 51.527344 87.523438 L 51.527344 92.667969 L 56.667969 92.667969 L 56.667969 87.523438 Z M 51.527344 92.667969 L 51.527344 97.808594 L 56.667969 97.808594 L 56.667969 92.667969 Z M 51.527344 97.808594 L 51.527344 102.953125 L 56.667969 102.953125 L 56.667969 97.808594 Z M 51.527344 102.953125 L 51.527344 108.09375 L 56.667969 108.09375 L 56.667969 102.953125 Z M 51.527344 108.09375 L 51.527344 113.238281 L 56.667969 113.238281 L 56.667969 108.09375 Z M 51.527344 113.238281 L 51.527344 118.382812 L 56.667969 118.382812 L 56.667969 113.238281 Z M 46.382812 66.953125 L 46.382812 72.097656 L 51.527344 72.097656 L 51.527344 66.953125 Z M 46.382812 72.097656 L 46.382812 77.238281 L 51.527344 77.238281 L 51.527344 72.097656 Z M 46.382812 77.238281 L 46.382812 82.382812 L 51.527344 82.382812 L 51.527344 77.238281 Z M 46.382812 82.382812 L 46.382812 87.523438 L 51.527344 87.523438 L 51.527344 82.382812 Z M 46.382812 87.523438 L 46.382812 92.667969 L 51.527344 92.667969 L 51.527344 87.523438 Z M 46.382812 92.667969 L 46.382812 97.808594 L 51.527344 97.808594 L 51.527344 92.667969 Z M 46.382812 97.808594 L 46.382812 102.953125 L 51.527344 102.953125 L 51.527344 97.808594 Z M 46.382812 102.953125 L 46.382812 108.09375 L 51.527344 108.09375 L 51.527344 102.953125 Z M 46.382812 108.09375 L 46.382812 113.238281 L 51.527344 113.238281 L 51.527344 108.09375 Z M 46.382812 113.238281 L 46.382812 118.382812 L 51.527344 118.382812 L 51.527344 113.238281 Z M 41.242188 72.097656 L 41.242188 77.238281 L 46.382812 77.238281 L 46.382812 72.097656 Z M 41.242188 77.238281 L 41.242188 82.382812 L 46.382812 82.382812 L 46.382812 77.238281 Z M 41.242188 82.382812 L 41.242188 87.523438 L 46.382812 87.523438 L 46.382812 82.382812 Z M 41.242188 87.523438 L 41.242188 92.667969 L 46.382812 92.667969 L 46.382812 87.523438 Z M 41.242188 92.667969 L 41.242188 97.808594 L 46.382812 97.808594 L 46.382812 92.667969 Z M 41.242188 97.808594 L 41.242188 102.953125 L 46.382812 102.953125 L 46.382812 97.808594 Z M 41.242188 102.953125 L 41.242188 108.09375 L 46.382812 108.09375 L 46.382812 102.953125 Z M 41.242188 108.09375 L 41.242188 113.238281 L 46.382812 113.238281 L 46.382812 108.09375 Z M 41.242188 113.238281 L 41.242188 118.382812 L 46.382812 118.382812 L 46.382812 113.238281 Z M 36.097656 72.097656 L 36.097656 77.238281 L 41.242188 77.238281 L 41.242188 72.097656 Z M 36.097656 77.238281 L 36.097656 82.382812 L 41.242188 82.382812 L 41.242188 77.238281 Z M 36.097656 82.382812 L 36.097656 87.523438 L 41.242188 87.523438 L 41.242188 82.382812 Z M 36.097656 87.523438 L 36.097656 92.667969 L 41.242188 92.667969 L 41.242188 87.523438 Z M 36.097656 92.667969 L 36.097656 97.808594 L 41.242188 97.808594 L 41.242188 92.667969 Z M 36.097656 97.808594 L 36.097656 102.953125 L 41.242188 102.953125 L 41.242188 97.808594 Z M 36.097656 102.953125 L 36.097656 108.09375 L 41.242188 108.09375 L 41.242188 102.953125 Z M 36.097656 108.09375 L 36.097656 113.238281 L 41.242188 113.238281 L 41.242188 108.09375 Z M 36.097656 113.238281 L 36.097656 118.382812 L 41.242188 118.382812 L 41.242188 113.238281 Z M 30.953125 77.238281 L 30.953125 82.382812 L 36.097656 82.382812 L 36.097656 77.238281 Z M 30.953125 82.382812 L 30.953125 87.523438 L 36.097656 87.523438 L 36.097656 82.382812 Z M 30.953125 87.523438 L 30.953125 92.667969 L 36.097656 92.667969 L 36.097656 87.523438 Z M 36.097656 108.09375 L 36.097656 113.238281 L 30.953125 113.238281 L 30.953125 108.09375 L 36.097656 108.09375 " fill-opacity="1" fill-rule="nonzero"/><g clip-path="url(#7a730831d9)"><path fill="#6a3b79" d="M 246.953125 102.953125 L 246.953125 108.09375 L 252.097656 108.09375 L 252.097656 102.953125 Z M 246.953125 108.09375 L 246.953125 113.238281 L 252.097656 113.238281 L 252.097656 108.09375 Z M 246.953125 113.238281 L 246.953125 118.382812 L 252.097656 118.382812 L 252.097656 113.238281 Z M 241.8125 97.808594 L 241.8125 102.953125 L 246.953125 102.953125 L 246.953125 97.808594 Z M 241.8125 102.953125 L 241.8125 108.09375 L 246.953125 108.09375 L 246.953125 102.953125 Z M 241.8125 108.09375 L 241.8125 113.238281 L 246.953125 113.238281 L 246.953125 108.09375 Z M 241.8125 113.238281 L 241.8125 118.382812 L 246.953125 118.382812 L 246.953125 113.238281 Z M 241.8125 118.382812 L 241.8125 123.523438 L 246.953125 123.523438 L 246.953125 118.382812 Z M 236.667969 87.523438 L 236.667969 92.667969 L 241.8125 92.667969 L 241.8125 87.523438 Z M 236.667969 92.667969 L 236.667969 97.808594 L 241.8125 97.808594 L 241.8125 92.667969 Z M 236.667969 97.808594 L 236.667969 102.953125 L 241.8125 102.953125 L 241.8125 97.808594 Z M 236.667969 102.953125 L 236.667969 108.09375 L 241.8125 108.09375 L 241.8125 102.953125 Z M 236.667969 108.09375 L 236.667969 113.238281 L 241.8125 113.238281 L 241.8125 108.09375 Z M 236.667969 113.238281 L 236.667969 118.382812 L 241.8125 118.382812 L 241.8125 113.238281 Z M 236.667969 118.382812 L 236.667969 123.523438 L 241.8125 123.523438 L 241.8125 118.382812 Z M 236.667969 123.523438 L 236.667969 128.667969 L 241.8125 128.667969 L 241.8125 123.523438 Z M 231.527344 87.523438 L 231.527344 92.667969 L 236.667969 92.667969 L 236.667969 87.523438 Z M 231.527344 92.667969 L 231.527344 97.808594 L 236.667969 97.808594 L 236.667969 92.667969 Z M 231.527344 97.808594 L 231.527344 102.953125 L 236.667969 102.953125 L 236.667969 97.808594 Z M 231.527344 102.953125 L 231.527344 108.09375 L 236.667969 108.09375 L 236.667969 102.953125 Z M 231.527344 108.09375 L 231.527344 113.238281 L 236.667969 113.238281 L 236.667969 108.09375 Z M 231.527344 113.238281 L 231.527344 118.382812 L 236.667969 118.382812 L 236.667969 113.238281 Z M 231.527344 118.382812 L 231.527344 123.523438 L 236.667969 123.523438 L 236.667969 118.382812 Z M 231.527344 123.523438 L 231.527344 128.667969 L 236.667969 128.667969 L 236.667969 123.523438 Z M 226.382812 77.238281 L 226.382812 82.382812 L 231.527344 82.382812 L 231.527344 77.238281 Z M 226.382812 82.382812 L 226.382812 87.523438 L 231.527344 87.523438 L 231.527344 82.382812 Z M 226.382812 87.523438 L 226.382812 92.667969 L 231.527344 92.667969 L 231.527344 87.523438 Z M 226.382812 108.09375 L 226.382812 113.238281 L 231.527344 113.238281 L 231.527344 108.09375 Z M 226.382812 113.238281 L 226.382812 118.382812 L 231.527344 118.382812 L 231.527344 113.238281 Z M 226.382812 118.382812 L 226.382812 123.523438 L 231.527344 123.523438 L 231.527344 118.382812 Z M 226.382812 123.523438 L 226.382812 128.667969 L 231.527344 128.667969 L 231.527344 123.523438 Z M 221.242188 77.238281 L 221.242188 82.382812 L 226.382812 82.382812 L 226.382812 77.238281 Z M 221.242188 82.382812 L 221.242188 87.523438 L 226.382812 87.523438 L 226.382812 82.382812 Z M 221.242188 102.953125 L 221.242188 108.09375 L 226.382812 108.09375 L 226.382812 102.953125 Z M 221.242188 108.09375 L 221.242188 113.238281 L 226.382812 113.238281 L 226.382812 108.09375 Z M 221.242188 113.238281 L 221.242188 118.382812 L 226.382812 118.382812 L 226.382812 113.238281 Z M 221.242188 118.382812 L 221.242188 123.523438 L 226.382812 123.523438 L 226.382812 118.382812 Z M 221.242188 123.523438 L 221.242188 128.667969 L 226.382812 128.667969 L 226.382812 123.523438 Z M 216.097656 72.097656 L 216.097656 77.238281 L 221.242188 77.238281 L 221.242188 72.097656 Z M 216.097656 77.238281 L 216.097656 82.382812 L 221.242188 82.382812 L 221.242188 77.238281 Z M 216.097656 102.953125 L 216.097656 108.09375 L 221.242188 108.09375 L 221.242188 102.953125 Z M 216.097656 108.09375 L 216.097656 113.238281 L 221.242188 113.238281 L 221.242188 108.09375 Z M 216.097656 113.238281 L 216.097656 118.382812 L 221.242188 118.382812 L 221.242188 113.238281 Z M 216.097656 118.382812 L 216.097656 123.523438 L 221.242188 123.523438 L 221.242188 118.382812 Z M 216.097656 123.523438 L 216.097656 128.667969 L 221.242188 128.667969 L 221.242188 123.523438 Z M 210.953125 72.097656 L 210.953125 77.238281 L 216.097656 77.238281 L 216.097656 72.097656 Z M 210.953125 77.238281 L 210.953125 82.382812 L 216.097656 82.382812 L 216.097656 77.238281 Z M 210.953125 108.09375 L 210.953125 113.238281 L 216.097656 113.238281 L 216.097656 108.09375 Z M 210.953125 113.238281 L 210.953125 118.382812 L 216.097656 118.382812 L 216.097656 113.238281 Z M 210.953125 118.382812 L 210.953125 123.523438 L 216.097656 123.523438 L 216.097656 118.382812 Z M 210.953125 123.523438 L 210.953125 128.667969 L 216.097656 128.667969 L 216.097656 123.523438 Z M 205.8125 30.953125 L 205.8125 36.097656 L 210.953125 36.097656 L 210.953125 30.953125 Z M 205.8125 36.097656 L 205.8125 41.238281 L 210.953125 41.238281 L 210.953125 36.097656 Z M 205.8125 72.097656 L 205.8125 77.238281 L 210.953125 77.238281 L 210.953125 72.097656 Z M 205.8125 77.238281 L 205.8125 82.382812 L 210.953125 82.382812 L 210.953125 77.238281 Z M 205.8125 113.238281 L 205.8125 118.382812 L 210.953125 118.382812 L 210.953125 113.238281 Z M 205.8125 118.382812 L 205.8125 123.523438 L 210.953125 123.523438 L 210.953125 118.382812 Z M 205.8125 123.523438 L 205.8125 128.667969 L 210.953125 128.667969 L 210.953125 123.523438 Z M 200.667969 41.238281 L 200.667969 46.382812 L 205.8125 46.382812 L 205.8125 41.238281 Z M 200.667969 72.097656 L 200.667969 77.238281 L 205.8125 77.238281 L 205.8125 72.097656 Z M 200.667969 77.238281 L 200.667969 82.382812 L 205.8125 82.382812 L 205.8125 77.238281 Z M 200.667969 118.382812 L 200.667969 123.523438 L 205.8125 123.523438 L 205.8125 118.382812 Z M 200.667969 123.523438 L 200.667969 128.667969 L 205.8125 128.667969 L 205.8125 123.523438 Z M 195.527344 46.382812 L 195.527344 51.523438 L 200.667969 51.523438 L 200.667969 46.382812 Z M 195.527344 51.523438 L 195.527344 56.667969 L 200.667969 56.667969 L 200.667969 51.523438 Z M 195.527344 77.238281 L 195.527344 82.382812 L 200.667969 82.382812 L 200.667969 77.238281 Z M 195.527344 82.382812 L 195.527344 87.523438 L 200.667969 87.523438 L 200.667969 82.382812 Z M 195.527344 118.382812 L 195.527344 123.523438 L 200.667969 123.523438 L 200.667969 118.382812 Z M 195.527344 123.523438 L 195.527344 128.667969 L 200.667969 128.667969 L 200.667969 123.523438 Z M 190.382812 77.238281 L 190.382812 82.382812 L 195.527344 82.382812 L 195.527344 77.238281 Z M 190.382812 82.382812 L 190.382812 87.523438 L 195.527344 87.523438 L 195.527344 82.382812 Z M 190.382812 118.382812 L 190.382812 123.523438 L 195.527344 123.523438 L 195.527344 118.382812 Z M 190.382812 123.523438 L 190.382812 128.667969 L 195.527344 128.667969 L 195.527344 123.523438 Z M 185.238281 82.382812 L 185.238281 87.523438 L 190.382812 87.523438 L 190.382812 82.382812 Z M 185.238281 118.382812 L 185.238281 123.523438 L 190.382812 123.523438 L 190.382812 118.382812 Z M 185.238281 123.523438 L 185.238281 128.667969 L 190.382812 128.667969 L 190.382812 123.523438 Z M 180.097656 82.382812 L 180.097656 87.523438 L 185.238281 87.523438 L 185.238281 82.382812 Z M 180.097656 118.382812 L 180.097656 123.523438 L 185.238281 123.523438 L 185.238281 118.382812 Z M 180.097656 123.523438 L 180.097656 128.667969 L 185.238281 128.667969 L 185.238281 123.523438 Z M 174.953125 113.238281 L 174.953125 118.382812 L 180.097656 118.382812 L 180.097656 113.238281 Z M 174.953125 118.382812 L 174.953125 123.523438 L 180.097656 123.523438 L 180.097656 118.382812 Z M 174.953125 123.523438 L 174.953125 128.667969 L 180.097656 128.667969 L 180.097656 123.523438 Z M 169.8125 51.523438 L 169.8125 56.667969 L 174.953125 56.667969 L 174.953125 51.523438 Z M 169.8125 56.667969 L 169.8125 61.8125 L 174.953125 61.8125 L 174.953125 56.667969 Z M 169.8125 92.667969 L 169.8125 97.808594 L 174.953125 97.808594 L 174.953125 92.667969 Z M 169.8125 113.238281 L 169.8125 118.382812 L 174.953125 118.382812 L 174.953125 113.238281 Z M 169.8125 118.382812 L 169.8125 123.523438 L 174.953125 123.523438 L 174.953125 118.382812 Z M 169.8125 123.523438 L 169.8125 128.667969 L 174.953125 128.667969 L 174.953125 123.523438 Z M 164.667969 0.0976562 L 164.667969 5.238281 L 169.8125 5.238281 L 169.8125 0.0976562 Z M 164.667969 46.382812 L 164.667969 51.523438 L 169.8125 51.523438 L 169.8125 46.382812 Z M 164.667969 51.523438 L 164.667969 56.667969 L 169.8125 56.667969 L 169.8125 51.523438 Z M 164.667969 92.667969 L 164.667969 97.808594 L 169.8125 97.808594 L 169.8125 92.667969 Z M 164.667969 97.808594 L 164.667969 102.953125 L 169.8125 102.953125 L 169.8125 97.808594 Z M 164.667969 108.09375 L 164.667969 113.238281 L 169.8125 113.238281 L 169.8125 108.09375 Z M 164.667969 113.238281 L 164.667969 118.382812 L 169.8125 118.382812 L 169.8125 113.238281 Z M 164.667969 118.382812 L 164.667969 123.523438 L 169.8125 123.523438 L 169.8125 118.382812 Z M 164.667969 123.523438 L 164.667969 128.667969 L 169.8125 128.667969 L 169.8125 123.523438 Z M 159.527344 0.0976562 L 159.527344 5.238281 L 164.667969 5.238281 L 164.667969 0.0976562 Z M 159.527344 46.382812 L 159.527344 51.523438 L 164.667969 51.523438 L 164.667969 46.382812 Z M 159.527344 97.808594 L 159.527344 102.953125 L 164.667969 102.953125 L 164.667969 97.808594 Z M 159.527344 102.953125 L 159.527344 108.09375 L 164.667969 108.09375 L 164.667969 102.953125 Z M 159.527344 108.09375 L 159.527344 113.238281 L 164.667969 113.238281 L 164.667969 108.09375 Z M 159.527344 113.238281 L 159.527344 118.382812 L 164.667969 118.382812 L 164.667969 113.238281 Z M 159.527344 118.382812 L 159.527344 123.523438 L 164.667969 123.523438 L 164.667969 118.382812 Z M 159.527344 123.523438 L 159.527344 128.667969 L 164.667969 128.667969 L 164.667969 123.523438 Z M 154.382812 0.0976562 L 154.382812 5.238281 L 159.527344 5.238281 L 159.527344 0.0976562 Z M 154.382812 46.382812 L 154.382812 51.523438 L 159.527344 51.523438 L 159.527344 46.382812 Z M 154.382812 51.523438 L 154.382812 56.667969 L 159.527344 56.667969 L 159.527344 51.523438 Z M 154.382812 102.953125 L 154.382812 108.09375 L 159.527344 108.09375 L 159.527344 102.953125 Z M 154.382812 108.09375 L 154.382812 113.238281 L 159.527344 113.238281 L 159.527344 108.09375 Z M 154.382812 113.238281 L 154.382812 118.382812 L 159.527344 118.382812 L 159.527344 113.238281 Z M 154.382812 118.382812 L 154.382812 123.523438 L 159.527344 123.523438 L 159.527344 118.382812 Z M 154.382812 123.523438 L 154.382812 128.667969 L 159.527344 128.667969 L 159.527344 123.523438 Z M 149.238281 0.0976562 L 149.238281 5.238281 L 154.382812 5.238281 L 154.382812 0.0976562 Z M 149.238281 5.238281 L 149.238281 10.382812 L 154.382812 10.382812 L 154.382812 5.238281 Z M 149.238281 46.382812 L 149.238281 51.523438 L 154.382812 51.523438 L 154.382812 46.382812 Z M 149.238281 51.523438 L 149.238281 56.667969 L 154.382812 56.667969 L 154.382812 51.523438 Z M 149.238281 113.238281 L 149.238281 118.382812 L 154.382812 118.382812 L 154.382812 113.238281 Z M 149.238281 118.382812 L 149.238281 123.523438 L 154.382812 123.523438 L 154.382812 118.382812 Z M 149.238281 123.523438 L 149.238281 128.667969 L 154.382812 128.667969 L 154.382812 123.523438 Z M 144.097656 0.0976562 L 144.097656 5.238281 L 149.238281 5.238281 L 149.238281 0.0976562 Z M 144.097656 5.238281 L 144.097656 10.382812 L 149.238281 10.382812 L 149.238281 5.238281 Z M 144.097656 46.382812 L 144.097656 51.523438 L 149.238281 51.523438 L 149.238281 46.382812 Z M 144.097656 51.523438 L 144.097656 56.667969 L 149.238281 56.667969 L 149.238281 51.523438 Z M 144.097656 113.238281 L 144.097656 118.382812 L 149.238281 118.382812 L 149.238281 113.238281 Z M 144.097656 118.382812 L 144.097656 123.523438 L 149.238281 123.523438 L 149.238281 118.382812 Z M 144.097656 123.523438 L 144.097656 128.667969 L 149.238281 128.667969 L 149.238281 123.523438 Z M 138.953125 5.238281 L 138.953125 10.382812 L 144.097656 10.382812 L 144.097656 5.238281 Z M 138.953125 10.382812 L 138.953125 15.523438 L 144.097656 15.523438 L 144.097656 10.382812 Z M 138.953125 51.523438 L 138.953125 56.667969 L 144.097656 56.667969 L 144.097656 51.523438 Z M 138.953125 56.667969 L 138.953125 61.8125 L 144.097656 61.8125 L 144.097656 56.667969 Z M 138.953125 92.667969 L 138.953125 97.808594 L 144.097656 97.808594 L 144.097656 92.667969 Z M 138.953125 118.382812 L 138.953125 123.523438 L 144.097656 123.523438 L 144.097656 118.382812 Z M 138.953125 123.523438 L 138.953125 128.667969 L 144.097656 128.667969 L 144.097656 123.523438 Z M 133.8125 5.238281 L 133.8125 10.382812 L 138.953125 10.382812 L 138.953125 5.238281 Z M 133.8125 10.382812 L 133.8125 15.523438 L 138.953125 15.523438 L 138.953125 10.382812 Z M 133.8125 51.523438 L 133.8125 56.667969 L 138.953125 56.667969 L 138.953125 51.523438 Z M 133.8125 56.667969 L 133.8125 61.8125 L 138.953125 61.8125 L 138.953125 56.667969 Z M 133.8125 87.523438 L 133.8125 92.667969 L 138.953125 92.667969 L 138.953125 87.523438 Z M 133.8125 118.382812 L 133.8125 123.523438 L 138.953125 123.523438 L 138.953125 118.382812 Z M 133.8125 123.523438 L 133.8125 128.667969 L 138.953125 128.667969 L 138.953125 123.523438 Z M 128.667969 5.238281 L 128.667969 10.382812 L 133.8125 10.382812 L 133.8125 5.238281 Z M 128.667969 10.382812 L 128.667969 15.523438 L 133.8125 15.523438 L 133.8125 10.382812 Z M 128.667969 56.667969 L 128.667969 61.8125 L 133.8125 61.8125 L 133.8125 56.667969 Z M 128.667969 61.8125 L 128.667969 66.953125 L 133.8125 66.953125 L 133.8125 61.8125 Z M 128.667969 66.953125 L 128.667969 72.097656 L 133.8125 72.097656 L 133.8125 66.953125 Z M 128.667969 82.382812 L 128.667969 87.523438 L 133.8125 87.523438 L 133.8125 82.382812 Z M 128.667969 118.382812 L 128.667969 123.523438 L 133.8125 123.523438 L 133.8125 118.382812 Z M 128.667969 123.523438 L 128.667969 128.667969 L 133.8125 128.667969 L 133.8125 123.523438 Z M 123.527344 10.382812 L 123.527344 15.523438 L 128.667969 15.523438 L 128.667969 10.382812 Z M 123.527344 15.523438 L 123.527344 20.667969 L 128.667969 20.667969 L 128.667969 15.523438 Z M 123.527344 56.667969 L 123.527344 61.8125 L 128.667969 61.8125 L 128.667969 56.667969 Z M 123.527344 61.8125 L 123.527344 66.953125 L 128.667969 66.953125 L 128.667969 61.8125 Z M 123.527344 66.953125 L 123.527344 72.097656 L 128.667969 72.097656 L 128.667969 66.953125 Z M 123.527344 72.097656 L 123.527344 77.238281 L 128.667969 77.238281 L 128.667969 72.097656 Z M 123.527344 77.238281 L 123.527344 82.382812 L 128.667969 82.382812 L 128.667969 77.238281 Z M 123.527344 82.382812 L 123.527344 87.523438 L 128.667969 87.523438 L 128.667969 82.382812 Z M 123.527344 118.382812 L 123.527344 123.523438 L 128.667969 123.523438 L 128.667969 118.382812 Z M 123.527344 123.523438 L 123.527344 128.667969 L 128.667969 128.667969 L 128.667969 123.523438 Z M 118.382812 10.382812 L 118.382812 15.523438 L 123.527344 15.523438 L 123.527344 10.382812 Z M 118.382812 15.523438 L 118.382812 20.667969 L 123.527344 20.667969 L 123.527344 15.523438 Z M 118.382812 20.667969 L 118.382812 25.8125 L 123.527344 25.8125 L 123.527344 20.667969 Z M 118.382812 66.953125 L 118.382812 72.097656 L 123.527344 72.097656 L 123.527344 66.953125 Z M 118.382812 72.097656 L 118.382812 77.238281 L 123.527344 77.238281 L 123.527344 72.097656 Z M 118.382812 77.238281 L 118.382812 82.382812 L 123.527344 82.382812 L 123.527344 77.238281 Z M 118.382812 82.382812 L 118.382812 87.523438 L 123.527344 87.523438 L 123.527344 82.382812 Z M 118.382812 118.382812 L 118.382812 123.523438 L 123.527344 123.523438 L 123.527344 118.382812 Z M 118.382812 123.523438 L 118.382812 128.667969 L 123.527344 128.667969 L 123.527344 123.523438 Z M 113.242188 15.523438 L 113.242188 20.667969 L 118.382812 20.667969 L 118.382812 15.523438 Z M 113.242188 20.667969 L 113.242188 25.8125 L 118.382812 25.8125 L 118.382812 20.667969 Z M 113.242188 25.8125 L 113.242188 30.953125 L 118.382812 30.953125 L 118.382812 25.8125 Z M 113.242188 41.238281 L 113.242188 46.382812 L 118.382812 46.382812 L 118.382812 41.238281 Z M 113.242188 46.382812 L 113.242188 51.523438 L 118.382812 51.523438 L 118.382812 46.382812 Z M 113.242188 77.238281 L 113.242188 82.382812 L 118.382812 82.382812 L 118.382812 77.238281 Z M 113.242188 82.382812 L 113.242188 87.523438 L 118.382812 87.523438 L 118.382812 82.382812 Z M 113.242188 118.382812 L 113.242188 123.523438 L 118.382812 123.523438 L 118.382812 118.382812 Z M 113.242188 123.523438 L 113.242188 128.667969 L 118.382812 128.667969 L 118.382812 123.523438 Z M 108.097656 25.8125 L 108.097656 30.953125 L 113.242188 30.953125 L 113.242188 25.8125 Z M 108.097656 30.953125 L 108.097656 36.097656 L 113.242188 36.097656 L 113.242188 30.953125 Z M 108.097656 36.097656 L 108.097656 41.238281 L 113.242188 41.238281 L 113.242188 36.097656 Z M 108.097656 77.238281 L 108.097656 82.382812 L 113.242188 82.382812 L 113.242188 77.238281 Z M 108.097656 82.382812 L 108.097656 87.523438 L 113.242188 87.523438 L 113.242188 82.382812 Z M 108.097656 118.382812 L 108.097656 123.523438 L 113.242188 123.523438 L 113.242188 118.382812 Z M 108.097656 123.523438 L 108.097656 128.667969 L 113.242188 128.667969 L 113.242188 123.523438 Z M 102.953125 30.953125 L 102.953125 36.097656 L 108.097656 36.097656 L 108.097656 30.953125 Z M 102.953125 36.097656 L 102.953125 41.238281 L 108.097656 41.238281 L 108.097656 36.097656 Z M 102.953125 77.238281 L 102.953125 82.382812 L 108.097656 82.382812 L 108.097656 77.238281 Z M 102.953125 82.382812 L 102.953125 87.523438 L 108.097656 87.523438 L 108.097656 82.382812 Z M 102.953125 87.523438 L 102.953125 92.667969 L 108.097656 92.667969 L 108.097656 87.523438 Z M 102.953125 118.382812 L 102.953125 123.523438 L 108.097656 123.523438 L 108.097656 118.382812 Z M 102.953125 123.523438 L 102.953125 128.667969 L 108.097656 128.667969 L 108.097656 123.523438 Z M 97.8125 30.953125 L 97.8125 36.097656 L 102.953125 36.097656 L 102.953125 30.953125 Z M 97.8125 36.097656 L 97.8125 41.238281 L 102.953125 41.238281 L 102.953125 36.097656 Z M 97.8125 82.382812 L 97.8125 87.523438 L 102.953125 87.523438 L 102.953125 82.382812 Z M 97.8125 87.523438 L 97.8125 92.667969 L 102.953125 92.667969 L 102.953125 87.523438 Z M 97.8125 113.238281 L 97.8125 118.382812 L 102.953125 118.382812 L 102.953125 113.238281 Z M 97.8125 118.382812 L 97.8125 123.523438 L 102.953125 123.523438 L 102.953125 118.382812 Z M 97.8125 123.523438 L 97.8125 128.667969 L 102.953125 128.667969 L 102.953125 123.523438 Z M 92.667969 30.953125 L 92.667969 36.097656 L 97.8125 36.097656 L 97.8125 30.953125 Z M 92.667969 36.097656 L 92.667969 41.238281 L 97.8125 41.238281 L 97.8125 36.097656 Z M 92.667969 87.523438 L 92.667969 92.667969 L 97.8125 92.667969 L 97.8125 87.523438 Z M 92.667969 92.667969 L 92.667969 97.808594 L 97.8125 97.808594 L 97.8125 92.667969 Z M 92.667969 113.238281 L 92.667969 118.382812 L 97.8125 118.382812 L 97.8125 113.238281 Z M 92.667969 118.382812 L 92.667969 123.523438 L 97.8125 123.523438 L 97.8125 118.382812 Z M 92.667969 123.523438 L 92.667969 128.667969 L 97.8125 128.667969 L 97.8125 123.523438 Z M 87.527344 30.953125 L 87.527344 36.097656 L 92.667969 36.097656 L 92.667969 30.953125 Z M 87.527344 36.097656 L 87.527344 41.238281 L 92.667969 41.238281 L 92.667969 36.097656 Z M 87.527344 87.523438 L 87.527344 92.667969 L 92.667969 92.667969 L 92.667969 87.523438 Z M 87.527344 92.667969 L 87.527344 97.808594 L 92.667969 97.808594 L 92.667969 92.667969 Z M 87.527344 97.808594 L 87.527344 102.953125 L 92.667969 102.953125 L 92.667969 97.808594 Z M 87.527344 108.09375 L 87.527344 113.238281 L 92.667969 113.238281 L 92.667969 108.09375 Z M 87.527344 113.238281 L 87.527344 118.382812 L 92.667969 118.382812 L 92.667969 113.238281 Z M 87.527344 118.382812 L 87.527344 123.523438 L 92.667969 123.523438 L 92.667969 118.382812 Z M 87.527344 123.523438 L 87.527344 128.667969 L 92.667969 128.667969 L 92.667969 123.523438 Z M 82.382812 36.097656 L 82.382812 41.238281 L 87.527344 41.238281 L 87.527344 36.097656 Z M 82.382812 41.238281 L 82.382812 46.382812 L 87.527344 46.382812 L 87.527344 41.238281 Z M 82.382812 92.667969 L 82.382812 97.808594 L 87.527344 97.808594 L 87.527344 92.667969 Z M 82.382812 97.808594 L 82.382812 102.953125 L 87.527344 102.953125 L 87.527344 97.808594 Z M 82.382812 102.953125 L 82.382812 108.09375 L 87.527344 108.09375 L 87.527344 102.953125 Z M 82.382812 108.09375 L 82.382812 113.238281 L 87.527344 113.238281 L 87.527344 108.09375 Z M 82.382812 113.238281 L 82.382812 118.382812 L 87.527344 118.382812 L 87.527344 113.238281 Z M 82.382812 118.382812 L 82.382812 123.523438 L 87.527344 123.523438 L 87.527344 118.382812 Z M 82.382812 123.523438 L 82.382812 128.667969 L 87.527344 128.667969 L 87.527344 123.523438 Z M 77.242188 36.097656 L 77.242188 41.238281 L 82.382812 41.238281 L 82.382812 36.097656 Z M 77.242188 41.238281 L 77.242188 46.382812 L 82.382812 46.382812 L 82.382812 41.238281 Z M 77.242188 46.382812 L 77.242188 51.523438 L 82.382812 51.523438 L 82.382812 46.382812 Z M 77.242188 92.667969 L 77.242188 97.808594 L 82.382812 97.808594 L 82.382812 92.667969 Z M 77.242188 97.808594 L 77.242188 102.953125 L 82.382812 102.953125 L 82.382812 97.808594 Z M 77.242188 102.953125 L 77.242188 108.09375 L 82.382812 108.09375 L 82.382812 102.953125 Z M 77.242188 108.09375 L 77.242188 113.238281 L 82.382812 113.238281 L 82.382812 108.09375 Z M 77.242188 113.238281 L 77.242188 118.382812 L 82.382812 118.382812 L 82.382812 113.238281 Z M 77.242188 118.382812 L 77.242188 123.523438 L 82.382812 123.523438 L 82.382812 118.382812 Z M 77.242188 123.523438 L 77.242188 128.667969 L 82.382812 128.667969 L 82.382812 123.523438 Z M 72.097656 41.238281 L 72.097656 46.382812 L 77.242188 46.382812 L 77.242188 41.238281 Z M 72.097656 46.382812 L 72.097656 51.523438 L 77.242188 51.523438 L 77.242188 46.382812 Z M 72.097656 51.523438 L 72.097656 56.667969 L 77.242188 56.667969 L 77.242188 51.523438 Z M 72.097656 56.667969 L 72.097656 61.8125 L 77.242188 61.8125 L 77.242188 56.667969 Z M 72.097656 92.667969 L 72.097656 97.808594 L 77.242188 97.808594 L 77.242188 92.667969 Z M 72.097656 97.808594 L 72.097656 102.953125 L 77.242188 102.953125 L 77.242188 97.808594 Z M 72.097656 102.953125 L 72.097656 108.09375 L 77.242188 108.09375 L 77.242188 102.953125 Z M 72.097656 108.09375 L 72.097656 113.238281 L 77.242188 113.238281 L 77.242188 108.09375 Z M 72.097656 113.238281 L 72.097656 118.382812 L 77.242188 118.382812 L 77.242188 113.238281 Z M 72.097656 118.382812 L 72.097656 123.523438 L 77.242188 123.523438 L 77.242188 118.382812 Z M 72.097656 123.523438 L 72.097656 128.667969 L 77.242188 128.667969 L 77.242188 123.523438 Z M 66.953125 51.523438 L 66.953125 56.667969 L 72.097656 56.667969 L 72.097656 51.523438 Z M 66.953125 56.667969 L 66.953125 61.8125 L 72.097656 61.8125 L 72.097656 56.667969 Z M 66.953125 61.8125 L 66.953125 66.953125 L 72.097656 66.953125 L 72.097656 61.8125 Z M 66.953125 92.667969 L 66.953125 97.808594 L 72.097656 97.808594 L 72.097656 92.667969 Z M 66.953125 97.808594 L 66.953125 102.953125 L 72.097656 102.953125 L 72.097656 97.808594 Z M 66.953125 102.953125 L 66.953125 108.09375 L 72.097656 108.09375 L 72.097656 102.953125 Z M 66.953125 108.09375 L 66.953125 113.238281 L 72.097656 113.238281 L 72.097656 108.09375 Z M 66.953125 113.238281 L 66.953125 118.382812 L 72.097656 118.382812 L 72.097656 113.238281 Z M 66.953125 118.382812 L 66.953125 123.523438 L 72.097656 123.523438 L 72.097656 118.382812 Z M 66.953125 123.523438 L 66.953125 128.667969 L 72.097656 128.667969 L 72.097656 123.523438 Z M 61.8125 61.8125 L 61.8125 66.953125 L 66.953125 66.953125 L 66.953125 61.8125 Z M 61.8125 66.953125 L 61.8125 72.097656 L 66.953125 72.097656 L 66.953125 66.953125 Z M 61.8125 72.097656 L 61.8125 77.238281 L 66.953125 77.238281 L 66.953125 72.097656 Z M 61.8125 82.382812 L 61.8125 87.523438 L 66.953125 87.523438 L 66.953125 82.382812 Z M 61.8125 87.523438 L 61.8125 92.667969 L 66.953125 92.667969 L 66.953125 87.523438 Z M 61.8125 92.667969 L 61.8125 97.808594 L 66.953125 97.808594 L 66.953125 92.667969 Z M 61.8125 97.808594 L 61.8125 102.953125 L 66.953125 102.953125 L 66.953125 97.808594 Z M 61.8125 102.953125 L 61.8125 108.09375 L 66.953125 108.09375 L 66.953125 102.953125 Z M 61.8125 108.09375 L 61.8125 113.238281 L 66.953125 113.238281 L 66.953125 108.09375 Z M 61.8125 113.238281 L 61.8125 118.382812 L 66.953125 118.382812 L 66.953125 113.238281 Z M 61.8125 118.382812 L 61.8125 123.523438 L 66.953125 123.523438 L 66.953125 118.382812 Z M 61.8125 123.523438 L 61.8125 128.667969 L 66.953125 128.667969 L 66.953125 123.523438 Z M 56.667969 56.667969 L 56.667969 61.8125 L 61.8125 61.8125 L 61.8125 56.667969 Z M 56.667969 61.8125 L 56.667969 66.953125 L 61.8125 66.953125 L 61.8125 61.8125 Z M 56.667969 66.953125 L 56.667969 72.097656 L 61.8125 72.097656 L 61.8125 66.953125 Z M 56.667969 72.097656 L 56.667969 77.238281 L 61.8125 77.238281 L 61.8125 72.097656 Z M 56.667969 77.238281 L 56.667969 82.382812 L 61.8125 82.382812 L 61.8125 77.238281 Z M 56.667969 82.382812 L 56.667969 87.523438 L 61.8125 87.523438 L 61.8125 82.382812 Z M 56.667969 87.523438 L 56.667969 92.667969 L 61.8125 92.667969 L 61.8125 87.523438 Z M 56.667969 92.667969 L 56.667969 97.808594 L 61.8125 97.808594 L 61.8125 92.667969 Z M 56.667969 113.238281 L 56.667969 118.382812 L 61.8125 118.382812 L 61.8125 113.238281 Z M 56.667969 118.382812 L 56.667969 123.523438 L 61.8125 123.523438 L 61.8125 118.382812 Z M 56.667969 123.523438 L 56.667969 128.667969 L 61.8125 128.667969 L 61.8125 123.523438 Z M 51.527344 56.667969 L 51.527344 61.8125 L 56.667969 61.8125 L 56.667969 56.667969 Z M 51.527344 61.8125 L 51.527344 66.953125 L 56.667969 66.953125 L 56.667969 61.8125 Z M 51.527344 72.097656 L 51.527344 77.238281 L 56.667969 77.238281 L 56.667969 72.097656 Z M 51.527344 77.238281 L 51.527344 82.382812 L 56.667969 82.382812 L 56.667969 77.238281 Z M 51.527344 82.382812 L 51.527344 87.523438 L 56.667969 87.523438 L 56.667969 82.382812 Z M 51.527344 118.382812 L 51.527344 123.523438 L 56.667969 123.523438 L 56.667969 118.382812 Z M 51.527344 123.523438 L 51.527344 128.667969 L 56.667969 128.667969 L 56.667969 123.523438 Z M 46.382812 56.667969 L 46.382812 61.8125 L 51.527344 61.8125 L 51.527344 56.667969 Z M 46.382812 61.8125 L 46.382812 66.953125 L 51.527344 66.953125 L 51.527344 61.8125 Z M 46.382812 118.382812 L 46.382812 123.523438 L 51.527344 123.523438 L 51.527344 118.382812 Z M 46.382812 123.523438 L 46.382812 128.667969 L 51.527344 128.667969 L 51.527344 123.523438 Z M 41.242188 61.8125 L 41.242188 66.953125 L 46.382812 66.953125 L 46.382812 61.8125 Z M 41.242188 66.953125 L 41.242188 72.097656 L 46.382812 72.097656 L 46.382812 66.953125 Z M 41.242188 118.382812 L 41.242188 123.523438 L 46.382812 123.523438 L 46.382812 118.382812 Z M 41.242188 123.523438 L 41.242188 128.667969 L 46.382812 128.667969 L 46.382812 123.523438 Z M 36.097656 61.8125 L 36.097656 66.953125 L 41.242188 66.953125 L 41.242188 61.8125 Z M 36.097656 66.953125 L 36.097656 72.097656 L 41.242188 72.097656 L 41.242188 66.953125 Z M 36.097656 118.382812 L 36.097656 123.523438 L 41.242188 123.523438 L 41.242188 118.382812 Z M 36.097656 123.523438 L 36.097656 128.667969 L 41.242188 128.667969 L 41.242188 123.523438 Z M 30.953125 61.8125 L 30.953125 66.953125 L 36.097656 66.953125 L 36.097656 61.8125 Z M 30.953125 66.953125 L 30.953125 72.097656 L 36.097656 72.097656 L 36.097656 66.953125 Z M 30.953125 72.097656 L 30.953125 77.238281 L 36.097656 77.238281 L 36.097656 72.097656 Z M 30.953125 92.667969 L 30.953125 97.808594 L 36.097656 97.808594 L 36.097656 92.667969 Z M 30.953125 97.808594 L 30.953125 102.953125 L 36.097656 102.953125 L 36.097656 97.808594 Z M 30.953125 102.953125 L 30.953125 108.09375 L 36.097656 108.09375 L 36.097656 102.953125 Z M 30.953125 113.238281 L 30.953125 118.382812 L 36.097656 118.382812 L 36.097656 113.238281 Z M 30.953125 118.382812 L 30.953125 123.523438 L 36.097656 123.523438 L 36.097656 118.382812 Z M 30.953125 123.523438 L 30.953125 128.667969 L 36.097656 128.667969 L 36.097656 123.523438 Z M 25.8125 66.953125 L 25.8125 72.097656 L 30.953125 72.097656 L 30.953125 66.953125 Z M 25.8125 72.097656 L 25.8125 77.238281 L 30.953125 77.238281 L 30.953125 72.097656 Z M 25.8125 77.238281 L 25.8125 82.382812 L 30.953125 82.382812 L 30.953125 77.238281 Z M 25.8125 82.382812 L 25.8125 87.523438 L 30.953125 87.523438 L 30.953125 82.382812 Z M 25.8125 87.523438 L 25.8125 92.667969 L 30.953125 92.667969 L 30.953125 87.523438 Z M 25.8125 92.667969 L 25.8125 97.808594 L 30.953125 97.808594 L 30.953125 92.667969 Z M 25.8125 97.808594 L 25.8125 102.953125 L 30.953125 102.953125 L 30.953125 97.808594 Z M 25.8125 102.953125 L 25.8125 108.09375 L 30.953125 108.09375 L 30.953125 102.953125 Z M 25.8125 108.09375 L 25.8125 113.238281 L 30.953125 113.238281 L 30.953125 108.09375 Z M 25.8125 113.238281 L 25.8125 118.382812 L 30.953125 118.382812 L 30.953125 113.238281 Z M 25.8125 118.382812 L 25.8125 123.523438 L 30.953125 123.523438 L 30.953125 118.382812 Z M 25.8125 123.523438 L 25.8125 128.667969 L 30.953125 128.667969 L 30.953125 123.523438 Z M 20.671875 72.097656 L 20.671875 77.238281 L 25.8125 77.238281 L 25.8125 72.097656 Z M 20.671875 77.238281 L 20.671875 82.382812 L 25.8125 82.382812 L 25.8125 77.238281 Z M 20.671875 82.382812 L 20.671875 87.523438 L 25.8125 87.523438 L 25.8125 82.382812 Z M 20.671875 87.523438 L 20.671875 92.667969 L 25.8125 92.667969 L 25.8125 87.523438 Z M 20.671875 92.667969 L 20.671875 97.808594 L 25.8125 97.808594 L 25.8125 92.667969 Z M 20.671875 97.808594 L 20.671875 102.953125 L 25.8125 102.953125 L 25.8125 97.808594 Z M 20.671875 102.953125 L 20.671875 108.09375 L 25.8125 108.09375 L 25.8125 102.953125 Z M 20.671875 108.09375 L 20.671875 113.238281 L 25.8125 113.238281 L 25.8125 108.09375 Z M 20.671875 113.238281 L 20.671875 118.382812 L 25.8125 118.382812 L 25.8125 113.238281 Z M 20.671875 118.382812 L 20.671875 123.523438 L 25.8125 123.523438 L 25.8125 118.382812 Z M 20.671875 123.523438 L 20.671875 128.667969 L 25.8125 128.667969 L 25.8125 123.523438 Z M 15.527344 77.238281 L 15.527344 82.382812 L 20.671875 82.382812 L 20.671875 77.238281 Z M 15.527344 82.382812 L 15.527344 87.523438 L 20.671875 87.523438 L 20.671875 82.382812 Z M 15.527344 87.523438 L 15.527344 92.667969 L 20.671875 92.667969 L 20.671875 87.523438 Z M 15.527344 92.667969 L 15.527344 97.808594 L 20.671875 97.808594 L 20.671875 92.667969 Z M 15.527344 97.808594 L 15.527344 102.953125 L 20.671875 102.953125 L 20.671875 97.808594 Z M 15.527344 102.953125 L 15.527344 108.09375 L 20.671875 108.09375 L 20.671875 102.953125 Z M 15.527344 108.09375 L 15.527344 113.238281 L 20.671875 113.238281 L 20.671875 108.09375 Z M 15.527344 113.238281 L 15.527344 118.382812 L 20.671875 118.382812 L 20.671875 113.238281 Z M 15.527344 118.382812 L 15.527344 123.523438 L 20.671875 123.523438 L 20.671875 118.382812 Z M 15.527344 123.523438 L 15.527344 128.667969 L 20.671875 128.667969 L 20.671875 123.523438 Z M 10.382812 87.523438 L 10.382812 92.667969 L 15.527344 92.667969 L 15.527344 87.523438 Z M 10.382812 92.667969 L 10.382812 97.808594 L 15.527344 97.808594 L 15.527344 92.667969 Z M 10.382812 97.808594 L 10.382812 102.953125 L 15.527344 102.953125 L 15.527344 97.808594 Z M 10.382812 102.953125 L 10.382812 108.09375 L 15.527344 108.09375 L 15.527344 102.953125 Z M 10.382812 108.09375 L 10.382812 113.238281 L 15.527344 113.238281 L 15.527344 108.09375 Z M 10.382812 113.238281 L 10.382812 118.382812 L 15.527344 118.382812 L 15.527344 113.238281 Z M 10.382812 118.382812 L 10.382812 123.523438 L 15.527344 123.523438 L 15.527344 118.382812 Z M 5.242188 92.667969 L 5.242188 97.808594 L 10.382812 97.808594 L 10.382812 92.667969 Z M 5.242188 97.808594 L 5.242188 102.953125 L 10.382812 102.953125 L 10.382812 97.808594 Z M 5.242188 102.953125 L 5.242188 108.09375 L 10.382812 108.09375 L 10.382812 102.953125 Z M 5.242188 108.09375 L 5.242188 113.238281 L 10.382812 113.238281 L 10.382812 108.09375 Z M 5.242188 113.238281 L 5.242188 118.382812 L 10.382812 118.382812 L 10.382812 113.238281 Z M 0.0976562 97.808594 L 0.0976562 102.953125 L 5.242188 102.953125 L 5.242188 97.808594 Z M 0.0976562 102.953125 L 0.0976562 108.09375 L 5.242188 108.09375 L 5.242188 102.953125 Z M 5.242188 108.09375 L 5.242188 113.238281 L 0.0976562 113.238281 L 0.0976562 108.09375 L 5.242188 108.09375 " fill-opacity="1" fill-rule="nonzero"/></g><g fill="#6a3b79" fill-opacity="1"><g transform="translate(158.22784, 122.635511)"><g><path d="M 2.515625 -1.75 C 2.515625 -2.488281 2.679688 -3.050781 3.015625 -3.4375 C 3.359375 -3.820312 3.84375 -4.015625 4.46875 -4.015625 C 5.113281 -4.015625 5.613281 -3.820312 5.96875 -3.4375 C 6.332031 -3.050781 6.515625 -2.488281 6.515625 -1.75 C 6.515625 -1.03125 6.332031 -0.476562 5.96875 -0.09375 C 5.601562 0.289062 5.101562 0.484375 4.46875 0.484375 C 3.90625 0.484375 3.4375 0.3125 3.0625 -0.03125 C 2.695312 -0.382812 2.515625 -0.957031 2.515625 -1.75 Z M 2.515625 -1.75 "/></g></g></g></svg>