<svg xmlns="http://www.w3.org/2000/svg" xmlns:xlink="http://www.w3.org/1999/xlink" width="337" zoomAndPan="magnify" viewBox="0 0 252.75 130.499996" height="174" preserveAspectRatio="xMidYMid meet" version="1.0"><defs><g/><clipPath id="60d6905c40"><path d="M 0.359375 0 L 252 0 L 252 128.507812 L 0.359375 128.507812 Z M 0.359375 0 " clip-rule="nonzero"/></clipPath></defs><path fill="#f84b90" d="M 226.179688 92.476562 L 226.179688 97.605469 L 231.308594 97.605469 L 231.308594 92.476562 Z M 226.179688 97.605469 L 226.179688 102.742188 L 231.308594 102.742188 L 231.308594 97.605469 Z M 226.179688 102.742188 L 226.179688 107.871094 L 231.308594 107.871094 L 231.308594 102.742188 Z M 221.046875 87.34375 L 221.046875 92.476562 L 226.179688 92.476562 L 226.179688 87.34375 Z M 221.046875 92.476562 L 221.046875 97.605469 L 226.179688 97.605469 L 226.179688 92.476562 Z M 221.046875 97.605469 L 221.046875 102.742188 L 226.179688 102.742188 L 226.179688 97.605469 Z M 215.914062 82.214844 L 215.914062 87.34375 L 221.046875 87.34375 L 221.046875 82.214844 Z M 215.914062 87.34375 L 215.914062 92.476562 L 221.046875 92.476562 L 221.046875 87.34375 Z M 215.914062 92.476562 L 215.914062 97.605469 L 221.046875 97.605469 L 221.046875 92.476562 Z M 215.914062 97.605469 L 215.914062 102.742188 L 221.046875 102.742188 L 221.046875 97.605469 Z M 210.78125 82.214844 L 210.78125 87.34375 L 215.914062 87.34375 L 215.914062 82.214844 Z M 210.78125 87.34375 L 210.78125 92.476562 L 215.914062 92.476562 L 215.914062 87.34375 Z M 210.78125 92.476562 L 210.78125 97.605469 L 215.914062 97.605469 L 215.914062 92.476562 Z M 210.78125 97.605469 L 210.78125 102.742188 L 215.914062 102.742188 L 215.914062 97.605469 Z M 210.78125 102.742188 L 210.78125 107.871094 L 215.914062 107.871094 L 215.914062 102.742188 Z M 205.648438 61.683594 L 205.648438 66.816406 L 210.78125 66.816406 L 210.78125 61.683594 Z M 205.648438 66.816406 L 205.648438 71.945312 L 210.78125 71.945312 L 210.78125 66.816406 Z M 205.648438 82.214844 L 205.648438 87.34375 L 210.78125 87.34375 L 210.78125 82.214844 Z M 205.648438 87.34375 L 205.648438 92.476562 L 210.78125 92.476562 L 210.78125 87.34375 Z M 205.648438 92.476562 L 205.648438 97.605469 L 210.78125 97.605469 L 210.78125 92.476562 Z M 205.648438 97.605469 L 205.648438 102.742188 L 210.78125 102.742188 L 210.78125 97.605469 Z M 205.648438 102.742188 L 205.648438 107.871094 L 210.78125 107.871094 L 210.78125 102.742188 Z M 205.648438 107.871094 L 205.648438 113.003906 L 210.78125 113.003906 L 210.78125 107.871094 Z M 200.515625 20.625 L 200.515625 25.757812 L 205.648438 25.757812 L 205.648438 20.625 Z M 200.515625 25.757812 L 200.515625 30.890625 L 205.648438 30.890625 L 205.648438 25.757812 Z M 200.515625 30.890625 L 200.515625 36.023438 L 205.648438 36.023438 L 205.648438 30.890625 Z M 200.515625 36.023438 L 200.515625 41.152344 L 205.648438 41.152344 L 205.648438 36.023438 Z M 200.515625 56.550781 L 200.515625 61.683594 L 205.648438 61.683594 L 205.648438 56.550781 Z M 200.515625 61.683594 L 200.515625 66.816406 L 205.648438 66.816406 L 205.648438 61.683594 Z M 200.515625 66.816406 L 200.515625 71.945312 L 205.648438 71.945312 L 205.648438 66.816406 Z M 200.515625 82.214844 L 200.515625 87.34375 L 205.648438 87.34375 L 205.648438 82.214844 Z M 200.515625 87.34375 L 200.515625 92.476562 L 205.648438 92.476562 L 205.648438 87.34375 Z M 200.515625 92.476562 L 200.515625 97.605469 L 205.648438 97.605469 L 205.648438 92.476562 Z M 200.515625 97.605469 L 200.515625 102.742188 L 205.648438 102.742188 L 205.648438 97.605469 Z M 200.515625 102.742188 L 200.515625 107.871094 L 205.648438 107.871094 L 205.648438 102.742188 Z M 200.515625 107.871094 L 200.515625 113.003906 L 205.648438 113.003906 L 205.648438 107.871094 Z M 200.515625 113.003906 L 200.515625 118.140625 L 205.648438 118.140625 L 205.648438 113.003906 Z M 195.386719 10.359375 L 195.386719 15.492188 L 200.515625 15.492188 L 200.515625 10.359375 Z M 195.386719 15.492188 L 195.386719 20.625 L 200.515625 20.625 L 200.515625 15.492188 Z M 195.386719 20.625 L 195.386719 25.757812 L 200.515625 25.757812 L 200.515625 20.625 Z M 195.386719 25.757812 L 195.386719 30.890625 L 200.515625 30.890625 L 200.515625 25.757812 Z M 195.386719 30.890625 L 195.386719 36.023438 L 200.515625 36.023438 L 200.515625 30.890625 Z M 195.386719 36.023438 L 195.386719 41.152344 L 200.515625 41.152344 L 200.515625 36.023438 Z M 195.386719 41.152344 L 195.386719 46.285156 L 200.515625 46.285156 L 200.515625 41.152344 Z M 195.386719 56.550781 L 195.386719 61.683594 L 200.515625 61.683594 L 200.515625 56.550781 Z M 195.386719 61.683594 L 195.386719 66.816406 L 200.515625 66.816406 L 200.515625 61.683594 Z M 195.386719 66.816406 L 195.386719 71.945312 L 200.515625 71.945312 L 200.515625 66.816406 Z M 195.386719 71.945312 L 195.386719 77.078125 L 200.515625 77.078125 L 200.515625 71.945312 Z M 195.386719 87.34375 L 195.386719 92.476562 L 200.515625 92.476562 L 200.515625 87.34375 Z M 195.386719 92.476562 L 195.386719 97.605469 L 200.515625 97.605469 L 200.515625 92.476562 Z M 195.386719 97.605469 L 195.386719 102.742188 L 200.515625 102.742188 L 200.515625 97.605469 Z M 195.386719 102.742188 L 195.386719 107.871094 L 200.515625 107.871094 L 200.515625 102.742188 Z M 195.386719 107.871094 L 195.386719 113.003906 L 200.515625 113.003906 L 200.515625 107.871094 Z M 195.386719 113.003906 L 195.386719 118.140625 L 200.515625 118.140625 L 200.515625 113.003906 Z M 190.253906 10.359375 L 190.253906 15.492188 L 195.386719 15.492188 L 195.386719 10.359375 Z M 190.253906 15.492188 L 190.253906 20.625 L 195.386719 20.625 L 195.386719 15.492188 Z M 190.253906 20.625 L 190.253906 25.757812 L 195.386719 25.757812 L 195.386719 20.625 Z M 190.253906 25.757812 L 190.253906 30.890625 L 195.386719 30.890625 L 195.386719 25.757812 Z M 190.253906 30.890625 L 190.253906 36.023438 L 195.386719 36.023438 L 195.386719 30.890625 Z M 190.253906 36.023438 L 190.253906 41.152344 L 195.386719 41.152344 L 195.386719 36.023438 Z M 190.253906 41.152344 L 190.253906 46.285156 L 195.386719 46.285156 L 195.386719 41.152344 Z M 190.253906 46.285156 L 190.253906 51.417969 L 195.386719 51.417969 L 195.386719 46.285156 Z M 190.253906 51.417969 L 190.253906 56.550781 L 195.386719 56.550781 L 195.386719 51.417969 Z M 190.253906 56.550781 L 190.253906 61.683594 L 195.386719 61.683594 L 195.386719 56.550781 Z M 190.253906 61.683594 L 190.253906 66.816406 L 195.386719 66.816406 L 195.386719 61.683594 Z M 190.253906 66.816406 L 190.253906 71.945312 L 195.386719 71.945312 L 195.386719 66.816406 Z M 190.253906 71.945312 L 190.253906 77.078125 L 195.386719 77.078125 L 195.386719 71.945312 Z M 190.253906 87.34375 L 190.253906 92.476562 L 195.386719 92.476562 L 195.386719 87.34375 Z M 190.253906 92.476562 L 190.253906 97.605469 L 195.386719 97.605469 L 195.386719 92.476562 Z M 190.253906 97.605469 L 190.253906 102.742188 L 195.386719 102.742188 L 195.386719 97.605469 Z M 190.253906 102.742188 L 190.253906 107.871094 L 195.386719 107.871094 L 195.386719 102.742188 Z M 190.253906 107.871094 L 190.253906 113.003906 L 195.386719 113.003906 L 195.386719 107.871094 Z M 190.253906 113.003906 L 190.253906 118.140625 L 195.386719 118.140625 L 195.386719 113.003906 Z M 185.117188 5.226562 L 185.117188 10.359375 L 190.253906 10.359375 L 190.253906 5.226562 Z M 185.117188 10.359375 L 185.117188 15.492188 L 190.253906 15.492188 L 190.253906 10.359375 Z M 185.117188 15.492188 L 185.117188 20.625 L 190.253906 20.625 L 190.253906 15.492188 Z M 185.117188 20.625 L 185.117188 25.757812 L 190.253906 25.757812 L 190.253906 20.625 Z M 185.117188 25.757812 L 185.117188 30.890625 L 190.253906 30.890625 L 190.253906 25.757812 Z M 185.117188 30.890625 L 185.117188 36.023438 L 190.253906 36.023438 L 190.253906 30.890625 Z M 185.117188 36.023438 L 185.117188 41.152344 L 190.253906 41.152344 L 190.253906 36.023438 Z M 185.117188 41.152344 L 185.117188 46.285156 L 190.253906 46.285156 L 190.253906 41.152344 Z M 185.117188 46.285156 L 185.117188 51.417969 L 190.253906 51.417969 L 190.253906 46.285156 Z M 185.117188 51.417969 L 185.117188 56.550781 L 190.253906 56.550781 L 190.253906 51.417969 Z M 185.117188 56.550781 L 185.117188 61.683594 L 190.253906 61.683594 L 190.253906 56.550781 Z M 185.117188 61.683594 L 185.117188 66.816406 L 190.253906 66.816406 L 190.253906 61.683594 Z M 185.117188 66.816406 L 185.117188 71.945312 L 190.253906 71.945312 L 190.253906 66.816406 Z M 185.117188 71.945312 L 185.117188 77.078125 L 190.253906 77.078125 L 190.253906 71.945312 Z M 185.117188 77.078125 L 185.117188 82.214844 L 190.253906 82.214844 L 190.253906 77.078125 Z M 185.117188 87.34375 L 185.117188 92.476562 L 190.253906 92.476562 L 190.253906 87.34375 Z M 185.117188 92.476562 L 185.117188 97.605469 L 190.253906 97.605469 L 190.253906 92.476562 Z M 185.117188 97.605469 L 185.117188 102.742188 L 190.253906 102.742188 L 190.253906 97.605469 Z M 185.117188 102.742188 L 185.117188 107.871094 L 190.253906 107.871094 L 190.253906 102.742188 Z M 185.117188 107.871094 L 185.117188 113.003906 L 190.253906 113.003906 L 190.253906 107.871094 Z M 185.117188 113.003906 L 185.117188 118.140625 L 190.253906 118.140625 L 190.253906 113.003906 Z M 179.988281 5.226562 L 179.988281 10.359375 L 185.117188 10.359375 L 185.117188 5.226562 Z M 179.988281 10.359375 L 179.988281 15.492188 L 185.117188 15.492188 L 185.117188 10.359375 Z M 179.988281 15.492188 L 179.988281 20.625 L 185.117188 20.625 L 185.117188 15.492188 Z M 179.988281 20.625 L 179.988281 25.757812 L 185.117188 25.757812 L 185.117188 20.625 Z M 179.988281 25.757812 L 179.988281 30.890625 L 185.117188 30.890625 L 185.117188 25.757812 Z M 179.988281 30.890625 L 179.988281 36.023438 L 185.117188 36.023438 L 185.117188 30.890625 Z M 179.988281 36.023438 L 179.988281 41.152344 L 185.117188 41.152344 L 185.117188 36.023438 Z M 179.988281 41.152344 L 179.988281 46.285156 L 185.117188 46.285156 L 185.117188 41.152344 Z M 179.988281 46.285156 L 179.988281 51.417969 L 185.117188 51.417969 L 185.117188 46.285156 Z M 179.988281 51.417969 L 179.988281 56.550781 L 185.117188 56.550781 L 185.117188 51.417969 Z M 179.988281 56.550781 L 179.988281 61.683594 L 185.117188 61.683594 L 185.117188 56.550781 Z M 179.988281 61.683594 L 179.988281 66.816406 L 185.117188 66.816406 L 185.117188 61.683594 Z M 179.988281 66.816406 L 179.988281 71.945312 L 185.117188 71.945312 L 185.117188 66.816406 Z M 179.988281 71.945312 L 179.988281 77.078125 L 185.117188 77.078125 L 185.117188 71.945312 Z M 179.988281 77.078125 L 179.988281 82.214844 L 185.117188 82.214844 L 185.117188 77.078125 Z M 179.988281 87.34375 L 179.988281 92.476562 L 185.117188 92.476562 L 185.117188 87.34375 Z M 179.988281 92.476562 L 179.988281 97.605469 L 185.117188 97.605469 L 185.117188 92.476562 Z M 179.988281 97.605469 L 179.988281 102.742188 L 185.117188 102.742188 L 185.117188 97.605469 Z M 179.988281 102.742188 L 179.988281 107.871094 L 185.117188 107.871094 L 185.117188 102.742188 Z M 179.988281 107.871094 L 179.988281 113.003906 L 185.117188 113.003906 L 185.117188 107.871094 Z M 179.988281 113.003906 L 179.988281 118.140625 L 185.117188 118.140625 L 185.117188 113.003906 Z M 174.855469 0.0976562 L 174.855469 5.226562 L 179.988281 5.226562 L 179.988281 0.0976562 Z M 174.855469 5.226562 L 174.855469 10.359375 L 179.988281 10.359375 L 179.988281 5.226562 Z M 174.855469 10.359375 L 174.855469 15.492188 L 179.988281 15.492188 L 179.988281 10.359375 Z M 174.855469 15.492188 L 174.855469 20.625 L 179.988281 20.625 L 179.988281 15.492188 Z M 174.855469 20.625 L 174.855469 25.757812 L 179.988281 25.757812 L 179.988281 20.625 Z M 174.855469 25.757812 L 174.855469 30.890625 L 179.988281 30.890625 L 179.988281 25.757812 Z M 174.855469 30.890625 L 174.855469 36.023438 L 179.988281 36.023438 L 179.988281 30.890625 Z M 174.855469 36.023438 L 174.855469 41.152344 L 179.988281 41.152344 L 179.988281 36.023438 Z M 174.855469 41.152344 L 174.855469 46.285156 L 179.988281 46.285156 L 179.988281 41.152344 Z M 174.855469 46.285156 L 174.855469 51.417969 L 179.988281 51.417969 L 179.988281 46.285156 Z M 174.855469 51.417969 L 174.855469 56.550781 L 179.988281 56.550781 L 179.988281 51.417969 Z M 174.855469 56.550781 L 174.855469 61.683594 L 179.988281 61.683594 L 179.988281 56.550781 Z M 174.855469 61.683594 L 174.855469 66.816406 L 179.988281 66.816406 L 179.988281 61.683594 Z M 174.855469 66.816406 L 174.855469 71.945312 L 179.988281 71.945312 L 179.988281 66.816406 Z M 174.855469 71.945312 L 174.855469 77.078125 L 179.988281 77.078125 L 179.988281 71.945312 Z M 174.855469 77.078125 L 174.855469 82.214844 L 179.988281 82.214844 L 179.988281 77.078125 Z M 174.855469 82.214844 L 174.855469 87.34375 L 179.988281 87.34375 L 179.988281 82.214844 Z M 174.855469 87.34375 L 174.855469 92.476562 L 179.988281 92.476562 L 179.988281 87.34375 Z M 174.855469 92.476562 L 174.855469 97.605469 L 179.988281 97.605469 L 179.988281 92.476562 Z M 174.855469 97.605469 L 174.855469 102.742188 L 179.988281 102.742188 L 179.988281 97.605469 Z M 174.855469 102.742188 L 174.855469 107.871094 L 179.988281 107.871094 L 179.988281 102.742188 Z M 174.855469 107.871094 L 174.855469 113.003906 L 179.988281 113.003906 L 179.988281 107.871094 Z M 169.722656 0.0976562 L 169.722656 5.226562 L 174.855469 5.226562 L 174.855469 0.0976562 Z M 169.722656 5.226562 L 169.722656 10.359375 L 174.855469 10.359375 L 174.855469 5.226562 Z M 169.722656 10.359375 L 169.722656 15.492188 L 174.855469 15.492188 L 174.855469 10.359375 Z M 169.722656 15.492188 L 169.722656 20.625 L 174.855469 20.625 L 174.855469 15.492188 Z M 169.722656 20.625 L 169.722656 25.757812 L 174.855469 25.757812 L 174.855469 20.625 Z M 169.722656 25.757812 L 169.722656 30.890625 L 174.855469 30.890625 L 174.855469 25.757812 Z M 169.722656 30.890625 L 169.722656 36.023438 L 174.855469 36.023438 L 174.855469 30.890625 Z M 169.722656 36.023438 L 169.722656 41.152344 L 174.855469 41.152344 L 174.855469 36.023438 Z M 169.722656 41.152344 L 169.722656 46.285156 L 174.855469 46.285156 L 174.855469 41.152344 Z M 169.722656 46.285156 L 169.722656 51.417969 L 174.855469 51.417969 L 174.855469 46.285156 Z M 169.722656 61.683594 L 169.722656 66.816406 L 174.855469 66.816406 L 174.855469 61.683594 Z M 169.722656 66.816406 L 169.722656 71.945312 L 174.855469 71.945312 L 174.855469 66.816406 Z M 169.722656 71.945312 L 169.722656 77.078125 L 174.855469 77.078125 L 174.855469 71.945312 Z M 169.722656 77.078125 L 169.722656 82.214844 L 174.855469 82.214844 L 174.855469 77.078125 Z M 169.722656 82.214844 L 169.722656 87.34375 L 174.855469 87.34375 L 174.855469 82.214844 Z M 169.722656 87.34375 L 169.722656 92.476562 L 174.855469 92.476562 L 174.855469 87.34375 Z M 169.722656 97.605469 L 169.722656 102.742188 L 174.855469 102.742188 L 174.855469 97.605469 Z M 169.722656 102.742188 L 169.722656 107.871094 L 174.855469 107.871094 L 174.855469 102.742188 Z M 169.722656 107.871094 L 169.722656 113.003906 L 174.855469 113.003906 L 174.855469 107.871094 Z M 164.589844 5.226562 L 164.589844 10.359375 L 169.722656 10.359375 L 169.722656 5.226562 Z M 164.589844 10.359375 L 164.589844 15.492188 L 169.722656 15.492188 L 169.722656 10.359375 Z M 164.589844 15.492188 L 164.589844 20.625 L 169.722656 20.625 L 169.722656 15.492188 Z M 164.589844 20.625 L 164.589844 25.757812 L 169.722656 25.757812 L 169.722656 20.625 Z M 164.589844 25.757812 L 164.589844 30.890625 L 169.722656 30.890625 L 169.722656 25.757812 Z M 164.589844 30.890625 L 164.589844 36.023438 L 169.722656 36.023438 L 169.722656 30.890625 Z M 164.589844 36.023438 L 164.589844 41.152344 L 169.722656 41.152344 L 169.722656 36.023438 Z M 164.589844 41.152344 L 164.589844 46.285156 L 169.722656 46.285156 L 169.722656 41.152344 Z M 164.589844 56.550781 L 164.589844 61.683594 L 169.722656 61.683594 L 169.722656 56.550781 Z M 164.589844 61.683594 L 164.589844 66.816406 L 169.722656 66.816406 L 169.722656 61.683594 Z M 164.589844 66.816406 L 164.589844 71.945312 L 169.722656 71.945312 L 169.722656 66.816406 Z M 164.589844 71.945312 L 164.589844 77.078125 L 169.722656 77.078125 L 169.722656 71.945312 Z M 164.589844 77.078125 L 164.589844 82.214844 L 169.722656 82.214844 L 169.722656 77.078125 Z M 164.589844 82.214844 L 164.589844 87.34375 L 169.722656 87.34375 L 169.722656 82.214844 Z M 164.589844 87.34375 L 164.589844 92.476562 L 169.722656 92.476562 L 169.722656 87.34375 Z M 164.589844 102.742188 L 164.589844 107.871094 L 169.722656 107.871094 L 169.722656 102.742188 Z M 159.457031 5.226562 L 159.457031 10.359375 L 164.589844 10.359375 L 164.589844 5.226562 Z M 159.457031 10.359375 L 159.457031 15.492188 L 164.589844 15.492188 L 164.589844 10.359375 Z M 159.457031 15.492188 L 159.457031 20.625 L 164.589844 20.625 L 164.589844 15.492188 Z M 159.457031 20.625 L 159.457031 25.757812 L 164.589844 25.757812 L 164.589844 20.625 Z M 159.457031 25.757812 L 159.457031 30.890625 L 164.589844 30.890625 L 164.589844 25.757812 Z M 159.457031 30.890625 L 159.457031 36.023438 L 164.589844 36.023438 L 164.589844 30.890625 Z M 159.457031 36.023438 L 159.457031 41.152344 L 164.589844 41.152344 L 164.589844 36.023438 Z M 159.457031 41.152344 L 159.457031 46.285156 L 164.589844 46.285156 L 164.589844 41.152344 Z M 159.457031 51.417969 L 159.457031 56.550781 L 164.589844 56.550781 L 164.589844 51.417969 Z M 159.457031 56.550781 L 159.457031 61.683594 L 164.589844 61.683594 L 164.589844 56.550781 Z M 159.457031 61.683594 L 159.457031 66.816406 L 164.589844 66.816406 L 164.589844 61.683594 Z M 159.457031 66.816406 L 159.457031 71.945312 L 164.589844 71.945312 L 164.589844 66.816406 Z M 159.457031 71.945312 L 159.457031 77.078125 L 164.589844 77.078125 L 164.589844 71.945312 Z M 159.457031 77.078125 L 159.457031 82.214844 L 164.589844 82.214844 L 164.589844 77.078125 Z M 159.457031 82.214844 L 159.457031 87.34375 L 164.589844 87.34375 L 164.589844 82.214844 Z M 159.457031 87.34375 L 159.457031 92.476562 L 164.589844 92.476562 L 164.589844 87.34375 Z M 159.457031 92.476562 L 159.457031 97.605469 L 164.589844 97.605469 L 164.589844 92.476562 Z M 154.328125 5.226562 L 154.328125 10.359375 L 159.457031 10.359375 L 159.457031 5.226562 Z M 154.328125 10.359375 L 154.328125 15.492188 L 159.457031 15.492188 L 159.457031 10.359375 Z M 154.328125 15.492188 L 154.328125 20.625 L 159.457031 20.625 L 159.457031 15.492188 Z M 154.328125 20.625 L 154.328125 25.757812 L 159.457031 25.757812 L 159.457031 20.625 Z M 154.328125 25.757812 L 154.328125 30.890625 L 159.457031 30.890625 L 159.457031 25.757812 Z M 154.328125 30.890625 L 154.328125 36.023438 L 159.457031 36.023438 L 159.457031 30.890625 Z M 154.328125 36.023438 L 154.328125 41.152344 L 159.457031 41.152344 L 159.457031 36.023438 Z M 154.328125 41.152344 L 154.328125 46.285156 L 159.457031 46.285156 L 159.457031 41.152344 Z M 154.328125 56.550781 L 154.328125 61.683594 L 159.457031 61.683594 L 159.457031 56.550781 Z M 154.328125 61.683594 L 154.328125 66.816406 L 159.457031 66.816406 L 159.457031 61.683594 Z M 154.328125 66.816406 L 154.328125 71.945312 L 159.457031 71.945312 L 159.457031 66.816406 Z M 154.328125 71.945312 L 154.328125 77.078125 L 159.457031 77.078125 L 159.457031 71.945312 Z M 154.328125 77.078125 L 154.328125 82.214844 L 159.457031 82.214844 L 159.457031 77.078125 Z M 154.328125 82.214844 L 154.328125 87.34375 L 159.457031 87.34375 L 159.457031 82.214844 Z M 154.328125 87.34375 L 154.328125 92.476562 L 159.457031 92.476562 L 159.457031 87.34375 Z M 154.328125 92.476562 L 154.328125 97.605469 L 159.457031 97.605469 L 159.457031 92.476562 Z M 154.328125 97.605469 L 154.328125 102.742188 L 159.457031 102.742188 L 159.457031 97.605469 Z M 149.191406 10.359375 L 149.191406 15.492188 L 154.328125 15.492188 L 154.328125 10.359375 Z M 149.191406 15.492188 L 149.191406 20.625 L 154.328125 20.625 L 154.328125 15.492188 Z M 149.191406 20.625 L 149.191406 25.757812 L 154.328125 25.757812 L 154.328125 20.625 Z M 149.191406 25.757812 L 149.191406 30.890625 L 154.328125 30.890625 L 154.328125 25.757812 Z M 149.191406 30.890625 L 149.191406 36.023438 L 154.328125 36.023438 L 154.328125 30.890625 Z M 149.191406 36.023438 L 149.191406 41.152344 L 154.328125 41.152344 L 154.328125 36.023438 Z M 149.191406 41.152344 L 149.191406 46.285156 L 154.328125 46.285156 L 154.328125 41.152344 Z M 149.191406 56.550781 L 149.191406 61.683594 L 154.328125 61.683594 L 154.328125 56.550781 Z M 149.191406 61.683594 L 149.191406 66.816406 L 154.328125 66.816406 L 154.328125 61.683594 Z M 149.191406 66.816406 L 149.191406 71.945312 L 154.328125 71.945312 L 154.328125 66.816406 Z M 149.191406 71.945312 L 149.191406 77.078125 L 154.328125 77.078125 L 154.328125 71.945312 Z M 149.191406 77.078125 L 149.191406 82.214844 L 154.328125 82.214844 L 154.328125 77.078125 Z M 149.191406 82.214844 L 149.191406 87.34375 L 154.328125 87.34375 L 154.328125 82.214844 Z M 149.191406 87.34375 L 149.191406 92.476562 L 154.328125 92.476562 L 154.328125 87.34375 Z M 149.191406 92.476562 L 149.191406 97.605469 L 154.328125 97.605469 L 154.328125 92.476562 Z M 149.191406 97.605469 L 149.191406 102.742188 L 154.328125 102.742188 L 154.328125 97.605469 Z M 149.191406 102.742188 L 149.191406 107.871094 L 154.328125 107.871094 L 154.328125 102.742188 Z M 149.191406 107.871094 L 149.191406 113.003906 L 154.328125 113.003906 L 154.328125 107.871094 Z M 144.0625 10.359375 L 144.0625 15.492188 L 149.191406 15.492188 L 149.191406 10.359375 Z M 144.0625 15.492188 L 144.0625 20.625 L 149.191406 20.625 L 149.191406 15.492188 Z M 144.0625 20.625 L 144.0625 25.757812 L 149.191406 25.757812 L 149.191406 20.625 Z M 144.0625 25.757812 L 144.0625 30.890625 L 149.191406 30.890625 L 149.191406 25.757812 Z M 144.0625 30.890625 L 144.0625 36.023438 L 149.191406 36.023438 L 149.191406 30.890625 Z M 144.0625 36.023438 L 144.0625 41.152344 L 149.191406 41.152344 L 149.191406 36.023438 Z M 144.0625 41.152344 L 144.0625 46.285156 L 149.191406 46.285156 L 149.191406 41.152344 Z M 144.0625 56.550781 L 144.0625 61.683594 L 149.191406 61.683594 L 149.191406 56.550781 Z M 144.0625 61.683594 L 144.0625 66.816406 L 149.191406 66.816406 L 149.191406 61.683594 Z M 144.0625 66.816406 L 144.0625 71.945312 L 149.191406 71.945312 L 149.191406 66.816406 Z M 144.0625 71.945312 L 144.0625 77.078125 L 149.191406 77.078125 L 149.191406 71.945312 Z M 144.0625 77.078125 L 144.0625 82.214844 L 149.191406 82.214844 L 149.191406 77.078125 Z M 144.0625 82.214844 L 144.0625 87.34375 L 149.191406 87.34375 L 149.191406 82.214844 Z M 144.0625 87.34375 L 144.0625 92.476562 L 149.191406 92.476562 L 149.191406 87.34375 Z M 144.0625 92.476562 L 144.0625 97.605469 L 149.191406 97.605469 L 149.191406 92.476562 Z M 144.0625 97.605469 L 144.0625 102.742188 L 149.191406 102.742188 L 149.191406 97.605469 Z M 144.0625 102.742188 L 144.0625 107.871094 L 149.191406 107.871094 L 149.191406 102.742188 Z M 144.0625 107.871094 L 144.0625 113.003906 L 149.191406 113.003906 L 149.191406 107.871094 Z M 138.929688 15.492188 L 138.929688 20.625 L 144.0625 20.625 L 144.0625 15.492188 Z M 138.929688 20.625 L 138.929688 25.757812 L 144.0625 25.757812 L 144.0625 20.625 Z M 138.929688 25.757812 L 138.929688 30.890625 L 144.0625 30.890625 L 144.0625 25.757812 Z M 138.929688 30.890625 L 138.929688 36.023438 L 144.0625 36.023438 L 144.0625 30.890625 Z M 138.929688 36.023438 L 138.929688 41.152344 L 144.0625 41.152344 L 144.0625 36.023438 Z M 138.929688 41.152344 L 138.929688 46.285156 L 144.0625 46.285156 L 144.0625 41.152344 Z M 138.929688 46.285156 L 138.929688 51.417969 L 144.0625 51.417969 L 144.0625 46.285156 Z M 138.929688 61.683594 L 138.929688 66.816406 L 144.0625 66.816406 L 144.0625 61.683594 Z M 138.929688 66.816406 L 138.929688 71.945312 L 144.0625 71.945312 L 144.0625 66.816406 Z M 138.929688 71.945312 L 138.929688 77.078125 L 144.0625 77.078125 L 144.0625 71.945312 Z M 138.929688 77.078125 L 138.929688 82.214844 L 144.0625 82.214844 L 144.0625 77.078125 Z M 138.929688 82.214844 L 138.929688 87.34375 L 144.0625 87.34375 L 144.0625 82.214844 Z M 138.929688 87.34375 L 138.929688 92.476562 L 144.0625 92.476562 L 144.0625 87.34375 Z M 138.929688 97.605469 L 138.929688 102.742188 L 144.0625 102.742188 L 144.0625 97.605469 Z M 138.929688 102.742188 L 138.929688 107.871094 L 144.0625 107.871094 L 144.0625 102.742188 Z M 138.929688 107.871094 L 138.929688 113.003906 L 144.0625 113.003906 L 144.0625 107.871094 Z M 138.929688 113.003906 L 138.929688 118.140625 L 144.0625 118.140625 L 144.0625 113.003906 Z M 133.796875 15.492188 L 133.796875 20.625 L 138.929688 20.625 L 138.929688 15.492188 Z M 133.796875 20.625 L 133.796875 25.757812 L 138.929688 25.757812 L 138.929688 20.625 Z M 133.796875 25.757812 L 133.796875 30.890625 L 138.929688 30.890625 L 138.929688 25.757812 Z M 133.796875 30.890625 L 133.796875 36.023438 L 138.929688 36.023438 L 138.929688 30.890625 Z M 133.796875 36.023438 L 133.796875 41.152344 L 138.929688 41.152344 L 138.929688 36.023438 Z M 133.796875 41.152344 L 133.796875 46.285156 L 138.929688 46.285156 L 138.929688 41.152344 Z M 133.796875 46.285156 L 133.796875 51.417969 L 138.929688 51.417969 L 138.929688 46.285156 Z M 133.796875 61.683594 L 133.796875 66.816406 L 138.929688 66.816406 L 138.929688 61.683594 Z M 133.796875 66.816406 L 133.796875 71.945312 L 138.929688 71.945312 L 138.929688 66.816406 Z M 133.796875 71.945312 L 133.796875 77.078125 L 138.929688 77.078125 L 138.929688 71.945312 Z M 133.796875 77.078125 L 133.796875 82.214844 L 138.929688 82.214844 L 138.929688 77.078125 Z M 133.796875 82.214844 L 133.796875 87.34375 L 138.929688 87.34375 L 138.929688 82.214844 Z M 133.796875 92.476562 L 133.796875 97.605469 L 138.929688 97.605469 L 138.929688 92.476562 Z M 133.796875 97.605469 L 133.796875 102.742188 L 138.929688 102.742188 L 138.929688 97.605469 Z M 133.796875 102.742188 L 133.796875 107.871094 L 138.929688 107.871094 L 138.929688 102.742188 Z M 133.796875 107.871094 L 133.796875 113.003906 L 138.929688 113.003906 L 138.929688 107.871094 Z M 133.796875 113.003906 L 133.796875 118.140625 L 138.929688 118.140625 L 138.929688 113.003906 Z M 128.664062 15.492188 L 128.664062 20.625 L 133.796875 20.625 L 133.796875 15.492188 Z M 128.664062 20.625 L 128.664062 25.757812 L 133.796875 25.757812 L 133.796875 20.625 Z M 128.664062 25.757812 L 128.664062 30.890625 L 133.796875 30.890625 L 133.796875 25.757812 Z M 128.664062 30.890625 L 128.664062 36.023438 L 133.796875 36.023438 L 133.796875 30.890625 Z M 128.664062 36.023438 L 128.664062 41.152344 L 133.796875 41.152344 L 133.796875 36.023438 Z M 128.664062 41.152344 L 128.664062 46.285156 L 133.796875 46.285156 L 133.796875 41.152344 Z M 128.664062 46.285156 L 128.664062 51.417969 L 133.796875 51.417969 L 133.796875 46.285156 Z M 128.664062 51.417969 L 128.664062 56.550781 L 133.796875 56.550781 L 133.796875 51.417969 Z M 128.664062 71.945312 L 128.664062 77.078125 L 133.796875 77.078125 L 133.796875 71.945312 Z M 128.664062 77.078125 L 128.664062 82.214844 L 133.796875 82.214844 L 133.796875 77.078125 Z M 128.664062 87.34375 L 128.664062 92.476562 L 133.796875 92.476562 L 133.796875 87.34375 Z M 128.664062 92.476562 L 128.664062 97.605469 L 133.796875 97.605469 L 133.796875 92.476562 Z M 128.664062 97.605469 L 128.664062 102.742188 L 133.796875 102.742188 L 133.796875 97.605469 Z M 128.664062 102.742188 L 128.664062 107.871094 L 133.796875 107.871094 L 133.796875 102.742188 Z M 128.664062 107.871094 L 128.664062 113.003906 L 133.796875 113.003906 L 133.796875 107.871094 Z M 128.664062 113.003906 L 128.664062 118.140625 L 133.796875 118.140625 L 133.796875 113.003906 Z M 123.53125 20.625 L 123.53125 25.757812 L 128.664062 25.757812 L 128.664062 20.625 Z M 123.53125 25.757812 L 123.53125 30.890625 L 128.664062 30.890625 L 128.664062 25.757812 Z M 123.53125 30.890625 L 123.53125 36.023438 L 128.664062 36.023438 L 128.664062 30.890625 Z M 123.53125 36.023438 L 123.53125 41.152344 L 128.664062 41.152344 L 128.664062 36.023438 Z M 123.53125 41.152344 L 123.53125 46.285156 L 128.664062 46.285156 L 128.664062 41.152344 Z M 123.53125 46.285156 L 123.53125 51.417969 L 128.664062 51.417969 L 128.664062 46.285156 Z M 123.53125 51.417969 L 123.53125 56.550781 L 128.664062 56.550781 L 128.664062 51.417969 Z M 123.53125 87.34375 L 123.53125 92.476562 L 128.664062 92.476562 L 128.664062 87.34375 Z M 123.53125 92.476562 L 123.53125 97.605469 L 128.664062 97.605469 L 128.664062 92.476562 Z M 123.53125 97.605469 L 123.53125 102.742188 L 128.664062 102.742188 L 128.664062 97.605469 Z M 123.53125 102.742188 L 123.53125 107.871094 L 128.664062 107.871094 L 128.664062 102.742188 Z M 123.53125 107.871094 L 123.53125 113.003906 L 128.664062 113.003906 L 128.664062 107.871094 Z M 123.53125 113.003906 L 123.53125 118.140625 L 128.664062 118.140625 L 128.664062 113.003906 Z M 118.402344 25.757812 L 118.402344 30.890625 L 123.53125 30.890625 L 123.53125 25.757812 Z M 118.402344 30.890625 L 118.402344 36.023438 L 123.53125 36.023438 L 123.53125 30.890625 Z M 118.402344 36.023438 L 118.402344 41.152344 L 123.53125 41.152344 L 123.53125 36.023438 Z M 118.402344 41.152344 L 118.402344 46.285156 L 123.53125 46.285156 L 123.53125 41.152344 Z M 118.402344 46.285156 L 118.402344 51.417969 L 123.53125 51.417969 L 123.53125 46.285156 Z M 118.402344 51.417969 L 118.402344 56.550781 L 123.53125 56.550781 L 123.53125 51.417969 Z M 118.402344 56.550781 L 118.402344 61.683594 L 123.53125 61.683594 L 123.53125 56.550781 Z M 118.402344 61.683594 L 118.402344 66.816406 L 123.53125 66.816406 L 123.53125 61.683594 Z M 118.402344 87.34375 L 118.402344 92.476562 L 123.53125 92.476562 L 123.53125 87.34375 Z M 118.402344 92.476562 L 118.402344 97.605469 L 123.53125 97.605469 L 123.53125 92.476562 Z M 118.402344 97.605469 L 118.402344 102.742188 L 123.53125 102.742188 L 123.53125 97.605469 Z M 118.402344 102.742188 L 118.402344 107.871094 L 123.53125 107.871094 L 123.53125 102.742188 Z M 118.402344 107.871094 L 118.402344 113.003906 L 123.53125 113.003906 L 123.53125 107.871094 Z M 118.402344 113.003906 L 118.402344 118.140625 L 123.53125 118.140625 L 123.53125 113.003906 Z M 113.269531 30.890625 L 113.269531 36.023438 L 118.402344 36.023438 L 118.402344 30.890625 Z M 113.269531 36.023438 L 113.269531 41.152344 L 118.402344 41.152344 L 118.402344 36.023438 Z M 113.269531 51.417969 L 113.269531 56.550781 L 118.402344 56.550781 L 118.402344 51.417969 Z M 113.269531 56.550781 L 113.269531 61.683594 L 118.402344 61.683594 L 118.402344 56.550781 Z M 113.269531 61.683594 L 113.269531 66.816406 L 118.402344 66.816406 L 118.402344 61.683594 Z M 113.269531 66.816406 L 113.269531 71.945312 L 118.402344 71.945312 L 118.402344 66.816406 Z M 113.269531 71.945312 L 113.269531 77.078125 L 118.402344 77.078125 L 118.402344 71.945312 Z M 113.269531 87.34375 L 113.269531 92.476562 L 118.402344 92.476562 L 118.402344 87.34375 Z M 113.269531 92.476562 L 113.269531 97.605469 L 118.402344 97.605469 L 118.402344 92.476562 Z M 113.269531 97.605469 L 113.269531 102.742188 L 118.402344 102.742188 L 118.402344 97.605469 Z M 113.269531 102.742188 L 113.269531 107.871094 L 118.402344 107.871094 L 118.402344 102.742188 Z M 113.269531 107.871094 L 113.269531 113.003906 L 118.402344 113.003906 L 118.402344 107.871094 Z M 113.269531 113.003906 L 113.269531 118.140625 L 118.402344 118.140625 L 118.402344 113.003906 Z M 108.136719 41.152344 L 108.136719 46.285156 L 113.269531 46.285156 L 113.269531 41.152344 Z M 108.136719 46.285156 L 108.136719 51.417969 L 113.269531 51.417969 L 113.269531 46.285156 Z M 108.136719 51.417969 L 108.136719 56.550781 L 113.269531 56.550781 L 113.269531 51.417969 Z M 108.136719 56.550781 L 108.136719 61.683594 L 113.269531 61.683594 L 113.269531 56.550781 Z M 108.136719 61.683594 L 108.136719 66.816406 L 113.269531 66.816406 L 113.269531 61.683594 Z M 108.136719 66.816406 L 108.136719 71.945312 L 113.269531 71.945312 L 113.269531 66.816406 Z M 108.136719 71.945312 L 108.136719 77.078125 L 113.269531 77.078125 L 113.269531 71.945312 Z M 108.136719 87.34375 L 108.136719 92.476562 L 113.269531 92.476562 L 113.269531 87.34375 Z M 108.136719 92.476562 L 108.136719 97.605469 L 113.269531 97.605469 L 113.269531 92.476562 Z M 108.136719 97.605469 L 108.136719 102.742188 L 113.269531 102.742188 L 113.269531 97.605469 Z M 108.136719 102.742188 L 108.136719 107.871094 L 113.269531 107.871094 L 113.269531 102.742188 Z M 108.136719 107.871094 L 108.136719 113.003906 L 113.269531 113.003906 L 113.269531 107.871094 Z M 108.136719 113.003906 L 108.136719 118.140625 L 113.269531 118.140625 L 113.269531 113.003906 Z M 103.003906 41.152344 L 103.003906 46.285156 L 108.136719 46.285156 L 108.136719 41.152344 Z M 103.003906 46.285156 L 103.003906 51.417969 L 108.136719 51.417969 L 108.136719 46.285156 Z M 103.003906 51.417969 L 103.003906 56.550781 L 108.136719 56.550781 L 108.136719 51.417969 Z M 103.003906 56.550781 L 103.003906 61.683594 L 108.136719 61.683594 L 108.136719 56.550781 Z M 103.003906 61.683594 L 103.003906 66.816406 L 108.136719 66.816406 L 108.136719 61.683594 Z M 103.003906 66.816406 L 103.003906 71.945312 L 108.136719 71.945312 L 108.136719 66.816406 Z M 103.003906 71.945312 L 103.003906 77.078125 L 108.136719 77.078125 L 108.136719 71.945312 Z M 103.003906 92.476562 L 103.003906 97.605469 L 108.136719 97.605469 L 108.136719 92.476562 Z M 103.003906 97.605469 L 103.003906 102.742188 L 108.136719 102.742188 L 108.136719 97.605469 Z M 103.003906 102.742188 L 103.003906 107.871094 L 108.136719 107.871094 L 108.136719 102.742188 Z M 103.003906 107.871094 L 103.003906 113.003906 L 108.136719 113.003906 L 108.136719 107.871094 Z M 103.003906 113.003906 L 103.003906 118.140625 L 108.136719 118.140625 L 108.136719 113.003906 Z M 97.871094 41.152344 L 97.871094 46.285156 L 103.003906 46.285156 L 103.003906 41.152344 Z M 97.871094 46.285156 L 97.871094 51.417969 L 103.003906 51.417969 L 103.003906 46.285156 Z M 97.871094 51.417969 L 97.871094 56.550781 L 103.003906 56.550781 L 103.003906 51.417969 Z M 97.871094 56.550781 L 97.871094 61.683594 L 103.003906 61.683594 L 103.003906 56.550781 Z M 97.871094 61.683594 L 97.871094 66.816406 L 103.003906 66.816406 L 103.003906 61.683594 Z M 97.871094 66.816406 L 97.871094 71.945312 L 103.003906 71.945312 L 103.003906 66.816406 Z M 97.871094 71.945312 L 97.871094 77.078125 L 103.003906 77.078125 L 103.003906 71.945312 Z M 97.871094 77.078125 L 97.871094 82.214844 L 103.003906 82.214844 L 103.003906 77.078125 Z M 97.871094 92.476562 L 97.871094 97.605469 L 103.003906 97.605469 L 103.003906 92.476562 Z M 97.871094 97.605469 L 97.871094 102.742188 L 103.003906 102.742188 L 103.003906 97.605469 Z M 97.871094 102.742188 L 97.871094 107.871094 L 103.003906 107.871094 L 103.003906 102.742188 Z M 97.871094 107.871094 L 97.871094 113.003906 L 103.003906 113.003906 L 103.003906 107.871094 Z M 92.738281 41.152344 L 92.738281 46.285156 L 97.871094 46.285156 L 97.871094 41.152344 Z M 92.738281 46.285156 L 92.738281 51.417969 L 97.871094 51.417969 L 97.871094 46.285156 Z M 92.738281 51.417969 L 92.738281 56.550781 L 97.871094 56.550781 L 97.871094 51.417969 Z M 92.738281 56.550781 L 92.738281 61.683594 L 97.871094 61.683594 L 97.871094 56.550781 Z M 92.738281 61.683594 L 92.738281 66.816406 L 97.871094 66.816406 L 97.871094 61.683594 Z M 92.738281 66.816406 L 92.738281 71.945312 L 97.871094 71.945312 L 97.871094 66.816406 Z M 92.738281 71.945312 L 92.738281 77.078125 L 97.871094 77.078125 L 97.871094 71.945312 Z M 92.738281 77.078125 L 92.738281 82.214844 L 97.871094 82.214844 L 97.871094 77.078125 Z M 92.738281 82.214844 L 92.738281 87.34375 L 97.871094 87.34375 L 97.871094 82.214844 Z M 92.738281 97.605469 L 92.738281 102.742188 L 97.871094 102.742188 L 97.871094 97.605469 Z M 92.738281 102.742188 L 92.738281 107.871094 L 97.871094 107.871094 L 97.871094 102.742188 Z M 92.738281 107.871094 L 92.738281 113.003906 L 97.871094 113.003906 L 97.871094 107.871094 Z M 87.605469 41.152344 L 87.605469 46.285156 L 92.738281 46.285156 L 92.738281 41.152344 Z M 87.605469 46.285156 L 87.605469 51.417969 L 92.738281 51.417969 L 92.738281 46.285156 Z M 87.605469 51.417969 L 87.605469 56.550781 L 92.738281 56.550781 L 92.738281 51.417969 Z M 87.605469 56.550781 L 87.605469 61.683594 L 92.738281 61.683594 L 92.738281 56.550781 Z M 87.605469 61.683594 L 87.605469 66.816406 L 92.738281 66.816406 L 92.738281 61.683594 Z M 87.605469 66.816406 L 87.605469 71.945312 L 92.738281 71.945312 L 92.738281 66.816406 Z M 87.605469 71.945312 L 87.605469 77.078125 L 92.738281 77.078125 L 92.738281 71.945312 Z M 87.605469 77.078125 L 87.605469 82.214844 L 92.738281 82.214844 L 92.738281 77.078125 Z M 87.605469 82.214844 L 87.605469 87.34375 L 92.738281 87.34375 L 92.738281 82.214844 Z M 87.605469 102.742188 L 87.605469 107.871094 L 92.738281 107.871094 L 92.738281 102.742188 Z M 82.476562 46.285156 L 82.476562 51.417969 L 87.605469 51.417969 L 87.605469 46.285156 Z M 82.476562 51.417969 L 82.476562 56.550781 L 87.605469 56.550781 L 87.605469 51.417969 Z M 82.476562 56.550781 L 82.476562 61.683594 L 87.605469 61.683594 L 87.605469 56.550781 Z M 82.476562 61.683594 L 82.476562 66.816406 L 87.605469 66.816406 L 87.605469 61.683594 Z M 82.476562 66.816406 L 82.476562 71.945312 L 87.605469 71.945312 L 87.605469 66.816406 Z M 82.476562 71.945312 L 82.476562 77.078125 L 87.605469 77.078125 L 87.605469 71.945312 Z M 82.476562 77.078125 L 82.476562 82.214844 L 87.605469 82.214844 L 87.605469 77.078125 Z M 82.476562 82.214844 L 82.476562 87.34375 L 87.605469 87.34375 L 87.605469 82.214844 Z M 82.476562 87.34375 L 82.476562 92.476562 L 87.605469 92.476562 L 87.605469 87.34375 Z M 77.34375 51.417969 L 77.34375 56.550781 L 82.476562 56.550781 L 82.476562 51.417969 Z M 77.34375 56.550781 L 77.34375 61.683594 L 82.476562 61.683594 L 82.476562 56.550781 Z M 77.34375 61.683594 L 77.34375 66.816406 L 82.476562 66.816406 L 82.476562 61.683594 Z M 77.34375 66.816406 L 77.34375 71.945312 L 82.476562 71.945312 L 82.476562 66.816406 Z M 77.34375 71.945312 L 77.34375 77.078125 L 82.476562 77.078125 L 82.476562 71.945312 Z M 77.34375 77.078125 L 77.34375 82.214844 L 82.476562 82.214844 L 82.476562 77.078125 Z M 77.34375 82.214844 L 77.34375 87.34375 L 82.476562 87.34375 L 82.476562 82.214844 Z M 77.34375 87.34375 L 77.34375 92.476562 L 82.476562 92.476562 L 82.476562 87.34375 Z M 72.210938 61.683594 L 72.210938 66.816406 L 77.34375 66.816406 L 77.34375 61.683594 Z M 72.210938 66.816406 L 72.210938 71.945312 L 77.34375 71.945312 L 77.34375 66.816406 Z M 72.210938 71.945312 L 72.210938 77.078125 L 77.34375 77.078125 L 77.34375 71.945312 Z M 72.210938 77.078125 L 72.210938 82.214844 L 77.34375 82.214844 L 77.34375 77.078125 Z M 72.210938 82.214844 L 72.210938 87.34375 L 77.34375 87.34375 L 77.34375 82.214844 Z M 72.210938 87.34375 L 72.210938 92.476562 L 77.34375 92.476562 L 77.34375 87.34375 Z M 67.078125 66.816406 L 67.078125 71.945312 L 72.210938 71.945312 L 72.210938 66.816406 Z M 67.078125 71.945312 L 67.078125 77.078125 L 72.210938 77.078125 L 72.210938 71.945312 Z M 67.078125 77.078125 L 67.078125 82.214844 L 72.210938 82.214844 L 72.210938 77.078125 Z M 67.078125 82.214844 L 67.078125 87.34375 L 72.210938 87.34375 L 72.210938 82.214844 Z M 67.078125 87.34375 L 67.078125 92.476562 L 72.210938 92.476562 L 72.210938 87.34375 Z M 61.945312 77.078125 L 61.945312 82.214844 L 67.078125 82.214844 L 67.078125 77.078125 Z M 56.8125 97.605469 L 56.8125 102.742188 L 61.945312 102.742188 L 61.945312 97.605469 Z M 56.8125 102.742188 L 56.8125 107.871094 L 61.945312 107.871094 L 61.945312 102.742188 Z M 56.8125 107.871094 L 56.8125 113.003906 L 61.945312 113.003906 L 61.945312 107.871094 Z M 51.679688 66.816406 L 51.679688 71.945312 L 56.8125 71.945312 L 56.8125 66.816406 Z M 51.679688 87.34375 L 51.679688 92.476562 L 56.8125 92.476562 L 56.8125 87.34375 Z M 51.679688 92.476562 L 51.679688 97.605469 L 56.8125 97.605469 L 56.8125 92.476562 Z M 51.679688 97.605469 L 51.679688 102.742188 L 56.8125 102.742188 L 56.8125 97.605469 Z M 51.679688 102.742188 L 51.679688 107.871094 L 56.8125 107.871094 L 56.8125 102.742188 Z M 51.679688 107.871094 L 51.679688 113.003906 L 56.8125 113.003906 L 56.8125 107.871094 Z M 51.679688 113.003906 L 51.679688 118.140625 L 56.8125 118.140625 L 56.8125 113.003906 Z M 46.546875 66.816406 L 46.546875 71.945312 L 51.679688 71.945312 L 51.679688 66.816406 Z M 46.546875 71.945312 L 46.546875 77.078125 L 51.679688 77.078125 L 51.679688 71.945312 Z M 46.546875 77.078125 L 46.546875 82.214844 L 51.679688 82.214844 L 51.679688 77.078125 Z M 46.546875 82.214844 L 46.546875 87.34375 L 51.679688 87.34375 L 51.679688 82.214844 Z M 46.546875 87.34375 L 46.546875 92.476562 L 51.679688 92.476562 L 51.679688 87.34375 Z M 46.546875 92.476562 L 46.546875 97.605469 L 51.679688 97.605469 L 51.679688 92.476562 Z M 46.546875 97.605469 L 46.546875 102.742188 L 51.679688 102.742188 L 51.679688 97.605469 Z M 46.546875 102.742188 L 46.546875 107.871094 L 51.679688 107.871094 L 51.679688 102.742188 Z M 46.546875 107.871094 L 46.546875 113.003906 L 51.679688 113.003906 L 51.679688 107.871094 Z M 46.546875 113.003906 L 46.546875 118.140625 L 51.679688 118.140625 L 51.679688 113.003906 Z M 41.417969 71.945312 L 41.417969 77.078125 L 46.546875 77.078125 L 46.546875 71.945312 Z M 41.417969 77.078125 L 41.417969 82.214844 L 46.546875 82.214844 L 46.546875 77.078125 Z M 41.417969 82.214844 L 41.417969 87.34375 L 46.546875 87.34375 L 46.546875 82.214844 Z M 41.417969 87.34375 L 41.417969 92.476562 L 46.546875 92.476562 L 46.546875 87.34375 Z M 41.417969 92.476562 L 41.417969 97.605469 L 46.546875 97.605469 L 46.546875 92.476562 Z M 41.417969 97.605469 L 41.417969 102.742188 L 46.546875 102.742188 L 46.546875 97.605469 Z M 41.417969 102.742188 L 41.417969 107.871094 L 46.546875 107.871094 L 46.546875 102.742188 Z M 41.417969 107.871094 L 41.417969 113.003906 L 46.546875 113.003906 L 46.546875 107.871094 Z M 41.417969 113.003906 L 41.417969 118.140625 L 46.546875 118.140625 L 46.546875 113.003906 Z M 36.285156 71.945312 L 36.285156 77.078125 L 41.417969 77.078125 L 41.417969 71.945312 Z M 36.285156 77.078125 L 36.285156 82.214844 L 41.417969 82.214844 L 41.417969 77.078125 Z M 36.285156 82.214844 L 36.285156 87.34375 L 41.417969 87.34375 L 41.417969 82.214844 Z M 36.285156 87.34375 L 36.285156 92.476562 L 41.417969 92.476562 L 41.417969 87.34375 Z M 36.285156 92.476562 L 36.285156 97.605469 L 41.417969 97.605469 L 41.417969 92.476562 Z M 36.285156 97.605469 L 36.285156 102.742188 L 41.417969 102.742188 L 41.417969 97.605469 Z M 36.285156 102.742188 L 36.285156 107.871094 L 41.417969 107.871094 L 41.417969 102.742188 Z M 36.285156 107.871094 L 36.285156 113.003906 L 41.417969 113.003906 L 41.417969 107.871094 Z M 36.285156 113.003906 L 36.285156 118.140625 L 41.417969 118.140625 L 41.417969 113.003906 Z M 31.152344 77.078125 L 31.152344 82.214844 L 36.285156 82.214844 L 36.285156 77.078125 Z M 31.152344 82.214844 L 31.152344 87.34375 L 36.285156 87.34375 L 36.285156 82.214844 Z M 31.152344 87.34375 L 31.152344 92.476562 L 36.285156 92.476562 L 36.285156 87.34375 Z M 36.285156 107.871094 L 36.285156 113.003906 L 31.152344 113.003906 L 31.152344 107.871094 L 36.285156 107.871094 " fill-opacity="1" fill-rule="nonzero"/><g clip-path="url(#60d6905c40)"><path fill="#6a3b79" d="M 246.707031 102.742188 L 246.707031 107.871094 L 251.839844 107.871094 L 251.839844 102.742188 Z M 246.707031 107.871094 L 246.707031 113.003906 L 251.839844 113.003906 L 251.839844 107.871094 Z M 246.707031 113.003906 L 246.707031 118.140625 L 251.839844 118.140625 L 251.839844 113.003906 Z M 241.574219 97.605469 L 241.574219 102.742188 L 246.707031 102.742188 L 246.707031 97.605469 Z M 241.574219 102.742188 L 241.574219 107.871094 L 246.707031 107.871094 L 246.707031 102.742188 Z M 241.574219 107.871094 L 241.574219 113.003906 L 246.707031 113.003906 L 246.707031 107.871094 Z M 241.574219 113.003906 L 241.574219 118.140625 L 246.707031 118.140625 L 246.707031 113.003906 Z M 241.574219 118.140625 L 241.574219 123.269531 L 246.707031 123.269531 L 246.707031 118.140625 Z M 236.441406 87.34375 L 236.441406 92.476562 L 241.574219 92.476562 L 241.574219 87.34375 Z M 236.441406 92.476562 L 236.441406 97.605469 L 241.574219 97.605469 L 241.574219 92.476562 Z M 236.441406 97.605469 L 236.441406 102.742188 L 241.574219 102.742188 L 241.574219 97.605469 Z M 236.441406 102.742188 L 236.441406 107.871094 L 241.574219 107.871094 L 241.574219 102.742188 Z M 236.441406 107.871094 L 236.441406 113.003906 L 241.574219 113.003906 L 241.574219 107.871094 Z M 236.441406 113.003906 L 236.441406 118.140625 L 241.574219 118.140625 L 241.574219 113.003906 Z M 236.441406 118.140625 L 236.441406 123.269531 L 241.574219 123.269531 L 241.574219 118.140625 Z M 236.441406 123.269531 L 236.441406 128.402344 L 241.574219 128.402344 L 241.574219 123.269531 Z M 231.308594 87.34375 L 231.308594 92.476562 L 236.441406 92.476562 L 236.441406 87.34375 Z M 231.308594 92.476562 L 231.308594 97.605469 L 236.441406 97.605469 L 236.441406 92.476562 Z M 231.308594 97.605469 L 231.308594 102.742188 L 236.441406 102.742188 L 236.441406 97.605469 Z M 231.308594 102.742188 L 231.308594 107.871094 L 236.441406 107.871094 L 236.441406 102.742188 Z M 231.308594 107.871094 L 231.308594 113.003906 L 236.441406 113.003906 L 236.441406 107.871094 Z M 231.308594 113.003906 L 231.308594 118.140625 L 236.441406 118.140625 L 236.441406 113.003906 Z M 231.308594 118.140625 L 231.308594 123.269531 L 236.441406 123.269531 L 236.441406 118.140625 Z M 231.308594 123.269531 L 231.308594 128.402344 L 236.441406 128.402344 L 236.441406 123.269531 Z M 226.179688 77.078125 L 226.179688 82.214844 L 231.308594 82.214844 L 231.308594 77.078125 Z M 226.179688 82.214844 L 226.179688 87.34375 L 231.308594 87.34375 L 231.308594 82.214844 Z M 226.179688 87.34375 L 226.179688 92.476562 L 231.308594 92.476562 L 231.308594 87.34375 Z M 226.179688 107.871094 L 226.179688 113.003906 L 231.308594 113.003906 L 231.308594 107.871094 Z M 226.179688 113.003906 L 226.179688 118.140625 L 231.308594 118.140625 L 231.308594 113.003906 Z M 226.179688 118.140625 L 226.179688 123.269531 L 231.308594 123.269531 L 231.308594 118.140625 Z M 226.179688 123.269531 L 226.179688 128.402344 L 231.308594 128.402344 L 231.308594 123.269531 Z M 221.046875 77.078125 L 221.046875 82.214844 L 226.179688 82.214844 L 226.179688 77.078125 Z M 221.046875 82.214844 L 221.046875 87.34375 L 226.179688 87.34375 L 226.179688 82.214844 Z M 221.046875 102.742188 L 221.046875 107.871094 L 226.179688 107.871094 L 226.179688 102.742188 Z M 221.046875 107.871094 L 221.046875 113.003906 L 226.179688 113.003906 L 226.179688 107.871094 Z M 221.046875 113.003906 L 221.046875 118.140625 L 226.179688 118.140625 L 226.179688 113.003906 Z M 221.046875 118.140625 L 221.046875 123.269531 L 226.179688 123.269531 L 226.179688 118.140625 Z M 221.046875 123.269531 L 221.046875 128.402344 L 226.179688 128.402344 L 226.179688 123.269531 Z M 215.914062 71.945312 L 215.914062 77.078125 L 221.046875 77.078125 L 221.046875 71.945312 Z M 215.914062 77.078125 L 215.914062 82.214844 L 221.046875 82.214844 L 221.046875 77.078125 Z M 215.914062 102.742188 L 215.914062 107.871094 L 221.046875 107.871094 L 221.046875 102.742188 Z M 215.914062 107.871094 L 215.914062 113.003906 L 221.046875 113.003906 L 221.046875 107.871094 Z M 215.914062 113.003906 L 215.914062 118.140625 L 221.046875 118.140625 L 221.046875 113.003906 Z M 215.914062 118.140625 L 215.914062 123.269531 L 221.046875 123.269531 L 221.046875 118.140625 Z M 215.914062 123.269531 L 215.914062 128.402344 L 221.046875 128.402344 L 221.046875 123.269531 Z M 210.78125 71.945312 L 210.78125 77.078125 L 215.914062 77.078125 L 215.914062 71.945312 Z M 210.78125 77.078125 L 210.78125 82.214844 L 215.914062 82.214844 L 215.914062 77.078125 Z M 210.78125 107.871094 L 210.78125 113.003906 L 215.914062 113.003906 L 215.914062 107.871094 Z M 210.78125 113.003906 L 210.78125 118.140625 L 215.914062 118.140625 L 215.914062 113.003906 Z M 210.78125 118.140625 L 210.78125 123.269531 L 215.914062 123.269531 L 215.914062 118.140625 Z M 210.78125 123.269531 L 210.78125 128.402344 L 215.914062 128.402344 L 215.914062 123.269531 Z M 205.648438 30.890625 L 205.648438 36.023438 L 210.78125 36.023438 L 210.78125 30.890625 Z M 205.648438 36.023438 L 205.648438 41.152344 L 210.78125 41.152344 L 210.78125 36.023438 Z M 205.648438 71.945312 L 205.648438 77.078125 L 210.78125 77.078125 L 210.78125 71.945312 Z M 205.648438 77.078125 L 205.648438 82.214844 L 210.78125 82.214844 L 210.78125 77.078125 Z M 205.648438 113.003906 L 205.648438 118.140625 L 210.78125 118.140625 L 210.78125 113.003906 Z M 205.648438 118.140625 L 205.648438 123.269531 L 210.78125 123.269531 L 210.78125 118.140625 Z M 205.648438 123.269531 L 205.648438 128.402344 L 210.78125 128.402344 L 210.78125 123.269531 Z M 200.515625 41.152344 L 200.515625 46.285156 L 205.648438 46.285156 L 205.648438 41.152344 Z M 200.515625 71.945312 L 200.515625 77.078125 L 205.648438 77.078125 L 205.648438 71.945312 Z M 200.515625 77.078125 L 200.515625 82.214844 L 205.648438 82.214844 L 205.648438 77.078125 Z M 200.515625 118.140625 L 200.515625 123.269531 L 205.648438 123.269531 L 205.648438 118.140625 Z M 200.515625 123.269531 L 200.515625 128.402344 L 205.648438 128.402344 L 205.648438 123.269531 Z M 195.386719 46.285156 L 195.386719 51.417969 L 200.515625 51.417969 L 200.515625 46.285156 Z M 195.386719 51.417969 L 195.386719 56.550781 L 200.515625 56.550781 L 200.515625 51.417969 Z M 195.386719 77.078125 L 195.386719 82.214844 L 200.515625 82.214844 L 200.515625 77.078125 Z M 195.386719 82.214844 L 195.386719 87.34375 L 200.515625 87.34375 L 200.515625 82.214844 Z M 195.386719 118.140625 L 195.386719 123.269531 L 200.515625 123.269531 L 200.515625 118.140625 Z M 195.386719 123.269531 L 195.386719 128.402344 L 200.515625 128.402344 L 200.515625 123.269531 Z M 190.253906 77.078125 L 190.253906 82.214844 L 195.386719 82.214844 L 195.386719 77.078125 Z M 190.253906 82.214844 L 190.253906 87.34375 L 195.386719 87.34375 L 195.386719 82.214844 Z M 190.253906 118.140625 L 190.253906 123.269531 L 195.386719 123.269531 L 195.386719 118.140625 Z M 190.253906 123.269531 L 190.253906 128.402344 L 195.386719 128.402344 L 195.386719 123.269531 Z M 185.117188 82.214844 L 185.117188 87.34375 L 190.253906 87.34375 L 190.253906 82.214844 Z M 185.117188 118.140625 L 185.117188 123.269531 L 190.253906 123.269531 L 190.253906 118.140625 Z M 185.117188 123.269531 L 185.117188 128.402344 L 190.253906 128.402344 L 190.253906 123.269531 Z M 179.988281 82.214844 L 179.988281 87.34375 L 185.117188 87.34375 L 185.117188 82.214844 Z M 179.988281 118.140625 L 179.988281 123.269531 L 185.117188 123.269531 L 185.117188 118.140625 Z M 179.988281 123.269531 L 179.988281 128.402344 L 185.117188 128.402344 L 185.117188 123.269531 Z M 174.855469 113.003906 L 174.855469 118.140625 L 179.988281 118.140625 L 179.988281 113.003906 Z M 174.855469 118.140625 L 174.855469 123.269531 L 179.988281 123.269531 L 179.988281 118.140625 Z M 174.855469 123.269531 L 174.855469 128.402344 L 179.988281 128.402344 L 179.988281 123.269531 Z M 169.722656 51.417969 L 169.722656 56.550781 L 174.855469 56.550781 L 174.855469 51.417969 Z M 169.722656 56.550781 L 169.722656 61.683594 L 174.855469 61.683594 L 174.855469 56.550781 Z M 169.722656 92.476562 L 169.722656 97.605469 L 174.855469 97.605469 L 174.855469 92.476562 Z M 169.722656 113.003906 L 169.722656 118.140625 L 174.855469 118.140625 L 174.855469 113.003906 Z M 169.722656 118.140625 L 169.722656 123.269531 L 174.855469 123.269531 L 174.855469 118.140625 Z M 169.722656 123.269531 L 169.722656 128.402344 L 174.855469 128.402344 L 174.855469 123.269531 Z M 164.589844 0.0976562 L 164.589844 5.226562 L 169.722656 5.226562 L 169.722656 0.0976562 Z M 164.589844 46.285156 L 164.589844 51.417969 L 169.722656 51.417969 L 169.722656 46.285156 Z M 164.589844 51.417969 L 164.589844 56.550781 L 169.722656 56.550781 L 169.722656 51.417969 Z M 164.589844 92.476562 L 164.589844 97.605469 L 169.722656 97.605469 L 169.722656 92.476562 Z M 164.589844 97.605469 L 164.589844 102.742188 L 169.722656 102.742188 L 169.722656 97.605469 Z M 164.589844 107.871094 L 164.589844 113.003906 L 169.722656 113.003906 L 169.722656 107.871094 Z M 164.589844 113.003906 L 164.589844 118.140625 L 169.722656 118.140625 L 169.722656 113.003906 Z M 164.589844 118.140625 L 164.589844 123.269531 L 169.722656 123.269531 L 169.722656 118.140625 Z M 164.589844 123.269531 L 164.589844 128.402344 L 169.722656 128.402344 L 169.722656 123.269531 Z M 159.457031 0.0976562 L 159.457031 5.226562 L 164.589844 5.226562 L 164.589844 0.0976562 Z M 159.457031 46.285156 L 159.457031 51.417969 L 164.589844 51.417969 L 164.589844 46.285156 Z M 159.457031 97.605469 L 159.457031 102.742188 L 164.589844 102.742188 L 164.589844 97.605469 Z M 159.457031 102.742188 L 159.457031 107.871094 L 164.589844 107.871094 L 164.589844 102.742188 Z M 159.457031 107.871094 L 159.457031 113.003906 L 164.589844 113.003906 L 164.589844 107.871094 Z M 159.457031 113.003906 L 159.457031 118.140625 L 164.589844 118.140625 L 164.589844 113.003906 Z M 159.457031 118.140625 L 159.457031 123.269531 L 164.589844 123.269531 L 164.589844 118.140625 Z M 159.457031 123.269531 L 159.457031 128.402344 L 164.589844 128.402344 L 164.589844 123.269531 Z M 154.328125 0.0976562 L 154.328125 5.226562 L 159.457031 5.226562 L 159.457031 0.0976562 Z M 154.328125 46.285156 L 154.328125 51.417969 L 159.457031 51.417969 L 159.457031 46.285156 Z M 154.328125 51.417969 L 154.328125 56.550781 L 159.457031 56.550781 L 159.457031 51.417969 Z M 154.328125 102.742188 L 154.328125 107.871094 L 159.457031 107.871094 L 159.457031 102.742188 Z M 154.328125 107.871094 L 154.328125 113.003906 L 159.457031 113.003906 L 159.457031 107.871094 Z M 154.328125 113.003906 L 154.328125 118.140625 L 159.457031 118.140625 L 159.457031 113.003906 Z M 154.328125 118.140625 L 154.328125 123.269531 L 159.457031 123.269531 L 159.457031 118.140625 Z M 154.328125 123.269531 L 154.328125 128.402344 L 159.457031 128.402344 L 159.457031 123.269531 Z M 149.191406 0.0976562 L 149.191406 5.226562 L 154.328125 5.226562 L 154.328125 0.0976562 Z M 149.191406 5.226562 L 149.191406 10.359375 L 154.328125 10.359375 L 154.328125 5.226562 Z M 149.191406 46.285156 L 149.191406 51.417969 L 154.328125 51.417969 L 154.328125 46.285156 Z M 149.191406 51.417969 L 149.191406 56.550781 L 154.328125 56.550781 L 154.328125 51.417969 Z M 149.191406 113.003906 L 149.191406 118.140625 L 154.328125 118.140625 L 154.328125 113.003906 Z M 149.191406 118.140625 L 149.191406 123.269531 L 154.328125 123.269531 L 154.328125 118.140625 Z M 149.191406 123.269531 L 149.191406 128.402344 L 154.328125 128.402344 L 154.328125 123.269531 Z M 144.0625 0.0976562 L 144.0625 5.226562 L 149.191406 5.226562 L 149.191406 0.0976562 Z M 144.0625 5.226562 L 144.0625 10.359375 L 149.191406 10.359375 L 149.191406 5.226562 Z M 144.0625 46.285156 L 144.0625 51.417969 L 149.191406 51.417969 L 149.191406 46.285156 Z M 144.0625 51.417969 L 144.0625 56.550781 L 149.191406 56.550781 L 149.191406 51.417969 Z M 144.0625 113.003906 L 144.0625 118.140625 L 149.191406 118.140625 L 149.191406 113.003906 Z M 144.0625 118.140625 L 144.0625 123.269531 L 149.191406 123.269531 L 149.191406 118.140625 Z M 144.0625 123.269531 L 144.0625 128.402344 L 149.191406 128.402344 L 149.191406 123.269531 Z M 138.929688 5.226562 L 138.929688 10.359375 L 144.0625 10.359375 L 144.0625 5.226562 Z M 138.929688 10.359375 L 138.929688 15.492188 L 144.0625 15.492188 L 144.0625 10.359375 Z M 138.929688 51.417969 L 138.929688 56.550781 L 144.0625 56.550781 L 144.0625 51.417969 Z M 138.929688 56.550781 L 138.929688 61.683594 L 144.0625 61.683594 L 144.0625 56.550781 Z M 138.929688 92.476562 L 138.929688 97.605469 L 144.0625 97.605469 L 144.0625 92.476562 Z M 138.929688 118.140625 L 138.929688 123.269531 L 144.0625 123.269531 L 144.0625 118.140625 Z M 138.929688 123.269531 L 138.929688 128.402344 L 144.0625 128.402344 L 144.0625 123.269531 Z M 133.796875 5.226562 L 133.796875 10.359375 L 138.929688 10.359375 L 138.929688 5.226562 Z M 133.796875 10.359375 L 133.796875 15.492188 L 138.929688 15.492188 L 138.929688 10.359375 Z M 133.796875 51.417969 L 133.796875 56.550781 L 138.929688 56.550781 L 138.929688 51.417969 Z M 133.796875 56.550781 L 133.796875 61.683594 L 138.929688 61.683594 L 138.929688 56.550781 Z M 133.796875 87.34375 L 133.796875 92.476562 L 138.929688 92.476562 L 138.929688 87.34375 Z M 133.796875 118.140625 L 133.796875 123.269531 L 138.929688 123.269531 L 138.929688 118.140625 Z M 133.796875 123.269531 L 133.796875 128.402344 L 138.929688 128.402344 L 138.929688 123.269531 Z M 128.664062 5.226562 L 128.664062 10.359375 L 133.796875 10.359375 L 133.796875 5.226562 Z M 128.664062 10.359375 L 128.664062 15.492188 L 133.796875 15.492188 L 133.796875 10.359375 Z M 128.664062 56.550781 L 128.664062 61.683594 L 133.796875 61.683594 L 133.796875 56.550781 Z M 128.664062 61.683594 L 128.664062 66.816406 L 133.796875 66.816406 L 133.796875 61.683594 Z M 128.664062 66.816406 L 128.664062 71.945312 L 133.796875 71.945312 L 133.796875 66.816406 Z M 128.664062 82.214844 L 128.664062 87.34375 L 133.796875 87.34375 L 133.796875 82.214844 Z M 128.664062 118.140625 L 128.664062 123.269531 L 133.796875 123.269531 L 133.796875 118.140625 Z M 128.664062 123.269531 L 128.664062 128.402344 L 133.796875 128.402344 L 133.796875 123.269531 Z M 123.53125 10.359375 L 123.53125 15.492188 L 128.664062 15.492188 L 128.664062 10.359375 Z M 123.53125 15.492188 L 123.53125 20.625 L 128.664062 20.625 L 128.664062 15.492188 Z M 123.53125 56.550781 L 123.53125 61.683594 L 128.664062 61.683594 L 128.664062 56.550781 Z M 123.53125 61.683594 L 123.53125 66.816406 L 128.664062 66.816406 L 128.664062 61.683594 Z M 123.53125 66.816406 L 123.53125 71.945312 L 128.664062 71.945312 L 128.664062 66.816406 Z M 123.53125 71.945312 L 123.53125 77.078125 L 128.664062 77.078125 L 128.664062 71.945312 Z M 123.53125 77.078125 L 123.53125 82.214844 L 128.664062 82.214844 L 128.664062 77.078125 Z M 123.53125 82.214844 L 123.53125 87.34375 L 128.664062 87.34375 L 128.664062 82.214844 Z M 123.53125 118.140625 L 123.53125 123.269531 L 128.664062 123.269531 L 128.664062 118.140625 Z M 123.53125 123.269531 L 123.53125 128.402344 L 128.664062 128.402344 L 128.664062 123.269531 Z M 118.402344 10.359375 L 118.402344 15.492188 L 123.53125 15.492188 L 123.53125 10.359375 Z M 118.402344 15.492188 L 118.402344 20.625 L 123.53125 20.625 L 123.53125 15.492188 Z M 118.402344 20.625 L 118.402344 25.757812 L 123.53125 25.757812 L 123.53125 20.625 Z M 118.402344 66.816406 L 118.402344 71.945312 L 123.53125 71.945312 L 123.53125 66.816406 Z M 118.402344 71.945312 L 118.402344 77.078125 L 123.53125 77.078125 L 123.53125 71.945312 Z M 118.402344 77.078125 L 118.402344 82.214844 L 123.53125 82.214844 L 123.53125 77.078125 Z M 118.402344 82.214844 L 118.402344 87.34375 L 123.53125 87.34375 L 123.53125 82.214844 Z M 118.402344 118.140625 L 118.402344 123.269531 L 123.53125 123.269531 L 123.53125 118.140625 Z M 118.402344 123.269531 L 118.402344 128.402344 L 123.53125 128.402344 L 123.53125 123.269531 Z M 113.269531 15.492188 L 113.269531 20.625 L 118.402344 20.625 L 118.402344 15.492188 Z M 113.269531 20.625 L 113.269531 25.757812 L 118.402344 25.757812 L 118.402344 20.625 Z M 113.269531 25.757812 L 113.269531 30.890625 L 118.402344 30.890625 L 118.402344 25.757812 Z M 113.269531 41.152344 L 113.269531 46.285156 L 118.402344 46.285156 L 118.402344 41.152344 Z M 113.269531 46.285156 L 113.269531 51.417969 L 118.402344 51.417969 L 118.402344 46.285156 Z M 113.269531 77.078125 L 113.269531 82.214844 L 118.402344 82.214844 L 118.402344 77.078125 Z M 113.269531 82.214844 L 113.269531 87.34375 L 118.402344 87.34375 L 118.402344 82.214844 Z M 113.269531 118.140625 L 113.269531 123.269531 L 118.402344 123.269531 L 118.402344 118.140625 Z M 113.269531 123.269531 L 113.269531 128.402344 L 118.402344 128.402344 L 118.402344 123.269531 Z M 108.136719 25.757812 L 108.136719 30.890625 L 113.269531 30.890625 L 113.269531 25.757812 Z M 108.136719 30.890625 L 108.136719 36.023438 L 113.269531 36.023438 L 113.269531 30.890625 Z M 108.136719 36.023438 L 108.136719 41.152344 L 113.269531 41.152344 L 113.269531 36.023438 Z M 108.136719 77.078125 L 108.136719 82.214844 L 113.269531 82.214844 L 113.269531 77.078125 Z M 108.136719 82.214844 L 108.136719 87.34375 L 113.269531 87.34375 L 113.269531 82.214844 Z M 108.136719 118.140625 L 108.136719 123.269531 L 113.269531 123.269531 L 113.269531 118.140625 Z M 108.136719 123.269531 L 108.136719 128.402344 L 113.269531 128.402344 L 113.269531 123.269531 Z M 103.003906 30.890625 L 103.003906 36.023438 L 108.136719 36.023438 L 108.136719 30.890625 Z M 103.003906 36.023438 L 103.003906 41.152344 L 108.136719 41.152344 L 108.136719 36.023438 Z M 103.003906 77.078125 L 103.003906 82.214844 L 108.136719 82.214844 L 108.136719 77.078125 Z M 103.003906 82.214844 L 103.003906 87.34375 L 108.136719 87.34375 L 108.136719 82.214844 Z M 103.003906 87.34375 L 103.003906 92.476562 L 108.136719 92.476562 L 108.136719 87.34375 Z M 103.003906 118.140625 L 103.003906 123.269531 L 108.136719 123.269531 L 108.136719 118.140625 Z M 103.003906 123.269531 L 103.003906 128.402344 L 108.136719 128.402344 L 108.136719 123.269531 Z M 97.871094 30.890625 L 97.871094 36.023438 L 103.003906 36.023438 L 103.003906 30.890625 Z M 97.871094 36.023438 L 97.871094 41.152344 L 103.003906 41.152344 L 103.003906 36.023438 Z M 97.871094 82.214844 L 97.871094 87.34375 L 103.003906 87.34375 L 103.003906 82.214844 Z M 97.871094 87.34375 L 97.871094 92.476562 L 103.003906 92.476562 L 103.003906 87.34375 Z M 97.871094 113.003906 L 97.871094 118.140625 L 103.003906 118.140625 L 103.003906 113.003906 Z M 97.871094 118.140625 L 97.871094 123.269531 L 103.003906 123.269531 L 103.003906 118.140625 Z M 97.871094 123.269531 L 97.871094 128.402344 L 103.003906 128.402344 L 103.003906 123.269531 Z M 92.738281 30.890625 L 92.738281 36.023438 L 97.871094 36.023438 L 97.871094 30.890625 Z M 92.738281 36.023438 L 92.738281 41.152344 L 97.871094 41.152344 L 97.871094 36.023438 Z M 92.738281 87.34375 L 92.738281 92.476562 L 97.871094 92.476562 L 97.871094 87.34375 Z M 92.738281 92.476562 L 92.738281 97.605469 L 97.871094 97.605469 L 97.871094 92.476562 Z M 92.738281 113.003906 L 92.738281 118.140625 L 97.871094 118.140625 L 97.871094 113.003906 Z M 92.738281 118.140625 L 92.738281 123.269531 L 97.871094 123.269531 L 97.871094 118.140625 Z M 92.738281 123.269531 L 92.738281 128.402344 L 97.871094 128.402344 L 97.871094 123.269531 Z M 87.605469 30.890625 L 87.605469 36.023438 L 92.738281 36.023438 L 92.738281 30.890625 Z M 87.605469 36.023438 L 87.605469 41.152344 L 92.738281 41.152344 L 92.738281 36.023438 Z M 87.605469 87.34375 L 87.605469 92.476562 L 92.738281 92.476562 L 92.738281 87.34375 Z M 87.605469 92.476562 L 87.605469 97.605469 L 92.738281 97.605469 L 92.738281 92.476562 Z M 87.605469 97.605469 L 87.605469 102.742188 L 92.738281 102.742188 L 92.738281 97.605469 Z M 87.605469 107.871094 L 87.605469 113.003906 L 92.738281 113.003906 L 92.738281 107.871094 Z M 87.605469 113.003906 L 87.605469 118.140625 L 92.738281 118.140625 L 92.738281 113.003906 Z M 87.605469 118.140625 L 87.605469 123.269531 L 92.738281 123.269531 L 92.738281 118.140625 Z M 87.605469 123.269531 L 87.605469 128.402344 L 92.738281 128.402344 L 92.738281 123.269531 Z M 82.476562 36.023438 L 82.476562 41.152344 L 87.605469 41.152344 L 87.605469 36.023438 Z M 82.476562 41.152344 L 82.476562 46.285156 L 87.605469 46.285156 L 87.605469 41.152344 Z M 82.476562 92.476562 L 82.476562 97.605469 L 87.605469 97.605469 L 87.605469 92.476562 Z M 82.476562 97.605469 L 82.476562 102.742188 L 87.605469 102.742188 L 87.605469 97.605469 Z M 82.476562 102.742188 L 82.476562 107.871094 L 87.605469 107.871094 L 87.605469 102.742188 Z M 82.476562 107.871094 L 82.476562 113.003906 L 87.605469 113.003906 L 87.605469 107.871094 Z M 82.476562 113.003906 L 82.476562 118.140625 L 87.605469 118.140625 L 87.605469 113.003906 Z M 82.476562 118.140625 L 82.476562 123.269531 L 87.605469 123.269531 L 87.605469 118.140625 Z M 82.476562 123.269531 L 82.476562 128.402344 L 87.605469 128.402344 L 87.605469 123.269531 Z M 77.34375 36.023438 L 77.34375 41.152344 L 82.476562 41.152344 L 82.476562 36.023438 Z M 77.34375 41.152344 L 77.34375 46.285156 L 82.476562 46.285156 L 82.476562 41.152344 Z M 77.34375 46.285156 L 77.34375 51.417969 L 82.476562 51.417969 L 82.476562 46.285156 Z M 77.34375 92.476562 L 77.34375 97.605469 L 82.476562 97.605469 L 82.476562 92.476562 Z M 77.34375 97.605469 L 77.34375 102.742188 L 82.476562 102.742188 L 82.476562 97.605469 Z M 77.34375 102.742188 L 77.34375 107.871094 L 82.476562 107.871094 L 82.476562 102.742188 Z M 77.34375 107.871094 L 77.34375 113.003906 L 82.476562 113.003906 L 82.476562 107.871094 Z M 77.34375 113.003906 L 77.34375 118.140625 L 82.476562 118.140625 L 82.476562 113.003906 Z M 77.34375 118.140625 L 77.34375 123.269531 L 82.476562 123.269531 L 82.476562 118.140625 Z M 77.34375 123.269531 L 77.34375 128.402344 L 82.476562 128.402344 L 82.476562 123.269531 Z M 72.210938 41.152344 L 72.210938 46.285156 L 77.34375 46.285156 L 77.34375 41.152344 Z M 72.210938 46.285156 L 72.210938 51.417969 L 77.34375 51.417969 L 77.34375 46.285156 Z M 72.210938 51.417969 L 72.210938 56.550781 L 77.34375 56.550781 L 77.34375 51.417969 Z M 72.210938 56.550781 L 72.210938 61.683594 L 77.34375 61.683594 L 77.34375 56.550781 Z M 72.210938 92.476562 L 72.210938 97.605469 L 77.34375 97.605469 L 77.34375 92.476562 Z M 72.210938 97.605469 L 72.210938 102.742188 L 77.34375 102.742188 L 77.34375 97.605469 Z M 72.210938 102.742188 L 72.210938 107.871094 L 77.34375 107.871094 L 77.34375 102.742188 Z M 72.210938 107.871094 L 72.210938 113.003906 L 77.34375 113.003906 L 77.34375 107.871094 Z M 72.210938 113.003906 L 72.210938 118.140625 L 77.34375 118.140625 L 77.34375 113.003906 Z M 72.210938 118.140625 L 72.210938 123.269531 L 77.34375 123.269531 L 77.34375 118.140625 Z M 72.210938 123.269531 L 72.210938 128.402344 L 77.34375 128.402344 L 77.34375 123.269531 Z M 67.078125 51.417969 L 67.078125 56.550781 L 72.210938 56.550781 L 72.210938 51.417969 Z M 67.078125 56.550781 L 67.078125 61.683594 L 72.210938 61.683594 L 72.210938 56.550781 Z M 67.078125 61.683594 L 67.078125 66.816406 L 72.210938 66.816406 L 72.210938 61.683594 Z M 67.078125 92.476562 L 67.078125 97.605469 L 72.210938 97.605469 L 72.210938 92.476562 Z M 67.078125 97.605469 L 67.078125 102.742188 L 72.210938 102.742188 L 72.210938 97.605469 Z M 67.078125 102.742188 L 67.078125 107.871094 L 72.210938 107.871094 L 72.210938 102.742188 Z M 67.078125 107.871094 L 67.078125 113.003906 L 72.210938 113.003906 L 72.210938 107.871094 Z M 67.078125 113.003906 L 67.078125 118.140625 L 72.210938 118.140625 L 72.210938 113.003906 Z M 67.078125 118.140625 L 67.078125 123.269531 L 72.210938 123.269531 L 72.210938 118.140625 Z M 67.078125 123.269531 L 67.078125 128.402344 L 72.210938 128.402344 L 72.210938 123.269531 Z M 61.945312 61.683594 L 61.945312 66.816406 L 67.078125 66.816406 L 67.078125 61.683594 Z M 61.945312 66.816406 L 61.945312 71.945312 L 67.078125 71.945312 L 67.078125 66.816406 Z M 61.945312 71.945312 L 61.945312 77.078125 L 67.078125 77.078125 L 67.078125 71.945312 Z M 61.945312 82.214844 L 61.945312 87.34375 L 67.078125 87.34375 L 67.078125 82.214844 Z M 61.945312 87.34375 L 61.945312 92.476562 L 67.078125 92.476562 L 67.078125 87.34375 Z M 61.945312 92.476562 L 61.945312 97.605469 L 67.078125 97.605469 L 67.078125 92.476562 Z M 61.945312 97.605469 L 61.945312 102.742188 L 67.078125 102.742188 L 67.078125 97.605469 Z M 61.945312 102.742188 L 61.945312 107.871094 L 67.078125 107.871094 L 67.078125 102.742188 Z M 61.945312 107.871094 L 61.945312 113.003906 L 67.078125 113.003906 L 67.078125 107.871094 Z M 61.945312 113.003906 L 61.945312 118.140625 L 67.078125 118.140625 L 67.078125 113.003906 Z M 61.945312 118.140625 L 61.945312 123.269531 L 67.078125 123.269531 L 67.078125 118.140625 Z M 61.945312 123.269531 L 61.945312 128.402344 L 67.078125 128.402344 L 67.078125 123.269531 Z M 56.8125 56.550781 L 56.8125 61.683594 L 61.945312 61.683594 L 61.945312 56.550781 Z M 56.8125 61.683594 L 56.8125 66.816406 L 61.945312 66.816406 L 61.945312 61.683594 Z M 56.8125 66.816406 L 56.8125 71.945312 L 61.945312 71.945312 L 61.945312 66.816406 Z M 56.8125 71.945312 L 56.8125 77.078125 L 61.945312 77.078125 L 61.945312 71.945312 Z M 56.8125 77.078125 L 56.8125 82.214844 L 61.945312 82.214844 L 61.945312 77.078125 Z M 56.8125 82.214844 L 56.8125 87.34375 L 61.945312 87.34375 L 61.945312 82.214844 Z M 56.8125 87.34375 L 56.8125 92.476562 L 61.945312 92.476562 L 61.945312 87.34375 Z M 56.8125 92.476562 L 56.8125 97.605469 L 61.945312 97.605469 L 61.945312 92.476562 Z M 56.8125 113.003906 L 56.8125 118.140625 L 61.945312 118.140625 L 61.945312 113.003906 Z M 56.8125 118.140625 L 56.8125 123.269531 L 61.945312 123.269531 L 61.945312 118.140625 Z M 56.8125 123.269531 L 56.8125 128.402344 L 61.945312 128.402344 L 61.945312 123.269531 Z M 51.679688 56.550781 L 51.679688 61.683594 L 56.8125 61.683594 L 56.8125 56.550781 Z M 51.679688 61.683594 L 51.679688 66.816406 L 56.8125 66.816406 L 56.8125 61.683594 Z M 51.679688 71.945312 L 51.679688 77.078125 L 56.8125 77.078125 L 56.8125 71.945312 Z M 51.679688 77.078125 L 51.679688 82.214844 L 56.8125 82.214844 L 56.8125 77.078125 Z M 51.679688 82.214844 L 51.679688 87.34375 L 56.8125 87.34375 L 56.8125 82.214844 Z M 51.679688 118.140625 L 51.679688 123.269531 L 56.8125 123.269531 L 56.8125 118.140625 Z M 51.679688 123.269531 L 51.679688 128.402344 L 56.8125 128.402344 L 56.8125 123.269531 Z M 46.546875 56.550781 L 46.546875 61.683594 L 51.679688 61.683594 L 51.679688 56.550781 Z M 46.546875 61.683594 L 46.546875 66.816406 L 51.679688 66.816406 L 51.679688 61.683594 Z M 46.546875 118.140625 L 46.546875 123.269531 L 51.679688 123.269531 L 51.679688 118.140625 Z M 46.546875 123.269531 L 46.546875 128.402344 L 51.679688 128.402344 L 51.679688 123.269531 Z M 41.417969 61.683594 L 41.417969 66.816406 L 46.546875 66.816406 L 46.546875 61.683594 Z M 41.417969 66.816406 L 41.417969 71.945312 L 46.546875 71.945312 L 46.546875 66.816406 Z M 41.417969 118.140625 L 41.417969 123.269531 L 46.546875 123.269531 L 46.546875 118.140625 Z M 41.417969 123.269531 L 41.417969 128.402344 L 46.546875 128.402344 L 46.546875 123.269531 Z M 36.285156 61.683594 L 36.285156 66.816406 L 41.417969 66.816406 L 41.417969 61.683594 Z M 36.285156 66.816406 L 36.285156 71.945312 L 41.417969 71.945312 L 41.417969 66.816406 Z M 36.285156 118.140625 L 36.285156 123.269531 L 41.417969 123.269531 L 41.417969 118.140625 Z M 36.285156 123.269531 L 36.285156 128.402344 L 41.417969 128.402344 L 41.417969 123.269531 Z M 31.152344 61.683594 L 31.152344 66.816406 L 36.285156 66.816406 L 36.285156 61.683594 Z M 31.152344 66.816406 L 31.152344 71.945312 L 36.285156 71.945312 L 36.285156 66.816406 Z M 31.152344 71.945312 L 31.152344 77.078125 L 36.285156 77.078125 L 36.285156 71.945312 Z M 31.152344 92.476562 L 31.152344 97.605469 L 36.285156 97.605469 L 36.285156 92.476562 Z M 31.152344 97.605469 L 31.152344 102.742188 L 36.285156 102.742188 L 36.285156 97.605469 Z M 31.152344 102.742188 L 31.152344 107.871094 L 36.285156 107.871094 L 36.285156 102.742188 Z M 31.152344 113.003906 L 31.152344 118.140625 L 36.285156 118.140625 L 36.285156 113.003906 Z M 31.152344 118.140625 L 31.152344 123.269531 L 36.285156 123.269531 L 36.285156 118.140625 Z M 31.152344 123.269531 L 31.152344 128.402344 L 36.285156 128.402344 L 36.285156 123.269531 Z M 26.019531 66.816406 L 26.019531 71.945312 L 31.152344 71.945312 L 31.152344 66.816406 Z M 26.019531 71.945312 L 26.019531 77.078125 L 31.152344 77.078125 L 31.152344 71.945312 Z M 26.019531 77.078125 L 26.019531 82.214844 L 31.152344 82.214844 L 31.152344 77.078125 Z M 26.019531 82.214844 L 26.019531 87.34375 L 31.152344 87.34375 L 31.152344 82.214844 Z M 26.019531 87.34375 L 26.019531 92.476562 L 31.152344 92.476562 L 31.152344 87.34375 Z M 26.019531 92.476562 L 26.019531 97.605469 L 31.152344 97.605469 L 31.152344 92.476562 Z M 26.019531 97.605469 L 26.019531 102.742188 L 31.152344 102.742188 L 31.152344 97.605469 Z M 26.019531 102.742188 L 26.019531 107.871094 L 31.152344 107.871094 L 31.152344 102.742188 Z M 26.019531 107.871094 L 26.019531 113.003906 L 31.152344 113.003906 L 31.152344 107.871094 Z M 26.019531 113.003906 L 26.019531 118.140625 L 31.152344 118.140625 L 31.152344 113.003906 Z M 26.019531 118.140625 L 26.019531 123.269531 L 31.152344 123.269531 L 31.152344 118.140625 Z M 26.019531 123.269531 L 26.019531 128.402344 L 31.152344 128.402344 L 31.152344 123.269531 Z M 20.886719 71.945312 L 20.886719 77.078125 L 26.019531 77.078125 L 26.019531 71.945312 Z M 20.886719 77.078125 L 20.886719 82.214844 L 26.019531 82.214844 L 26.019531 77.078125 Z M 20.886719 82.214844 L 20.886719 87.34375 L 26.019531 87.34375 L 26.019531 82.214844 Z M 20.886719 87.34375 L 20.886719 92.476562 L 26.019531 92.476562 L 26.019531 87.34375 Z M 20.886719 92.476562 L 20.886719 97.605469 L 26.019531 97.605469 L 26.019531 92.476562 Z M 20.886719 97.605469 L 20.886719 102.742188 L 26.019531 102.742188 L 26.019531 97.605469 Z M 20.886719 102.742188 L 20.886719 107.871094 L 26.019531 107.871094 L 26.019531 102.742188 Z M 20.886719 107.871094 L 20.886719 113.003906 L 26.019531 113.003906 L 26.019531 107.871094 Z M 20.886719 113.003906 L 20.886719 118.140625 L 26.019531 118.140625 L 26.019531 113.003906 Z M 20.886719 118.140625 L 20.886719 123.269531 L 26.019531 123.269531 L 26.019531 118.140625 Z M 20.886719 123.269531 L 20.886719 128.402344 L 26.019531 128.402344 L 26.019531 123.269531 Z M 15.753906 77.078125 L 15.753906 82.214844 L 20.886719 82.214844 L 20.886719 77.078125 Z M 15.753906 82.214844 L 15.753906 87.34375 L 20.886719 87.34375 L 20.886719 82.214844 Z M 15.753906 87.34375 L 15.753906 92.476562 L 20.886719 92.476562 L 20.886719 87.34375 Z M 15.753906 92.476562 L 15.753906 97.605469 L 20.886719 97.605469 L 20.886719 92.476562 Z M 15.753906 97.605469 L 15.753906 102.742188 L 20.886719 102.742188 L 20.886719 97.605469 Z M 15.753906 102.742188 L 15.753906 107.871094 L 20.886719 107.871094 L 20.886719 102.742188 Z M 15.753906 107.871094 L 15.753906 113.003906 L 20.886719 113.003906 L 20.886719 107.871094 Z M 15.753906 113.003906 L 15.753906 118.140625 L 20.886719 118.140625 L 20.886719 113.003906 Z M 15.753906 118.140625 L 15.753906 123.269531 L 20.886719 123.269531 L 20.886719 118.140625 Z M 15.753906 123.269531 L 15.753906 128.402344 L 20.886719 128.402344 L 20.886719 123.269531 Z M 10.621094 87.34375 L 10.621094 92.476562 L 15.753906 92.476562 L 15.753906 87.34375 Z M 10.621094 92.476562 L 10.621094 97.605469 L 15.753906 97.605469 L 15.753906 92.476562 Z M 10.621094 97.605469 L 10.621094 102.742188 L 15.753906 102.742188 L 15.753906 97.605469 Z M 10.621094 102.742188 L 10.621094 107.871094 L 15.753906 107.871094 L 15.753906 102.742188 Z M 10.621094 107.871094 L 10.621094 113.003906 L 15.753906 113.003906 L 15.753906 107.871094 Z M 10.621094 113.003906 L 10.621094 118.140625 L 15.753906 118.140625 L 15.753906 113.003906 Z M 10.621094 118.140625 L 10.621094 123.269531 L 15.753906 123.269531 L 15.753906 118.140625 Z M 5.488281 92.476562 L 5.488281 97.605469 L 10.621094 97.605469 L 10.621094 92.476562 Z M 5.488281 97.605469 L 5.488281 102.742188 L 10.621094 102.742188 L 10.621094 97.605469 Z M 5.488281 102.742188 L 5.488281 107.871094 L 10.621094 107.871094 L 10.621094 102.742188 Z M 5.488281 107.871094 L 5.488281 113.003906 L 10.621094 113.003906 L 10.621094 107.871094 Z M 5.488281 113.003906 L 5.488281 118.140625 L 10.621094 118.140625 L 10.621094 113.003906 Z M 0.359375 97.605469 L 0.359375 102.742188 L 5.488281 102.742188 L 5.488281 97.605469 Z M 0.359375 102.742188 L 0.359375 107.871094 L 5.488281 107.871094 L 5.488281 102.742188 Z M 5.488281 107.871094 L 5.488281 113.003906 L 0.359375 113.003906 L 0.359375 107.871094 L 5.488281 107.871094 " fill-opacity="1" fill-rule="nonzero"/></g><g fill="#6a3b79" fill-opacity="1"><g transform="translate(73.588707, 110.873141)"><g><path d="M 2.515625 -1.75 C 2.515625 -2.488281 2.679688 -3.046875 3.015625 -3.421875 C 3.347656 -3.804688 3.832031 -4 4.46875 -4 C 5.101562 -4 5.597656 -3.804688 5.953125 -3.421875 C 6.316406 -3.046875 6.5 -2.488281 6.5 -1.75 C 6.5 -1.03125 6.316406 -0.476562 5.953125 -0.09375 C 5.585938 0.289062 5.09375 0.484375 4.46875 0.484375 C 3.90625 0.484375 3.4375 0.3125 3.0625 -0.03125 C 2.695312 -0.382812 2.515625 -0.957031 2.515625 -1.75 Z M 2.515625 -1.75 "/></g></g></g></svg>