<svg xmlns="http://www.w3.org/2000/svg" xmlns:xlink="http://www.w3.org/1999/xlink" width="337" zoomAndPan="magnify" viewBox="0 0 252.75 135.750003" height="181" preserveAspectRatio="xMidYMid meet" version="1.0"><defs><g/><clipPath id="d6f971675f"><path d="M 0.109375 0 L 252.394531 0 L 252.394531 128.761719 L 0.109375 128.761719 Z M 0.109375 0 " clip-rule="nonzero"/></clipPath></defs><path fill="#ff786e" d="M 226.375 92.660156 L 226.375 97.800781 L 231.519531 97.800781 L 231.519531 92.660156 Z M 226.375 97.800781 L 226.375 102.945312 L 231.519531 102.945312 L 231.519531 97.800781 Z M 226.375 102.945312 L 226.375 108.085938 L 231.519531 108.085938 L 231.519531 102.945312 Z M 221.234375 87.515625 L 221.234375 92.660156 L 226.375 92.660156 L 226.375 87.515625 Z M 221.234375 92.660156 L 221.234375 97.800781 L 226.375 97.800781 L 226.375 92.660156 Z M 221.234375 97.800781 L 221.234375 102.945312 L 226.375 102.945312 L 226.375 97.800781 Z M 216.089844 82.375 L 216.089844 87.515625 L 221.234375 87.515625 L 221.234375 82.375 Z M 216.089844 87.515625 L 216.089844 92.660156 L 221.234375 92.660156 L 221.234375 87.515625 Z M 216.089844 92.660156 L 216.089844 97.800781 L 221.234375 97.800781 L 221.234375 92.660156 Z M 216.089844 97.800781 L 216.089844 102.945312 L 221.234375 102.945312 L 221.234375 97.800781 Z M 210.949219 82.375 L 210.949219 87.515625 L 216.089844 87.515625 L 216.089844 82.375 Z M 210.949219 87.515625 L 210.949219 92.660156 L 216.089844 92.660156 L 216.089844 87.515625 Z M 210.949219 92.660156 L 210.949219 97.800781 L 216.089844 97.800781 L 216.089844 92.660156 Z M 210.949219 97.800781 L 210.949219 102.945312 L 216.089844 102.945312 L 216.089844 97.800781 Z M 210.949219 102.945312 L 210.949219 108.085938 L 216.089844 108.085938 L 216.089844 102.945312 Z M 205.804688 61.804688 L 205.804688 66.949219 L 210.949219 66.949219 L 210.949219 61.804688 Z M 205.804688 66.949219 L 205.804688 72.089844 L 210.949219 72.089844 L 210.949219 66.949219 Z M 205.804688 82.375 L 205.804688 87.515625 L 210.949219 87.515625 L 210.949219 82.375 Z M 205.804688 87.515625 L 205.804688 92.660156 L 210.949219 92.660156 L 210.949219 87.515625 Z M 205.804688 92.660156 L 205.804688 97.800781 L 210.949219 97.800781 L 210.949219 92.660156 Z M 205.804688 97.800781 L 205.804688 102.945312 L 210.949219 102.945312 L 210.949219 97.800781 Z M 205.804688 102.945312 L 205.804688 108.085938 L 210.949219 108.085938 L 210.949219 102.945312 Z M 205.804688 108.085938 L 205.804688 113.230469 L 210.949219 113.230469 L 210.949219 108.085938 Z M 200.664062 20.664062 L 200.664062 25.808594 L 205.804688 25.808594 L 205.804688 20.664062 Z M 200.664062 25.808594 L 200.664062 30.949219 L 205.804688 30.949219 L 205.804688 25.808594 Z M 200.664062 30.949219 L 200.664062 36.09375 L 205.804688 36.09375 L 205.804688 30.949219 Z M 200.664062 36.09375 L 200.664062 41.234375 L 205.804688 41.234375 L 205.804688 36.09375 Z M 200.664062 56.660156 L 200.664062 61.804688 L 205.804688 61.804688 L 205.804688 56.660156 Z M 200.664062 61.804688 L 200.664062 66.949219 L 205.804688 66.949219 L 205.804688 61.804688 Z M 200.664062 66.949219 L 200.664062 72.089844 L 205.804688 72.089844 L 205.804688 66.949219 Z M 200.664062 82.375 L 200.664062 87.515625 L 205.804688 87.515625 L 205.804688 82.375 Z M 200.664062 87.515625 L 200.664062 92.660156 L 205.804688 92.660156 L 205.804688 87.515625 Z M 200.664062 92.660156 L 200.664062 97.800781 L 205.804688 97.800781 L 205.804688 92.660156 Z M 200.664062 97.800781 L 200.664062 102.945312 L 205.804688 102.945312 L 205.804688 97.800781 Z M 200.664062 102.945312 L 200.664062 108.085938 L 205.804688 108.085938 L 205.804688 102.945312 Z M 200.664062 108.085938 L 200.664062 113.230469 L 205.804688 113.230469 L 205.804688 108.085938 Z M 200.664062 113.230469 L 200.664062 118.375 L 205.804688 118.375 L 205.804688 113.230469 Z M 195.523438 10.378906 L 195.523438 15.523438 L 200.664062 15.523438 L 200.664062 10.378906 Z M 195.523438 15.523438 L 195.523438 20.664062 L 200.664062 20.664062 L 200.664062 15.523438 Z M 195.523438 20.664062 L 195.523438 25.808594 L 200.664062 25.808594 L 200.664062 20.664062 Z M 195.523438 25.808594 L 195.523438 30.949219 L 200.664062 30.949219 L 200.664062 25.808594 Z M 195.523438 30.949219 L 195.523438 36.09375 L 200.664062 36.09375 L 200.664062 30.949219 Z M 195.523438 36.09375 L 195.523438 41.234375 L 200.664062 41.234375 L 200.664062 36.09375 Z M 195.523438 41.234375 L 195.523438 46.378906 L 200.664062 46.378906 L 200.664062 41.234375 Z M 195.523438 56.660156 L 195.523438 61.804688 L 200.664062 61.804688 L 200.664062 56.660156 Z M 195.523438 61.804688 L 195.523438 66.949219 L 200.664062 66.949219 L 200.664062 61.804688 Z M 195.523438 66.949219 L 195.523438 72.089844 L 200.664062 72.089844 L 200.664062 66.949219 Z M 195.523438 72.089844 L 195.523438 77.230469 L 200.664062 77.230469 L 200.664062 72.089844 Z M 195.523438 87.515625 L 195.523438 92.660156 L 200.664062 92.660156 L 200.664062 87.515625 Z M 195.523438 92.660156 L 195.523438 97.800781 L 200.664062 97.800781 L 200.664062 92.660156 Z M 195.523438 97.800781 L 195.523438 102.945312 L 200.664062 102.945312 L 200.664062 97.800781 Z M 195.523438 102.945312 L 195.523438 108.085938 L 200.664062 108.085938 L 200.664062 102.945312 Z M 195.523438 108.085938 L 195.523438 113.230469 L 200.664062 113.230469 L 200.664062 108.085938 Z M 195.523438 113.230469 L 195.523438 118.375 L 200.664062 118.375 L 200.664062 113.230469 Z M 190.378906 10.378906 L 190.378906 15.523438 L 195.523438 15.523438 L 195.523438 10.378906 Z M 190.378906 15.523438 L 190.378906 20.664062 L 195.523438 20.664062 L 195.523438 15.523438 Z M 190.378906 20.664062 L 190.378906 25.808594 L 195.523438 25.808594 L 195.523438 20.664062 Z M 190.378906 25.808594 L 190.378906 30.949219 L 195.523438 30.949219 L 195.523438 25.808594 Z M 190.378906 30.949219 L 190.378906 36.09375 L 195.523438 36.09375 L 195.523438 30.949219 Z M 190.378906 36.09375 L 190.378906 41.234375 L 195.523438 41.234375 L 195.523438 36.09375 Z M 190.378906 41.234375 L 190.378906 46.378906 L 195.523438 46.378906 L 195.523438 41.234375 Z M 190.378906 46.378906 L 190.378906 51.519531 L 195.523438 51.519531 L 195.523438 46.378906 Z M 190.378906 51.519531 L 190.378906 56.660156 L 195.523438 56.660156 L 195.523438 51.519531 Z M 190.378906 56.660156 L 190.378906 61.804688 L 195.523438 61.804688 L 195.523438 56.660156 Z M 190.378906 61.804688 L 190.378906 66.949219 L 195.523438 66.949219 L 195.523438 61.804688 Z M 190.378906 66.949219 L 190.378906 72.089844 L 195.523438 72.089844 L 195.523438 66.949219 Z M 190.378906 72.089844 L 190.378906 77.230469 L 195.523438 77.230469 L 195.523438 72.089844 Z M 190.378906 87.515625 L 190.378906 92.660156 L 195.523438 92.660156 L 195.523438 87.515625 Z M 190.378906 92.660156 L 190.378906 97.800781 L 195.523438 97.800781 L 195.523438 92.660156 Z M 190.378906 97.800781 L 190.378906 102.945312 L 195.523438 102.945312 L 195.523438 97.800781 Z M 190.378906 102.945312 L 190.378906 108.085938 L 195.523438 108.085938 L 195.523438 102.945312 Z M 190.378906 108.085938 L 190.378906 113.230469 L 195.523438 113.230469 L 195.523438 108.085938 Z M 190.378906 113.230469 L 190.378906 118.375 L 195.523438 118.375 L 195.523438 113.230469 Z M 185.234375 5.238281 L 185.234375 10.378906 L 190.378906 10.378906 L 190.378906 5.238281 Z M 185.234375 10.378906 L 185.234375 15.523438 L 190.378906 15.523438 L 190.378906 10.378906 Z M 185.234375 15.523438 L 185.234375 20.664062 L 190.378906 20.664062 L 190.378906 15.523438 Z M 185.234375 20.664062 L 185.234375 25.808594 L 190.378906 25.808594 L 190.378906 20.664062 Z M 185.234375 25.808594 L 185.234375 30.949219 L 190.378906 30.949219 L 190.378906 25.808594 Z M 185.234375 30.949219 L 185.234375 36.09375 L 190.378906 36.09375 L 190.378906 30.949219 Z M 185.234375 36.09375 L 185.234375 41.234375 L 190.378906 41.234375 L 190.378906 36.09375 Z M 185.234375 41.234375 L 185.234375 46.378906 L 190.378906 46.378906 L 190.378906 41.234375 Z M 185.234375 46.378906 L 185.234375 51.519531 L 190.378906 51.519531 L 190.378906 46.378906 Z M 185.234375 51.519531 L 185.234375 56.660156 L 190.378906 56.660156 L 190.378906 51.519531 Z M 185.234375 56.660156 L 185.234375 61.804688 L 190.378906 61.804688 L 190.378906 56.660156 Z M 185.234375 61.804688 L 185.234375 66.949219 L 190.378906 66.949219 L 190.378906 61.804688 Z M 185.234375 66.949219 L 185.234375 72.089844 L 190.378906 72.089844 L 190.378906 66.949219 Z M 185.234375 72.089844 L 185.234375 77.230469 L 190.378906 77.230469 L 190.378906 72.089844 Z M 185.234375 77.230469 L 185.234375 82.375 L 190.378906 82.375 L 190.378906 77.230469 Z M 185.234375 87.515625 L 185.234375 92.660156 L 190.378906 92.660156 L 190.378906 87.515625 Z M 185.234375 92.660156 L 185.234375 97.800781 L 190.378906 97.800781 L 190.378906 92.660156 Z M 185.234375 97.800781 L 185.234375 102.945312 L 190.378906 102.945312 L 190.378906 97.800781 Z M 185.234375 102.945312 L 185.234375 108.085938 L 190.378906 108.085938 L 190.378906 102.945312 Z M 185.234375 108.085938 L 185.234375 113.230469 L 190.378906 113.230469 L 190.378906 108.085938 Z M 185.234375 113.230469 L 185.234375 118.375 L 190.378906 118.375 L 190.378906 113.230469 Z M 180.09375 5.238281 L 180.09375 10.378906 L 185.234375 10.378906 L 185.234375 5.238281 Z M 180.09375 10.378906 L 180.09375 15.523438 L 185.234375 15.523438 L 185.234375 10.378906 Z M 180.09375 15.523438 L 180.09375 20.664062 L 185.234375 20.664062 L 185.234375 15.523438 Z M 180.09375 20.664062 L 180.09375 25.808594 L 185.234375 25.808594 L 185.234375 20.664062 Z M 180.09375 25.808594 L 180.09375 30.949219 L 185.234375 30.949219 L 185.234375 25.808594 Z M 180.09375 30.949219 L 180.09375 36.09375 L 185.234375 36.09375 L 185.234375 30.949219 Z M 180.09375 36.09375 L 180.09375 41.234375 L 185.234375 41.234375 L 185.234375 36.09375 Z M 180.09375 41.234375 L 180.09375 46.378906 L 185.234375 46.378906 L 185.234375 41.234375 Z M 180.09375 46.378906 L 180.09375 51.519531 L 185.234375 51.519531 L 185.234375 46.378906 Z M 180.09375 51.519531 L 180.09375 56.660156 L 185.234375 56.660156 L 185.234375 51.519531 Z M 180.09375 56.660156 L 180.09375 61.804688 L 185.234375 61.804688 L 185.234375 56.660156 Z M 180.09375 61.804688 L 180.09375 66.949219 L 185.234375 66.949219 L 185.234375 61.804688 Z M 180.09375 66.949219 L 180.09375 72.089844 L 185.234375 72.089844 L 185.234375 66.949219 Z M 180.09375 72.089844 L 180.09375 77.230469 L 185.234375 77.230469 L 185.234375 72.089844 Z M 180.09375 77.230469 L 180.09375 82.375 L 185.234375 82.375 L 185.234375 77.230469 Z M 180.09375 87.515625 L 180.09375 92.660156 L 185.234375 92.660156 L 185.234375 87.515625 Z M 180.09375 92.660156 L 180.09375 97.800781 L 185.234375 97.800781 L 185.234375 92.660156 Z M 180.09375 97.800781 L 180.09375 102.945312 L 185.234375 102.945312 L 185.234375 97.800781 Z M 180.09375 102.945312 L 180.09375 108.085938 L 185.234375 108.085938 L 185.234375 102.945312 Z M 180.09375 108.085938 L 180.09375 113.230469 L 185.234375 113.230469 L 185.234375 108.085938 Z M 180.09375 113.230469 L 180.09375 118.375 L 185.234375 118.375 L 185.234375 113.230469 Z M 174.949219 0.0976562 L 174.949219 5.238281 L 180.09375 5.238281 L 180.09375 0.0976562 Z M 174.949219 5.238281 L 174.949219 10.378906 L 180.09375 10.378906 L 180.09375 5.238281 Z M 174.949219 10.378906 L 174.949219 15.523438 L 180.09375 15.523438 L 180.09375 10.378906 Z M 174.949219 15.523438 L 174.949219 20.664062 L 180.09375 20.664062 L 180.09375 15.523438 Z M 174.949219 20.664062 L 174.949219 25.808594 L 180.09375 25.808594 L 180.09375 20.664062 Z M 174.949219 25.808594 L 174.949219 30.949219 L 180.09375 30.949219 L 180.09375 25.808594 Z M 174.949219 30.949219 L 174.949219 36.09375 L 180.09375 36.09375 L 180.09375 30.949219 Z M 174.949219 36.09375 L 174.949219 41.234375 L 180.09375 41.234375 L 180.09375 36.09375 Z M 174.949219 41.234375 L 174.949219 46.378906 L 180.09375 46.378906 L 180.09375 41.234375 Z M 174.949219 46.378906 L 174.949219 51.519531 L 180.09375 51.519531 L 180.09375 46.378906 Z M 174.949219 51.519531 L 174.949219 56.660156 L 180.09375 56.660156 L 180.09375 51.519531 Z M 174.949219 56.660156 L 174.949219 61.804688 L 180.09375 61.804688 L 180.09375 56.660156 Z M 174.949219 61.804688 L 174.949219 66.949219 L 180.09375 66.949219 L 180.09375 61.804688 Z M 174.949219 66.949219 L 174.949219 72.089844 L 180.09375 72.089844 L 180.09375 66.949219 Z M 174.949219 72.089844 L 174.949219 77.230469 L 180.09375 77.230469 L 180.09375 72.089844 Z M 174.949219 77.230469 L 174.949219 82.375 L 180.09375 82.375 L 180.09375 77.230469 Z M 174.949219 82.375 L 174.949219 87.515625 L 180.09375 87.515625 L 180.09375 82.375 Z M 174.949219 87.515625 L 174.949219 92.660156 L 180.09375 92.660156 L 180.09375 87.515625 Z M 174.949219 92.660156 L 174.949219 97.800781 L 180.09375 97.800781 L 180.09375 92.660156 Z M 174.949219 97.800781 L 174.949219 102.945312 L 180.09375 102.945312 L 180.09375 97.800781 Z M 174.949219 102.945312 L 174.949219 108.085938 L 180.09375 108.085938 L 180.09375 102.945312 Z M 174.949219 108.085938 L 174.949219 113.230469 L 180.09375 113.230469 L 180.09375 108.085938 Z M 169.808594 0.0976562 L 169.808594 5.238281 L 174.949219 5.238281 L 174.949219 0.0976562 Z M 169.808594 5.238281 L 169.808594 10.378906 L 174.949219 10.378906 L 174.949219 5.238281 Z M 169.808594 10.378906 L 169.808594 15.523438 L 174.949219 15.523438 L 174.949219 10.378906 Z M 169.808594 15.523438 L 169.808594 20.664062 L 174.949219 20.664062 L 174.949219 15.523438 Z M 169.808594 20.664062 L 169.808594 25.808594 L 174.949219 25.808594 L 174.949219 20.664062 Z M 169.808594 25.808594 L 169.808594 30.949219 L 174.949219 30.949219 L 174.949219 25.808594 Z M 169.808594 30.949219 L 169.808594 36.09375 L 174.949219 36.09375 L 174.949219 30.949219 Z M 169.808594 36.09375 L 169.808594 41.234375 L 174.949219 41.234375 L 174.949219 36.09375 Z M 169.808594 41.234375 L 169.808594 46.378906 L 174.949219 46.378906 L 174.949219 41.234375 Z M 169.808594 46.378906 L 169.808594 51.519531 L 174.949219 51.519531 L 174.949219 46.378906 Z M 169.808594 61.804688 L 169.808594 66.949219 L 174.949219 66.949219 L 174.949219 61.804688 Z M 169.808594 66.949219 L 169.808594 72.089844 L 174.949219 72.089844 L 174.949219 66.949219 Z M 169.808594 72.089844 L 169.808594 77.230469 L 174.949219 77.230469 L 174.949219 72.089844 Z M 169.808594 77.230469 L 169.808594 82.375 L 174.949219 82.375 L 174.949219 77.230469 Z M 169.808594 82.375 L 169.808594 87.515625 L 174.949219 87.515625 L 174.949219 82.375 Z M 169.808594 87.515625 L 169.808594 92.660156 L 174.949219 92.660156 L 174.949219 87.515625 Z M 169.808594 97.800781 L 169.808594 102.945312 L 174.949219 102.945312 L 174.949219 97.800781 Z M 169.808594 102.945312 L 169.808594 108.085938 L 174.949219 108.085938 L 174.949219 102.945312 Z M 169.808594 108.085938 L 169.808594 113.230469 L 174.949219 113.230469 L 174.949219 108.085938 Z M 164.667969 5.238281 L 164.667969 10.378906 L 169.808594 10.378906 L 169.808594 5.238281 Z M 164.667969 10.378906 L 164.667969 15.523438 L 169.808594 15.523438 L 169.808594 10.378906 Z M 164.667969 15.523438 L 164.667969 20.664062 L 169.808594 20.664062 L 169.808594 15.523438 Z M 164.667969 20.664062 L 164.667969 25.808594 L 169.808594 25.808594 L 169.808594 20.664062 Z M 164.667969 25.808594 L 164.667969 30.949219 L 169.808594 30.949219 L 169.808594 25.808594 Z M 164.667969 30.949219 L 164.667969 36.09375 L 169.808594 36.09375 L 169.808594 30.949219 Z M 164.667969 36.09375 L 164.667969 41.234375 L 169.808594 41.234375 L 169.808594 36.09375 Z M 164.667969 41.234375 L 164.667969 46.378906 L 169.808594 46.378906 L 169.808594 41.234375 Z M 164.667969 56.660156 L 164.667969 61.804688 L 169.808594 61.804688 L 169.808594 56.660156 Z M 164.667969 61.804688 L 164.667969 66.949219 L 169.808594 66.949219 L 169.808594 61.804688 Z M 164.667969 66.949219 L 164.667969 72.089844 L 169.808594 72.089844 L 169.808594 66.949219 Z M 164.667969 72.089844 L 164.667969 77.230469 L 169.808594 77.230469 L 169.808594 72.089844 Z M 164.667969 77.230469 L 164.667969 82.375 L 169.808594 82.375 L 169.808594 77.230469 Z M 164.667969 82.375 L 164.667969 87.515625 L 169.808594 87.515625 L 169.808594 82.375 Z M 164.667969 87.515625 L 164.667969 92.660156 L 169.808594 92.660156 L 169.808594 87.515625 Z M 164.667969 102.945312 L 164.667969 108.085938 L 169.808594 108.085938 L 169.808594 102.945312 Z M 159.523438 5.238281 L 159.523438 10.378906 L 164.667969 10.378906 L 164.667969 5.238281 Z M 159.523438 10.378906 L 159.523438 15.523438 L 164.667969 15.523438 L 164.667969 10.378906 Z M 159.523438 15.523438 L 159.523438 20.664062 L 164.667969 20.664062 L 164.667969 15.523438 Z M 159.523438 20.664062 L 159.523438 25.808594 L 164.667969 25.808594 L 164.667969 20.664062 Z M 159.523438 25.808594 L 159.523438 30.949219 L 164.667969 30.949219 L 164.667969 25.808594 Z M 159.523438 30.949219 L 159.523438 36.09375 L 164.667969 36.09375 L 164.667969 30.949219 Z M 159.523438 36.09375 L 159.523438 41.234375 L 164.667969 41.234375 L 164.667969 36.09375 Z M 159.523438 41.234375 L 159.523438 46.378906 L 164.667969 46.378906 L 164.667969 41.234375 Z M 159.523438 51.519531 L 159.523438 56.660156 L 164.667969 56.660156 L 164.667969 51.519531 Z M 159.523438 56.660156 L 159.523438 61.804688 L 164.667969 61.804688 L 164.667969 56.660156 Z M 159.523438 61.804688 L 159.523438 66.949219 L 164.667969 66.949219 L 164.667969 61.804688 Z M 159.523438 66.949219 L 159.523438 72.089844 L 164.667969 72.089844 L 164.667969 66.949219 Z M 159.523438 72.089844 L 159.523438 77.230469 L 164.667969 77.230469 L 164.667969 72.089844 Z M 159.523438 77.230469 L 159.523438 82.375 L 164.667969 82.375 L 164.667969 77.230469 Z M 159.523438 82.375 L 159.523438 87.515625 L 164.667969 87.515625 L 164.667969 82.375 Z M 159.523438 87.515625 L 159.523438 92.660156 L 164.667969 92.660156 L 164.667969 87.515625 Z M 159.523438 92.660156 L 159.523438 97.800781 L 164.667969 97.800781 L 164.667969 92.660156 Z M 154.382812 5.238281 L 154.382812 10.378906 L 159.523438 10.378906 L 159.523438 5.238281 Z M 154.382812 10.378906 L 154.382812 15.523438 L 159.523438 15.523438 L 159.523438 10.378906 Z M 154.382812 15.523438 L 154.382812 20.664062 L 159.523438 20.664062 L 159.523438 15.523438 Z M 154.382812 20.664062 L 154.382812 25.808594 L 159.523438 25.808594 L 159.523438 20.664062 Z M 154.382812 25.808594 L 154.382812 30.949219 L 159.523438 30.949219 L 159.523438 25.808594 Z M 154.382812 30.949219 L 154.382812 36.09375 L 159.523438 36.09375 L 159.523438 30.949219 Z M 154.382812 36.09375 L 154.382812 41.234375 L 159.523438 41.234375 L 159.523438 36.09375 Z M 154.382812 41.234375 L 154.382812 46.378906 L 159.523438 46.378906 L 159.523438 41.234375 Z M 154.382812 56.660156 L 154.382812 61.804688 L 159.523438 61.804688 L 159.523438 56.660156 Z M 154.382812 61.804688 L 154.382812 66.949219 L 159.523438 66.949219 L 159.523438 61.804688 Z M 154.382812 66.949219 L 154.382812 72.089844 L 159.523438 72.089844 L 159.523438 66.949219 Z M 154.382812 72.089844 L 154.382812 77.230469 L 159.523438 77.230469 L 159.523438 72.089844 Z M 154.382812 77.230469 L 154.382812 82.375 L 159.523438 82.375 L 159.523438 77.230469 Z M 154.382812 82.375 L 154.382812 87.515625 L 159.523438 87.515625 L 159.523438 82.375 Z M 154.382812 87.515625 L 154.382812 92.660156 L 159.523438 92.660156 L 159.523438 87.515625 Z M 154.382812 92.660156 L 154.382812 97.800781 L 159.523438 97.800781 L 159.523438 92.660156 Z M 154.382812 97.800781 L 154.382812 102.945312 L 159.523438 102.945312 L 159.523438 97.800781 Z M 149.238281 10.378906 L 149.238281 15.523438 L 154.382812 15.523438 L 154.382812 10.378906 Z M 149.238281 15.523438 L 149.238281 20.664062 L 154.382812 20.664062 L 154.382812 15.523438 Z M 149.238281 20.664062 L 149.238281 25.808594 L 154.382812 25.808594 L 154.382812 20.664062 Z M 149.238281 25.808594 L 149.238281 30.949219 L 154.382812 30.949219 L 154.382812 25.808594 Z M 149.238281 30.949219 L 149.238281 36.09375 L 154.382812 36.09375 L 154.382812 30.949219 Z M 149.238281 36.09375 L 149.238281 41.234375 L 154.382812 41.234375 L 154.382812 36.09375 Z M 149.238281 41.234375 L 149.238281 46.378906 L 154.382812 46.378906 L 154.382812 41.234375 Z M 149.238281 56.660156 L 149.238281 61.804688 L 154.382812 61.804688 L 154.382812 56.660156 Z M 149.238281 61.804688 L 149.238281 66.949219 L 154.382812 66.949219 L 154.382812 61.804688 Z M 149.238281 66.949219 L 149.238281 72.089844 L 154.382812 72.089844 L 154.382812 66.949219 Z M 149.238281 72.089844 L 149.238281 77.230469 L 154.382812 77.230469 L 154.382812 72.089844 Z M 149.238281 77.230469 L 149.238281 82.375 L 154.382812 82.375 L 154.382812 77.230469 Z M 149.238281 82.375 L 149.238281 87.515625 L 154.382812 87.515625 L 154.382812 82.375 Z M 149.238281 87.515625 L 149.238281 92.660156 L 154.382812 92.660156 L 154.382812 87.515625 Z M 149.238281 92.660156 L 149.238281 97.800781 L 154.382812 97.800781 L 154.382812 92.660156 Z M 149.238281 97.800781 L 149.238281 102.945312 L 154.382812 102.945312 L 154.382812 97.800781 Z M 149.238281 102.945312 L 149.238281 108.085938 L 154.382812 108.085938 L 154.382812 102.945312 Z M 149.238281 108.085938 L 149.238281 113.230469 L 154.382812 113.230469 L 154.382812 108.085938 Z M 144.097656 10.378906 L 144.097656 15.523438 L 149.238281 15.523438 L 149.238281 10.378906 Z M 144.097656 15.523438 L 144.097656 20.664062 L 149.238281 20.664062 L 149.238281 15.523438 Z M 144.097656 20.664062 L 144.097656 25.808594 L 149.238281 25.808594 L 149.238281 20.664062 Z M 144.097656 25.808594 L 144.097656 30.949219 L 149.238281 30.949219 L 149.238281 25.808594 Z M 144.097656 30.949219 L 144.097656 36.09375 L 149.238281 36.09375 L 149.238281 30.949219 Z M 144.097656 36.09375 L 144.097656 41.234375 L 149.238281 41.234375 L 149.238281 36.09375 Z M 144.097656 41.234375 L 144.097656 46.378906 L 149.238281 46.378906 L 149.238281 41.234375 Z M 144.097656 56.660156 L 144.097656 61.804688 L 149.238281 61.804688 L 149.238281 56.660156 Z M 144.097656 61.804688 L 144.097656 66.949219 L 149.238281 66.949219 L 149.238281 61.804688 Z M 144.097656 66.949219 L 144.097656 72.089844 L 149.238281 72.089844 L 149.238281 66.949219 Z M 144.097656 72.089844 L 144.097656 77.230469 L 149.238281 77.230469 L 149.238281 72.089844 Z M 144.097656 77.230469 L 144.097656 82.375 L 149.238281 82.375 L 149.238281 77.230469 Z M 144.097656 82.375 L 144.097656 87.515625 L 149.238281 87.515625 L 149.238281 82.375 Z M 144.097656 87.515625 L 144.097656 92.660156 L 149.238281 92.660156 L 149.238281 87.515625 Z M 144.097656 92.660156 L 144.097656 97.800781 L 149.238281 97.800781 L 149.238281 92.660156 Z M 144.097656 97.800781 L 144.097656 102.945312 L 149.238281 102.945312 L 149.238281 97.800781 Z M 144.097656 102.945312 L 144.097656 108.085938 L 149.238281 108.085938 L 149.238281 102.945312 Z M 144.097656 108.085938 L 144.097656 113.230469 L 149.238281 113.230469 L 149.238281 108.085938 Z M 138.953125 15.523438 L 138.953125 20.664062 L 144.097656 20.664062 L 144.097656 15.523438 Z M 138.953125 20.664062 L 138.953125 25.808594 L 144.097656 25.808594 L 144.097656 20.664062 Z M 138.953125 25.808594 L 138.953125 30.949219 L 144.097656 30.949219 L 144.097656 25.808594 Z M 138.953125 30.949219 L 138.953125 36.09375 L 144.097656 36.09375 L 144.097656 30.949219 Z M 138.953125 36.09375 L 138.953125 41.234375 L 144.097656 41.234375 L 144.097656 36.09375 Z M 138.953125 41.234375 L 138.953125 46.378906 L 144.097656 46.378906 L 144.097656 41.234375 Z M 138.953125 46.378906 L 138.953125 51.519531 L 144.097656 51.519531 L 144.097656 46.378906 Z M 138.953125 61.804688 L 138.953125 66.949219 L 144.097656 66.949219 L 144.097656 61.804688 Z M 138.953125 66.949219 L 138.953125 72.089844 L 144.097656 72.089844 L 144.097656 66.949219 Z M 138.953125 72.089844 L 138.953125 77.230469 L 144.097656 77.230469 L 144.097656 72.089844 Z M 138.953125 77.230469 L 138.953125 82.375 L 144.097656 82.375 L 144.097656 77.230469 Z M 138.953125 82.375 L 138.953125 87.515625 L 144.097656 87.515625 L 144.097656 82.375 Z M 138.953125 87.515625 L 138.953125 92.660156 L 144.097656 92.660156 L 144.097656 87.515625 Z M 138.953125 97.800781 L 138.953125 102.945312 L 144.097656 102.945312 L 144.097656 97.800781 Z M 138.953125 102.945312 L 138.953125 108.085938 L 144.097656 108.085938 L 144.097656 102.945312 Z M 138.953125 108.085938 L 138.953125 113.230469 L 144.097656 113.230469 L 144.097656 108.085938 Z M 138.953125 113.230469 L 138.953125 118.375 L 144.097656 118.375 L 144.097656 113.230469 Z M 133.8125 15.523438 L 133.8125 20.664062 L 138.953125 20.664062 L 138.953125 15.523438 Z M 133.8125 20.664062 L 133.8125 25.808594 L 138.953125 25.808594 L 138.953125 20.664062 Z M 133.8125 25.808594 L 133.8125 30.949219 L 138.953125 30.949219 L 138.953125 25.808594 Z M 133.8125 30.949219 L 133.8125 36.09375 L 138.953125 36.09375 L 138.953125 30.949219 Z M 133.8125 36.09375 L 133.8125 41.234375 L 138.953125 41.234375 L 138.953125 36.09375 Z M 133.8125 41.234375 L 133.8125 46.378906 L 138.953125 46.378906 L 138.953125 41.234375 Z M 133.8125 46.378906 L 133.8125 51.519531 L 138.953125 51.519531 L 138.953125 46.378906 Z M 133.8125 61.804688 L 133.8125 66.949219 L 138.953125 66.949219 L 138.953125 61.804688 Z M 133.8125 66.949219 L 133.8125 72.089844 L 138.953125 72.089844 L 138.953125 66.949219 Z M 133.8125 72.089844 L 133.8125 77.230469 L 138.953125 77.230469 L 138.953125 72.089844 Z M 133.8125 77.230469 L 133.8125 82.375 L 138.953125 82.375 L 138.953125 77.230469 Z M 133.8125 82.375 L 133.8125 87.515625 L 138.953125 87.515625 L 138.953125 82.375 Z M 133.8125 92.660156 L 133.8125 97.800781 L 138.953125 97.800781 L 138.953125 92.660156 Z M 133.8125 97.800781 L 133.8125 102.945312 L 138.953125 102.945312 L 138.953125 97.800781 Z M 133.8125 102.945312 L 133.8125 108.085938 L 138.953125 108.085938 L 138.953125 102.945312 Z M 133.8125 108.085938 L 133.8125 113.230469 L 138.953125 113.230469 L 138.953125 108.085938 Z M 133.8125 113.230469 L 133.8125 118.375 L 138.953125 118.375 L 138.953125 113.230469 Z M 128.667969 15.523438 L 128.667969 20.664062 L 133.8125 20.664062 L 133.8125 15.523438 Z M 128.667969 20.664062 L 128.667969 25.808594 L 133.8125 25.808594 L 133.8125 20.664062 Z M 128.667969 25.808594 L 128.667969 30.949219 L 133.8125 30.949219 L 133.8125 25.808594 Z M 128.667969 30.949219 L 128.667969 36.09375 L 133.8125 36.09375 L 133.8125 30.949219 Z M 128.667969 36.09375 L 128.667969 41.234375 L 133.8125 41.234375 L 133.8125 36.09375 Z M 128.667969 41.234375 L 128.667969 46.378906 L 133.8125 46.378906 L 133.8125 41.234375 Z M 128.667969 46.378906 L 128.667969 51.519531 L 133.8125 51.519531 L 133.8125 46.378906 Z M 128.667969 51.519531 L 128.667969 56.660156 L 133.8125 56.660156 L 133.8125 51.519531 Z M 128.667969 72.089844 L 128.667969 77.230469 L 133.8125 77.230469 L 133.8125 72.089844 Z M 128.667969 77.230469 L 128.667969 82.375 L 133.8125 82.375 L 133.8125 77.230469 Z M 128.667969 87.515625 L 128.667969 92.660156 L 133.8125 92.660156 L 133.8125 87.515625 Z M 128.667969 92.660156 L 128.667969 97.800781 L 133.8125 97.800781 L 133.8125 92.660156 Z M 128.667969 97.800781 L 128.667969 102.945312 L 133.8125 102.945312 L 133.8125 97.800781 Z M 128.667969 102.945312 L 128.667969 108.085938 L 133.8125 108.085938 L 133.8125 102.945312 Z M 128.667969 108.085938 L 128.667969 113.230469 L 133.8125 113.230469 L 133.8125 108.085938 Z M 128.667969 113.230469 L 128.667969 118.375 L 133.8125 118.375 L 133.8125 113.230469 Z M 123.527344 20.664062 L 123.527344 25.808594 L 128.667969 25.808594 L 128.667969 20.664062 Z M 123.527344 25.808594 L 123.527344 30.949219 L 128.667969 30.949219 L 128.667969 25.808594 Z M 123.527344 30.949219 L 123.527344 36.09375 L 128.667969 36.09375 L 128.667969 30.949219 Z M 123.527344 36.09375 L 123.527344 41.234375 L 128.667969 41.234375 L 128.667969 36.09375 Z M 123.527344 41.234375 L 123.527344 46.378906 L 128.667969 46.378906 L 128.667969 41.234375 Z M 123.527344 46.378906 L 123.527344 51.519531 L 128.667969 51.519531 L 128.667969 46.378906 Z M 123.527344 51.519531 L 123.527344 56.660156 L 128.667969 56.660156 L 128.667969 51.519531 Z M 123.527344 87.515625 L 123.527344 92.660156 L 128.667969 92.660156 L 128.667969 87.515625 Z M 123.527344 92.660156 L 123.527344 97.800781 L 128.667969 97.800781 L 128.667969 92.660156 Z M 123.527344 97.800781 L 123.527344 102.945312 L 128.667969 102.945312 L 128.667969 97.800781 Z M 123.527344 102.945312 L 123.527344 108.085938 L 128.667969 108.085938 L 128.667969 102.945312 Z M 123.527344 108.085938 L 123.527344 113.230469 L 128.667969 113.230469 L 128.667969 108.085938 Z M 123.527344 113.230469 L 123.527344 118.375 L 128.667969 118.375 L 128.667969 113.230469 Z M 118.386719 25.808594 L 118.386719 30.949219 L 123.527344 30.949219 L 123.527344 25.808594 Z M 118.386719 30.949219 L 118.386719 36.09375 L 123.527344 36.09375 L 123.527344 30.949219 Z M 118.386719 36.09375 L 118.386719 41.234375 L 123.527344 41.234375 L 123.527344 36.09375 Z M 118.386719 41.234375 L 118.386719 46.378906 L 123.527344 46.378906 L 123.527344 41.234375 Z M 118.386719 46.378906 L 118.386719 51.519531 L 123.527344 51.519531 L 123.527344 46.378906 Z M 118.386719 51.519531 L 118.386719 56.660156 L 123.527344 56.660156 L 123.527344 51.519531 Z M 118.386719 56.660156 L 118.386719 61.804688 L 123.527344 61.804688 L 123.527344 56.660156 Z M 118.386719 61.804688 L 118.386719 66.949219 L 123.527344 66.949219 L 123.527344 61.804688 Z M 118.386719 87.515625 L 118.386719 92.660156 L 123.527344 92.660156 L 123.527344 87.515625 Z M 118.386719 92.660156 L 118.386719 97.800781 L 123.527344 97.800781 L 123.527344 92.660156 Z M 118.386719 97.800781 L 118.386719 102.945312 L 123.527344 102.945312 L 123.527344 97.800781 Z M 118.386719 102.945312 L 118.386719 108.085938 L 123.527344 108.085938 L 123.527344 102.945312 Z M 118.386719 108.085938 L 118.386719 113.230469 L 123.527344 113.230469 L 123.527344 108.085938 Z M 118.386719 113.230469 L 118.386719 118.375 L 123.527344 118.375 L 123.527344 113.230469 Z M 113.242188 30.949219 L 113.242188 36.09375 L 118.386719 36.09375 L 118.386719 30.949219 Z M 113.242188 36.09375 L 113.242188 41.234375 L 118.386719 41.234375 L 118.386719 36.09375 Z M 113.242188 51.519531 L 113.242188 56.660156 L 118.386719 56.660156 L 118.386719 51.519531 Z M 113.242188 56.660156 L 113.242188 61.804688 L 118.386719 61.804688 L 118.386719 56.660156 Z M 113.242188 61.804688 L 113.242188 66.949219 L 118.386719 66.949219 L 118.386719 61.804688 Z M 113.242188 66.949219 L 113.242188 72.089844 L 118.386719 72.089844 L 118.386719 66.949219 Z M 113.242188 72.089844 L 113.242188 77.230469 L 118.386719 77.230469 L 118.386719 72.089844 Z M 113.242188 87.515625 L 113.242188 92.660156 L 118.386719 92.660156 L 118.386719 87.515625 Z M 113.242188 92.660156 L 113.242188 97.800781 L 118.386719 97.800781 L 118.386719 92.660156 Z M 113.242188 97.800781 L 113.242188 102.945312 L 118.386719 102.945312 L 118.386719 97.800781 Z M 113.242188 102.945312 L 113.242188 108.085938 L 118.386719 108.085938 L 118.386719 102.945312 Z M 113.242188 108.085938 L 113.242188 113.230469 L 118.386719 113.230469 L 118.386719 108.085938 Z M 113.242188 113.230469 L 113.242188 118.375 L 118.386719 118.375 L 118.386719 113.230469 Z M 108.097656 41.234375 L 108.097656 46.378906 L 113.242188 46.378906 L 113.242188 41.234375 Z M 108.097656 46.378906 L 108.097656 51.519531 L 113.242188 51.519531 L 113.242188 46.378906 Z M 108.097656 51.519531 L 108.097656 56.660156 L 113.242188 56.660156 L 113.242188 51.519531 Z M 108.097656 56.660156 L 108.097656 61.804688 L 113.242188 61.804688 L 113.242188 56.660156 Z M 108.097656 61.804688 L 108.097656 66.949219 L 113.242188 66.949219 L 113.242188 61.804688 Z M 108.097656 66.949219 L 108.097656 72.089844 L 113.242188 72.089844 L 113.242188 66.949219 Z M 108.097656 72.089844 L 108.097656 77.230469 L 113.242188 77.230469 L 113.242188 72.089844 Z M 108.097656 87.515625 L 108.097656 92.660156 L 113.242188 92.660156 L 113.242188 87.515625 Z M 108.097656 92.660156 L 108.097656 97.800781 L 113.242188 97.800781 L 113.242188 92.660156 Z M 108.097656 97.800781 L 108.097656 102.945312 L 113.242188 102.945312 L 113.242188 97.800781 Z M 108.097656 102.945312 L 108.097656 108.085938 L 113.242188 108.085938 L 113.242188 102.945312 Z M 108.097656 108.085938 L 108.097656 113.230469 L 113.242188 113.230469 L 113.242188 108.085938 Z M 108.097656 113.230469 L 108.097656 118.375 L 113.242188 118.375 L 113.242188 113.230469 Z M 102.957031 41.234375 L 102.957031 46.378906 L 108.097656 46.378906 L 108.097656 41.234375 Z M 102.957031 46.378906 L 102.957031 51.519531 L 108.097656 51.519531 L 108.097656 46.378906 Z M 102.957031 51.519531 L 102.957031 56.660156 L 108.097656 56.660156 L 108.097656 51.519531 Z M 102.957031 56.660156 L 102.957031 61.804688 L 108.097656 61.804688 L 108.097656 56.660156 Z M 102.957031 61.804688 L 102.957031 66.949219 L 108.097656 66.949219 L 108.097656 61.804688 Z M 102.957031 66.949219 L 102.957031 72.089844 L 108.097656 72.089844 L 108.097656 66.949219 Z M 102.957031 72.089844 L 102.957031 77.230469 L 108.097656 77.230469 L 108.097656 72.089844 Z M 102.957031 92.660156 L 102.957031 97.800781 L 108.097656 97.800781 L 108.097656 92.660156 Z M 102.957031 97.800781 L 102.957031 102.945312 L 108.097656 102.945312 L 108.097656 97.800781 Z M 102.957031 102.945312 L 102.957031 108.085938 L 108.097656 108.085938 L 108.097656 102.945312 Z M 102.957031 108.085938 L 102.957031 113.230469 L 108.097656 113.230469 L 108.097656 108.085938 Z M 102.957031 113.230469 L 102.957031 118.375 L 108.097656 118.375 L 108.097656 113.230469 Z M 97.8125 41.234375 L 97.8125 46.378906 L 102.957031 46.378906 L 102.957031 41.234375 Z M 97.8125 46.378906 L 97.8125 51.519531 L 102.957031 51.519531 L 102.957031 46.378906 Z M 97.8125 51.519531 L 97.8125 56.660156 L 102.957031 56.660156 L 102.957031 51.519531 Z M 97.8125 56.660156 L 97.8125 61.804688 L 102.957031 61.804688 L 102.957031 56.660156 Z M 97.8125 61.804688 L 97.8125 66.949219 L 102.957031 66.949219 L 102.957031 61.804688 Z M 97.8125 66.949219 L 97.8125 72.089844 L 102.957031 72.089844 L 102.957031 66.949219 Z M 97.8125 72.089844 L 97.8125 77.230469 L 102.957031 77.230469 L 102.957031 72.089844 Z M 97.8125 77.230469 L 97.8125 82.375 L 102.957031 82.375 L 102.957031 77.230469 Z M 97.8125 92.660156 L 97.8125 97.800781 L 102.957031 97.800781 L 102.957031 92.660156 Z M 97.8125 97.800781 L 97.8125 102.945312 L 102.957031 102.945312 L 102.957031 97.800781 Z M 97.8125 102.945312 L 97.8125 108.085938 L 102.957031 108.085938 L 102.957031 102.945312 Z M 97.8125 108.085938 L 97.8125 113.230469 L 102.957031 113.230469 L 102.957031 108.085938 Z M 92.671875 41.234375 L 92.671875 46.378906 L 97.8125 46.378906 L 97.8125 41.234375 Z M 92.671875 46.378906 L 92.671875 51.519531 L 97.8125 51.519531 L 97.8125 46.378906 Z M 92.671875 51.519531 L 92.671875 56.660156 L 97.8125 56.660156 L 97.8125 51.519531 Z M 92.671875 56.660156 L 92.671875 61.804688 L 97.8125 61.804688 L 97.8125 56.660156 Z M 92.671875 61.804688 L 92.671875 66.949219 L 97.8125 66.949219 L 97.8125 61.804688 Z M 92.671875 66.949219 L 92.671875 72.089844 L 97.8125 72.089844 L 97.8125 66.949219 Z M 92.671875 72.089844 L 92.671875 77.230469 L 97.8125 77.230469 L 97.8125 72.089844 Z M 92.671875 77.230469 L 92.671875 82.375 L 97.8125 82.375 L 97.8125 77.230469 Z M 92.671875 82.375 L 92.671875 87.515625 L 97.8125 87.515625 L 97.8125 82.375 Z M 92.671875 97.800781 L 92.671875 102.945312 L 97.8125 102.945312 L 97.8125 97.800781 Z M 92.671875 102.945312 L 92.671875 108.085938 L 97.8125 108.085938 L 97.8125 102.945312 Z M 92.671875 108.085938 L 92.671875 113.230469 L 97.8125 113.230469 L 97.8125 108.085938 Z M 87.53125 41.234375 L 87.53125 46.378906 L 92.671875 46.378906 L 92.671875 41.234375 Z M 87.53125 46.378906 L 87.53125 51.519531 L 92.671875 51.519531 L 92.671875 46.378906 Z M 87.53125 51.519531 L 87.53125 56.660156 L 92.671875 56.660156 L 92.671875 51.519531 Z M 87.53125 56.660156 L 87.53125 61.804688 L 92.671875 61.804688 L 92.671875 56.660156 Z M 87.53125 61.804688 L 87.53125 66.949219 L 92.671875 66.949219 L 92.671875 61.804688 Z M 87.53125 66.949219 L 87.53125 72.089844 L 92.671875 72.089844 L 92.671875 66.949219 Z M 87.53125 72.089844 L 87.53125 77.230469 L 92.671875 77.230469 L 92.671875 72.089844 Z M 87.53125 77.230469 L 87.53125 82.375 L 92.671875 82.375 L 92.671875 77.230469 Z M 87.53125 82.375 L 87.53125 87.515625 L 92.671875 87.515625 L 92.671875 82.375 Z M 87.53125 102.945312 L 87.53125 108.085938 L 92.671875 108.085938 L 92.671875 102.945312 Z M 82.386719 46.378906 L 82.386719 51.519531 L 87.53125 51.519531 L 87.53125 46.378906 Z M 82.386719 51.519531 L 82.386719 56.660156 L 87.53125 56.660156 L 87.53125 51.519531 Z M 82.386719 56.660156 L 82.386719 61.804688 L 87.53125 61.804688 L 87.53125 56.660156 Z M 82.386719 61.804688 L 82.386719 66.949219 L 87.53125 66.949219 L 87.53125 61.804688 Z M 82.386719 66.949219 L 82.386719 72.089844 L 87.53125 72.089844 L 87.53125 66.949219 Z M 82.386719 72.089844 L 82.386719 77.230469 L 87.53125 77.230469 L 87.53125 72.089844 Z M 82.386719 77.230469 L 82.386719 82.375 L 87.53125 82.375 L 87.53125 77.230469 Z M 82.386719 82.375 L 82.386719 87.515625 L 87.53125 87.515625 L 87.53125 82.375 Z M 82.386719 87.515625 L 82.386719 92.660156 L 87.53125 92.660156 L 87.53125 87.515625 Z M 77.246094 51.519531 L 77.246094 56.660156 L 82.386719 56.660156 L 82.386719 51.519531 Z M 77.246094 56.660156 L 77.246094 61.804688 L 82.386719 61.804688 L 82.386719 56.660156 Z M 77.246094 61.804688 L 77.246094 66.949219 L 82.386719 66.949219 L 82.386719 61.804688 Z M 77.246094 66.949219 L 77.246094 72.089844 L 82.386719 72.089844 L 82.386719 66.949219 Z M 77.246094 72.089844 L 77.246094 77.230469 L 82.386719 77.230469 L 82.386719 72.089844 Z M 77.246094 77.230469 L 77.246094 82.375 L 82.386719 82.375 L 82.386719 77.230469 Z M 77.246094 82.375 L 77.246094 87.515625 L 82.386719 87.515625 L 82.386719 82.375 Z M 77.246094 87.515625 L 77.246094 92.660156 L 82.386719 92.660156 L 82.386719 87.515625 Z M 72.101562 61.804688 L 72.101562 66.949219 L 77.246094 66.949219 L 77.246094 61.804688 Z M 72.101562 66.949219 L 72.101562 72.089844 L 77.246094 72.089844 L 77.246094 66.949219 Z M 72.101562 72.089844 L 72.101562 77.230469 L 77.246094 77.230469 L 77.246094 72.089844 Z M 72.101562 77.230469 L 72.101562 82.375 L 77.246094 82.375 L 77.246094 77.230469 Z M 72.101562 82.375 L 72.101562 87.515625 L 77.246094 87.515625 L 77.246094 82.375 Z M 72.101562 87.515625 L 72.101562 92.660156 L 77.246094 92.660156 L 77.246094 87.515625 Z M 66.960938 66.949219 L 66.960938 72.089844 L 72.101562 72.089844 L 72.101562 66.949219 Z M 66.960938 72.089844 L 66.960938 77.230469 L 72.101562 77.230469 L 72.101562 72.089844 Z M 66.960938 77.230469 L 66.960938 82.375 L 72.101562 82.375 L 72.101562 77.230469 Z M 66.960938 82.375 L 66.960938 87.515625 L 72.101562 87.515625 L 72.101562 82.375 Z M 66.960938 87.515625 L 66.960938 92.660156 L 72.101562 92.660156 L 72.101562 87.515625 Z M 61.816406 77.230469 L 61.816406 82.375 L 66.960938 82.375 L 66.960938 77.230469 Z M 56.675781 97.800781 L 56.675781 102.945312 L 61.816406 102.945312 L 61.816406 97.800781 Z M 56.675781 102.945312 L 56.675781 108.085938 L 61.816406 108.085938 L 61.816406 102.945312 Z M 56.675781 108.085938 L 56.675781 113.230469 L 61.816406 113.230469 L 61.816406 108.085938 Z M 51.53125 66.949219 L 51.53125 72.089844 L 56.675781 72.089844 L 56.675781 66.949219 Z M 51.53125 87.515625 L 51.53125 92.660156 L 56.675781 92.660156 L 56.675781 87.515625 Z M 51.53125 92.660156 L 51.53125 97.800781 L 56.675781 97.800781 L 56.675781 92.660156 Z M 51.53125 97.800781 L 51.53125 102.945312 L 56.675781 102.945312 L 56.675781 97.800781 Z M 51.53125 102.945312 L 51.53125 108.085938 L 56.675781 108.085938 L 56.675781 102.945312 Z M 51.53125 108.085938 L 51.53125 113.230469 L 56.675781 113.230469 L 56.675781 108.085938 Z M 51.53125 113.230469 L 51.53125 118.375 L 56.675781 118.375 L 56.675781 113.230469 Z M 46.390625 66.949219 L 46.390625 72.089844 L 51.53125 72.089844 L 51.53125 66.949219 Z M 46.390625 72.089844 L 46.390625 77.230469 L 51.53125 77.230469 L 51.53125 72.089844 Z M 46.390625 77.230469 L 46.390625 82.375 L 51.53125 82.375 L 51.53125 77.230469 Z M 46.390625 82.375 L 46.390625 87.515625 L 51.53125 87.515625 L 51.53125 82.375 Z M 46.390625 87.515625 L 46.390625 92.660156 L 51.53125 92.660156 L 51.53125 87.515625 Z M 46.390625 92.660156 L 46.390625 97.800781 L 51.53125 97.800781 L 51.53125 92.660156 Z M 46.390625 97.800781 L 46.390625 102.945312 L 51.53125 102.945312 L 51.53125 97.800781 Z M 46.390625 102.945312 L 46.390625 108.085938 L 51.53125 108.085938 L 51.53125 102.945312 Z M 46.390625 108.085938 L 46.390625 113.230469 L 51.53125 113.230469 L 51.53125 108.085938 Z M 46.390625 113.230469 L 46.390625 118.375 L 51.53125 118.375 L 51.53125 113.230469 Z M 41.25 72.089844 L 41.25 77.230469 L 46.390625 77.230469 L 46.390625 72.089844 Z M 41.25 77.230469 L 41.25 82.375 L 46.390625 82.375 L 46.390625 77.230469 Z M 41.25 82.375 L 41.25 87.515625 L 46.390625 87.515625 L 46.390625 82.375 Z M 41.25 87.515625 L 41.25 92.660156 L 46.390625 92.660156 L 46.390625 87.515625 Z M 41.25 92.660156 L 41.25 97.800781 L 46.390625 97.800781 L 46.390625 92.660156 Z M 41.25 97.800781 L 41.25 102.945312 L 46.390625 102.945312 L 46.390625 97.800781 Z M 41.25 102.945312 L 41.25 108.085938 L 46.390625 108.085938 L 46.390625 102.945312 Z M 41.25 108.085938 L 41.25 113.230469 L 46.390625 113.230469 L 46.390625 108.085938 Z M 41.25 113.230469 L 41.25 118.375 L 46.390625 118.375 L 46.390625 113.230469 Z M 36.105469 72.089844 L 36.105469 77.230469 L 41.25 77.230469 L 41.25 72.089844 Z M 36.105469 77.230469 L 36.105469 82.375 L 41.25 82.375 L 41.25 77.230469 Z M 36.105469 82.375 L 36.105469 87.515625 L 41.25 87.515625 L 41.25 82.375 Z M 36.105469 87.515625 L 36.105469 92.660156 L 41.25 92.660156 L 41.25 87.515625 Z M 36.105469 92.660156 L 36.105469 97.800781 L 41.25 97.800781 L 41.25 92.660156 Z M 36.105469 97.800781 L 36.105469 102.945312 L 41.25 102.945312 L 41.25 97.800781 Z M 36.105469 102.945312 L 36.105469 108.085938 L 41.25 108.085938 L 41.25 102.945312 Z M 36.105469 108.085938 L 36.105469 113.230469 L 41.25 113.230469 L 41.25 108.085938 Z M 36.105469 113.230469 L 36.105469 118.375 L 41.25 118.375 L 41.25 113.230469 Z M 30.960938 77.230469 L 30.960938 82.375 L 36.105469 82.375 L 36.105469 77.230469 Z M 30.960938 82.375 L 30.960938 87.515625 L 36.105469 87.515625 L 36.105469 82.375 Z M 30.960938 87.515625 L 30.960938 92.660156 L 36.105469 92.660156 L 36.105469 87.515625 Z M 36.105469 108.085938 L 36.105469 113.230469 L 30.960938 113.230469 L 30.960938 108.085938 L 36.105469 108.085938 " fill-opacity="1" fill-rule="nonzero"/><g clip-path="url(#d6f971675f)"><path fill="#6a3b79" d="M 246.945312 102.945312 L 246.945312 108.085938 L 252.089844 108.085938 L 252.089844 102.945312 Z M 246.945312 108.085938 L 246.945312 113.230469 L 252.089844 113.230469 L 252.089844 108.085938 Z M 246.945312 113.230469 L 246.945312 118.375 L 252.089844 118.375 L 252.089844 113.230469 Z M 241.804688 97.800781 L 241.804688 102.945312 L 246.945312 102.945312 L 246.945312 97.800781 Z M 241.804688 102.945312 L 241.804688 108.085938 L 246.945312 108.085938 L 246.945312 102.945312 Z M 241.804688 108.085938 L 241.804688 113.230469 L 246.945312 113.230469 L 246.945312 108.085938 Z M 241.804688 113.230469 L 241.804688 118.375 L 246.945312 118.375 L 246.945312 113.230469 Z M 241.804688 118.375 L 241.804688 123.511719 L 246.945312 123.511719 L 246.945312 118.375 Z M 236.660156 87.515625 L 236.660156 92.660156 L 241.804688 92.660156 L 241.804688 87.515625 Z M 236.660156 92.660156 L 236.660156 97.800781 L 241.804688 97.800781 L 241.804688 92.660156 Z M 236.660156 97.800781 L 236.660156 102.945312 L 241.804688 102.945312 L 241.804688 97.800781 Z M 236.660156 102.945312 L 236.660156 108.085938 L 241.804688 108.085938 L 241.804688 102.945312 Z M 236.660156 108.085938 L 236.660156 113.230469 L 241.804688 113.230469 L 241.804688 108.085938 Z M 236.660156 113.230469 L 236.660156 118.375 L 241.804688 118.375 L 241.804688 113.230469 Z M 236.660156 118.375 L 236.660156 123.511719 L 241.804688 123.511719 L 241.804688 118.375 Z M 236.660156 123.511719 L 236.660156 128.65625 L 241.804688 128.65625 L 241.804688 123.511719 Z M 231.519531 87.515625 L 231.519531 92.660156 L 236.660156 92.660156 L 236.660156 87.515625 Z M 231.519531 92.660156 L 231.519531 97.800781 L 236.660156 97.800781 L 236.660156 92.660156 Z M 231.519531 97.800781 L 231.519531 102.945312 L 236.660156 102.945312 L 236.660156 97.800781 Z M 231.519531 102.945312 L 231.519531 108.085938 L 236.660156 108.085938 L 236.660156 102.945312 Z M 231.519531 108.085938 L 231.519531 113.230469 L 236.660156 113.230469 L 236.660156 108.085938 Z M 231.519531 113.230469 L 231.519531 118.375 L 236.660156 118.375 L 236.660156 113.230469 Z M 231.519531 118.375 L 231.519531 123.511719 L 236.660156 123.511719 L 236.660156 118.375 Z M 231.519531 123.511719 L 231.519531 128.65625 L 236.660156 128.65625 L 236.660156 123.511719 Z M 226.375 77.230469 L 226.375 82.375 L 231.519531 82.375 L 231.519531 77.230469 Z M 226.375 82.375 L 226.375 87.515625 L 231.519531 87.515625 L 231.519531 82.375 Z M 226.375 87.515625 L 226.375 92.660156 L 231.519531 92.660156 L 231.519531 87.515625 Z M 226.375 108.085938 L 226.375 113.230469 L 231.519531 113.230469 L 231.519531 108.085938 Z M 226.375 113.230469 L 226.375 118.375 L 231.519531 118.375 L 231.519531 113.230469 Z M 226.375 118.375 L 226.375 123.511719 L 231.519531 123.511719 L 231.519531 118.375 Z M 226.375 123.511719 L 226.375 128.65625 L 231.519531 128.65625 L 231.519531 123.511719 Z M 221.234375 77.230469 L 221.234375 82.375 L 226.375 82.375 L 226.375 77.230469 Z M 221.234375 82.375 L 221.234375 87.515625 L 226.375 87.515625 L 226.375 82.375 Z M 221.234375 102.945312 L 221.234375 108.085938 L 226.375 108.085938 L 226.375 102.945312 Z M 221.234375 108.085938 L 221.234375 113.230469 L 226.375 113.230469 L 226.375 108.085938 Z M 221.234375 113.230469 L 221.234375 118.375 L 226.375 118.375 L 226.375 113.230469 Z M 221.234375 118.375 L 221.234375 123.511719 L 226.375 123.511719 L 226.375 118.375 Z M 221.234375 123.511719 L 221.234375 128.65625 L 226.375 128.65625 L 226.375 123.511719 Z M 216.089844 72.089844 L 216.089844 77.230469 L 221.234375 77.230469 L 221.234375 72.089844 Z M 216.089844 77.230469 L 216.089844 82.375 L 221.234375 82.375 L 221.234375 77.230469 Z M 216.089844 102.945312 L 216.089844 108.085938 L 221.234375 108.085938 L 221.234375 102.945312 Z M 216.089844 108.085938 L 216.089844 113.230469 L 221.234375 113.230469 L 221.234375 108.085938 Z M 216.089844 113.230469 L 216.089844 118.375 L 221.234375 118.375 L 221.234375 113.230469 Z M 216.089844 118.375 L 216.089844 123.511719 L 221.234375 123.511719 L 221.234375 118.375 Z M 216.089844 123.511719 L 216.089844 128.65625 L 221.234375 128.65625 L 221.234375 123.511719 Z M 210.949219 72.089844 L 210.949219 77.230469 L 216.089844 77.230469 L 216.089844 72.089844 Z M 210.949219 77.230469 L 210.949219 82.375 L 216.089844 82.375 L 216.089844 77.230469 Z M 210.949219 108.085938 L 210.949219 113.230469 L 216.089844 113.230469 L 216.089844 108.085938 Z M 210.949219 113.230469 L 210.949219 118.375 L 216.089844 118.375 L 216.089844 113.230469 Z M 210.949219 118.375 L 210.949219 123.511719 L 216.089844 123.511719 L 216.089844 118.375 Z M 210.949219 123.511719 L 210.949219 128.65625 L 216.089844 128.65625 L 216.089844 123.511719 Z M 205.804688 30.949219 L 205.804688 36.09375 L 210.949219 36.09375 L 210.949219 30.949219 Z M 205.804688 36.09375 L 205.804688 41.234375 L 210.949219 41.234375 L 210.949219 36.09375 Z M 205.804688 72.089844 L 205.804688 77.230469 L 210.949219 77.230469 L 210.949219 72.089844 Z M 205.804688 77.230469 L 205.804688 82.375 L 210.949219 82.375 L 210.949219 77.230469 Z M 205.804688 113.230469 L 205.804688 118.375 L 210.949219 118.375 L 210.949219 113.230469 Z M 205.804688 118.375 L 205.804688 123.511719 L 210.949219 123.511719 L 210.949219 118.375 Z M 205.804688 123.511719 L 205.804688 128.65625 L 210.949219 128.65625 L 210.949219 123.511719 Z M 200.664062 41.234375 L 200.664062 46.378906 L 205.804688 46.378906 L 205.804688 41.234375 Z M 200.664062 72.089844 L 200.664062 77.230469 L 205.804688 77.230469 L 205.804688 72.089844 Z M 200.664062 77.230469 L 200.664062 82.375 L 205.804688 82.375 L 205.804688 77.230469 Z M 200.664062 118.375 L 200.664062 123.511719 L 205.804688 123.511719 L 205.804688 118.375 Z M 200.664062 123.511719 L 200.664062 128.65625 L 205.804688 128.65625 L 205.804688 123.511719 Z M 195.523438 46.378906 L 195.523438 51.519531 L 200.664062 51.519531 L 200.664062 46.378906 Z M 195.523438 51.519531 L 195.523438 56.660156 L 200.664062 56.660156 L 200.664062 51.519531 Z M 195.523438 77.230469 L 195.523438 82.375 L 200.664062 82.375 L 200.664062 77.230469 Z M 195.523438 82.375 L 195.523438 87.515625 L 200.664062 87.515625 L 200.664062 82.375 Z M 195.523438 118.375 L 195.523438 123.511719 L 200.664062 123.511719 L 200.664062 118.375 Z M 195.523438 123.511719 L 195.523438 128.65625 L 200.664062 128.65625 L 200.664062 123.511719 Z M 190.378906 77.230469 L 190.378906 82.375 L 195.523438 82.375 L 195.523438 77.230469 Z M 190.378906 82.375 L 190.378906 87.515625 L 195.523438 87.515625 L 195.523438 82.375 Z M 190.378906 118.375 L 190.378906 123.511719 L 195.523438 123.511719 L 195.523438 118.375 Z M 190.378906 123.511719 L 190.378906 128.65625 L 195.523438 128.65625 L 195.523438 123.511719 Z M 185.234375 82.375 L 185.234375 87.515625 L 190.378906 87.515625 L 190.378906 82.375 Z M 185.234375 118.375 L 185.234375 123.511719 L 190.378906 123.511719 L 190.378906 118.375 Z M 185.234375 123.511719 L 185.234375 128.65625 L 190.378906 128.65625 L 190.378906 123.511719 Z M 180.09375 82.375 L 180.09375 87.515625 L 185.234375 87.515625 L 185.234375 82.375 Z M 180.09375 118.375 L 180.09375 123.511719 L 185.234375 123.511719 L 185.234375 118.375 Z M 180.09375 123.511719 L 180.09375 128.65625 L 185.234375 128.65625 L 185.234375 123.511719 Z M 174.949219 113.230469 L 174.949219 118.375 L 180.09375 118.375 L 180.09375 113.230469 Z M 174.949219 118.375 L 174.949219 123.511719 L 180.09375 123.511719 L 180.09375 118.375 Z M 174.949219 123.511719 L 174.949219 128.65625 L 180.09375 128.65625 L 180.09375 123.511719 Z M 169.808594 51.519531 L 169.808594 56.660156 L 174.949219 56.660156 L 174.949219 51.519531 Z M 169.808594 56.660156 L 169.808594 61.804688 L 174.949219 61.804688 L 174.949219 56.660156 Z M 169.808594 92.660156 L 169.808594 97.800781 L 174.949219 97.800781 L 174.949219 92.660156 Z M 169.808594 113.230469 L 169.808594 118.375 L 174.949219 118.375 L 174.949219 113.230469 Z M 169.808594 118.375 L 169.808594 123.511719 L 174.949219 123.511719 L 174.949219 118.375 Z M 169.808594 123.511719 L 169.808594 128.65625 L 174.949219 128.65625 L 174.949219 123.511719 Z M 164.667969 0.0976562 L 164.667969 5.238281 L 169.808594 5.238281 L 169.808594 0.0976562 Z M 164.667969 46.378906 L 164.667969 51.519531 L 169.808594 51.519531 L 169.808594 46.378906 Z M 164.667969 51.519531 L 164.667969 56.660156 L 169.808594 56.660156 L 169.808594 51.519531 Z M 164.667969 92.660156 L 164.667969 97.800781 L 169.808594 97.800781 L 169.808594 92.660156 Z M 164.667969 97.800781 L 164.667969 102.945312 L 169.808594 102.945312 L 169.808594 97.800781 Z M 164.667969 108.085938 L 164.667969 113.230469 L 169.808594 113.230469 L 169.808594 108.085938 Z M 164.667969 113.230469 L 164.667969 118.375 L 169.808594 118.375 L 169.808594 113.230469 Z M 164.667969 118.375 L 164.667969 123.511719 L 169.808594 123.511719 L 169.808594 118.375 Z M 164.667969 123.511719 L 164.667969 128.65625 L 169.808594 128.65625 L 169.808594 123.511719 Z M 159.523438 0.0976562 L 159.523438 5.238281 L 164.667969 5.238281 L 164.667969 0.0976562 Z M 159.523438 46.378906 L 159.523438 51.519531 L 164.667969 51.519531 L 164.667969 46.378906 Z M 159.523438 97.800781 L 159.523438 102.945312 L 164.667969 102.945312 L 164.667969 97.800781 Z M 159.523438 102.945312 L 159.523438 108.085938 L 164.667969 108.085938 L 164.667969 102.945312 Z M 159.523438 108.085938 L 159.523438 113.230469 L 164.667969 113.230469 L 164.667969 108.085938 Z M 159.523438 113.230469 L 159.523438 118.375 L 164.667969 118.375 L 164.667969 113.230469 Z M 159.523438 118.375 L 159.523438 123.511719 L 164.667969 123.511719 L 164.667969 118.375 Z M 159.523438 123.511719 L 159.523438 128.65625 L 164.667969 128.65625 L 164.667969 123.511719 Z M 154.382812 0.0976562 L 154.382812 5.238281 L 159.523438 5.238281 L 159.523438 0.0976562 Z M 154.382812 46.378906 L 154.382812 51.519531 L 159.523438 51.519531 L 159.523438 46.378906 Z M 154.382812 51.519531 L 154.382812 56.660156 L 159.523438 56.660156 L 159.523438 51.519531 Z M 154.382812 102.945312 L 154.382812 108.085938 L 159.523438 108.085938 L 159.523438 102.945312 Z M 154.382812 108.085938 L 154.382812 113.230469 L 159.523438 113.230469 L 159.523438 108.085938 Z M 154.382812 113.230469 L 154.382812 118.375 L 159.523438 118.375 L 159.523438 113.230469 Z M 154.382812 118.375 L 154.382812 123.511719 L 159.523438 123.511719 L 159.523438 118.375 Z M 154.382812 123.511719 L 154.382812 128.65625 L 159.523438 128.65625 L 159.523438 123.511719 Z M 149.238281 0.0976562 L 149.238281 5.238281 L 154.382812 5.238281 L 154.382812 0.0976562 Z M 149.238281 5.238281 L 149.238281 10.378906 L 154.382812 10.378906 L 154.382812 5.238281 Z M 149.238281 46.378906 L 149.238281 51.519531 L 154.382812 51.519531 L 154.382812 46.378906 Z M 149.238281 51.519531 L 149.238281 56.660156 L 154.382812 56.660156 L 154.382812 51.519531 Z M 149.238281 113.230469 L 149.238281 118.375 L 154.382812 118.375 L 154.382812 113.230469 Z M 149.238281 118.375 L 149.238281 123.511719 L 154.382812 123.511719 L 154.382812 118.375 Z M 149.238281 123.511719 L 149.238281 128.65625 L 154.382812 128.65625 L 154.382812 123.511719 Z M 144.097656 0.0976562 L 144.097656 5.238281 L 149.238281 5.238281 L 149.238281 0.0976562 Z M 144.097656 5.238281 L 144.097656 10.378906 L 149.238281 10.378906 L 149.238281 5.238281 Z M 144.097656 46.378906 L 144.097656 51.519531 L 149.238281 51.519531 L 149.238281 46.378906 Z M 144.097656 51.519531 L 144.097656 56.660156 L 149.238281 56.660156 L 149.238281 51.519531 Z M 144.097656 113.230469 L 144.097656 118.375 L 149.238281 118.375 L 149.238281 113.230469 Z M 144.097656 118.375 L 144.097656 123.511719 L 149.238281 123.511719 L 149.238281 118.375 Z M 144.097656 123.511719 L 144.097656 128.65625 L 149.238281 128.65625 L 149.238281 123.511719 Z M 138.953125 5.238281 L 138.953125 10.378906 L 144.097656 10.378906 L 144.097656 5.238281 Z M 138.953125 10.378906 L 138.953125 15.523438 L 144.097656 15.523438 L 144.097656 10.378906 Z M 138.953125 51.519531 L 138.953125 56.660156 L 144.097656 56.660156 L 144.097656 51.519531 Z M 138.953125 56.660156 L 138.953125 61.804688 L 144.097656 61.804688 L 144.097656 56.660156 Z M 138.953125 92.660156 L 138.953125 97.800781 L 144.097656 97.800781 L 144.097656 92.660156 Z M 138.953125 118.375 L 138.953125 123.511719 L 144.097656 123.511719 L 144.097656 118.375 Z M 138.953125 123.511719 L 138.953125 128.65625 L 144.097656 128.65625 L 144.097656 123.511719 Z M 133.8125 5.238281 L 133.8125 10.378906 L 138.953125 10.378906 L 138.953125 5.238281 Z M 133.8125 10.378906 L 133.8125 15.523438 L 138.953125 15.523438 L 138.953125 10.378906 Z M 133.8125 51.519531 L 133.8125 56.660156 L 138.953125 56.660156 L 138.953125 51.519531 Z M 133.8125 56.660156 L 133.8125 61.804688 L 138.953125 61.804688 L 138.953125 56.660156 Z M 133.8125 87.515625 L 133.8125 92.660156 L 138.953125 92.660156 L 138.953125 87.515625 Z M 133.8125 118.375 L 133.8125 123.511719 L 138.953125 123.511719 L 138.953125 118.375 Z M 133.8125 123.511719 L 133.8125 128.65625 L 138.953125 128.65625 L 138.953125 123.511719 Z M 128.667969 5.238281 L 128.667969 10.378906 L 133.8125 10.378906 L 133.8125 5.238281 Z M 128.667969 10.378906 L 128.667969 15.523438 L 133.8125 15.523438 L 133.8125 10.378906 Z M 128.667969 56.660156 L 128.667969 61.804688 L 133.8125 61.804688 L 133.8125 56.660156 Z M 128.667969 61.804688 L 128.667969 66.949219 L 133.8125 66.949219 L 133.8125 61.804688 Z M 128.667969 66.949219 L 128.667969 72.089844 L 133.8125 72.089844 L 133.8125 66.949219 Z M 128.667969 82.375 L 128.667969 87.515625 L 133.8125 87.515625 L 133.8125 82.375 Z M 128.667969 118.375 L 128.667969 123.511719 L 133.8125 123.511719 L 133.8125 118.375 Z M 128.667969 123.511719 L 128.667969 128.65625 L 133.8125 128.65625 L 133.8125 123.511719 Z M 123.527344 10.378906 L 123.527344 15.523438 L 128.667969 15.523438 L 128.667969 10.378906 Z M 123.527344 15.523438 L 123.527344 20.664062 L 128.667969 20.664062 L 128.667969 15.523438 Z M 123.527344 56.660156 L 123.527344 61.804688 L 128.667969 61.804688 L 128.667969 56.660156 Z M 123.527344 61.804688 L 123.527344 66.949219 L 128.667969 66.949219 L 128.667969 61.804688 Z M 123.527344 66.949219 L 123.527344 72.089844 L 128.667969 72.089844 L 128.667969 66.949219 Z M 123.527344 72.089844 L 123.527344 77.230469 L 128.667969 77.230469 L 128.667969 72.089844 Z M 123.527344 77.230469 L 123.527344 82.375 L 128.667969 82.375 L 128.667969 77.230469 Z M 123.527344 82.375 L 123.527344 87.515625 L 128.667969 87.515625 L 128.667969 82.375 Z M 123.527344 118.375 L 123.527344 123.511719 L 128.667969 123.511719 L 128.667969 118.375 Z M 123.527344 123.511719 L 123.527344 128.65625 L 128.667969 128.65625 L 128.667969 123.511719 Z M 118.386719 10.378906 L 118.386719 15.523438 L 123.527344 15.523438 L 123.527344 10.378906 Z M 118.386719 15.523438 L 118.386719 20.664062 L 123.527344 20.664062 L 123.527344 15.523438 Z M 118.386719 20.664062 L 118.386719 25.808594 L 123.527344 25.808594 L 123.527344 20.664062 Z M 118.386719 66.949219 L 118.386719 72.089844 L 123.527344 72.089844 L 123.527344 66.949219 Z M 118.386719 72.089844 L 118.386719 77.230469 L 123.527344 77.230469 L 123.527344 72.089844 Z M 118.386719 77.230469 L 118.386719 82.375 L 123.527344 82.375 L 123.527344 77.230469 Z M 118.386719 82.375 L 118.386719 87.515625 L 123.527344 87.515625 L 123.527344 82.375 Z M 118.386719 118.375 L 118.386719 123.511719 L 123.527344 123.511719 L 123.527344 118.375 Z M 118.386719 123.511719 L 118.386719 128.65625 L 123.527344 128.65625 L 123.527344 123.511719 Z M 113.242188 15.523438 L 113.242188 20.664062 L 118.386719 20.664062 L 118.386719 15.523438 Z M 113.242188 20.664062 L 113.242188 25.808594 L 118.386719 25.808594 L 118.386719 20.664062 Z M 113.242188 25.808594 L 113.242188 30.949219 L 118.386719 30.949219 L 118.386719 25.808594 Z M 113.242188 41.234375 L 113.242188 46.378906 L 118.386719 46.378906 L 118.386719 41.234375 Z M 113.242188 46.378906 L 113.242188 51.519531 L 118.386719 51.519531 L 118.386719 46.378906 Z M 113.242188 77.230469 L 113.242188 82.375 L 118.386719 82.375 L 118.386719 77.230469 Z M 113.242188 82.375 L 113.242188 87.515625 L 118.386719 87.515625 L 118.386719 82.375 Z M 113.242188 118.375 L 113.242188 123.511719 L 118.386719 123.511719 L 118.386719 118.375 Z M 113.242188 123.511719 L 113.242188 128.65625 L 118.386719 128.65625 L 118.386719 123.511719 Z M 108.097656 25.808594 L 108.097656 30.949219 L 113.242188 30.949219 L 113.242188 25.808594 Z M 108.097656 30.949219 L 108.097656 36.09375 L 113.242188 36.09375 L 113.242188 30.949219 Z M 108.097656 36.09375 L 108.097656 41.234375 L 113.242188 41.234375 L 113.242188 36.09375 Z M 108.097656 77.230469 L 108.097656 82.375 L 113.242188 82.375 L 113.242188 77.230469 Z M 108.097656 82.375 L 108.097656 87.515625 L 113.242188 87.515625 L 113.242188 82.375 Z M 108.097656 118.375 L 108.097656 123.511719 L 113.242188 123.511719 L 113.242188 118.375 Z M 108.097656 123.511719 L 108.097656 128.65625 L 113.242188 128.65625 L 113.242188 123.511719 Z M 102.957031 30.949219 L 102.957031 36.09375 L 108.097656 36.09375 L 108.097656 30.949219 Z M 102.957031 36.09375 L 102.957031 41.234375 L 108.097656 41.234375 L 108.097656 36.09375 Z M 102.957031 77.230469 L 102.957031 82.375 L 108.097656 82.375 L 108.097656 77.230469 Z M 102.957031 82.375 L 102.957031 87.515625 L 108.097656 87.515625 L 108.097656 82.375 Z M 102.957031 87.515625 L 102.957031 92.660156 L 108.097656 92.660156 L 108.097656 87.515625 Z M 102.957031 118.375 L 102.957031 123.511719 L 108.097656 123.511719 L 108.097656 118.375 Z M 102.957031 123.511719 L 102.957031 128.65625 L 108.097656 128.65625 L 108.097656 123.511719 Z M 97.8125 30.949219 L 97.8125 36.09375 L 102.957031 36.09375 L 102.957031 30.949219 Z M 97.8125 36.09375 L 97.8125 41.234375 L 102.957031 41.234375 L 102.957031 36.09375 Z M 97.8125 82.375 L 97.8125 87.515625 L 102.957031 87.515625 L 102.957031 82.375 Z M 97.8125 87.515625 L 97.8125 92.660156 L 102.957031 92.660156 L 102.957031 87.515625 Z M 97.8125 113.230469 L 97.8125 118.375 L 102.957031 118.375 L 102.957031 113.230469 Z M 97.8125 118.375 L 97.8125 123.511719 L 102.957031 123.511719 L 102.957031 118.375 Z M 97.8125 123.511719 L 97.8125 128.65625 L 102.957031 128.65625 L 102.957031 123.511719 Z M 92.671875 30.949219 L 92.671875 36.09375 L 97.8125 36.09375 L 97.8125 30.949219 Z M 92.671875 36.09375 L 92.671875 41.234375 L 97.8125 41.234375 L 97.8125 36.09375 Z M 92.671875 87.515625 L 92.671875 92.660156 L 97.8125 92.660156 L 97.8125 87.515625 Z M 92.671875 92.660156 L 92.671875 97.800781 L 97.8125 97.800781 L 97.8125 92.660156 Z M 92.671875 113.230469 L 92.671875 118.375 L 97.8125 118.375 L 97.8125 113.230469 Z M 92.671875 118.375 L 92.671875 123.511719 L 97.8125 123.511719 L 97.8125 118.375 Z M 92.671875 123.511719 L 92.671875 128.65625 L 97.8125 128.65625 L 97.8125 123.511719 Z M 87.53125 30.949219 L 87.53125 36.09375 L 92.671875 36.09375 L 92.671875 30.949219 Z M 87.53125 36.09375 L 87.53125 41.234375 L 92.671875 41.234375 L 92.671875 36.09375 Z M 87.53125 87.515625 L 87.53125 92.660156 L 92.671875 92.660156 L 92.671875 87.515625 Z M 87.53125 92.660156 L 87.53125 97.800781 L 92.671875 97.800781 L 92.671875 92.660156 Z M 87.53125 97.800781 L 87.53125 102.945312 L 92.671875 102.945312 L 92.671875 97.800781 Z M 87.53125 108.085938 L 87.53125 113.230469 L 92.671875 113.230469 L 92.671875 108.085938 Z M 87.53125 113.230469 L 87.53125 118.375 L 92.671875 118.375 L 92.671875 113.230469 Z M 87.53125 118.375 L 87.53125 123.511719 L 92.671875 123.511719 L 92.671875 118.375 Z M 87.53125 123.511719 L 87.53125 128.65625 L 92.671875 128.65625 L 92.671875 123.511719 Z M 82.386719 36.09375 L 82.386719 41.234375 L 87.53125 41.234375 L 87.53125 36.09375 Z M 82.386719 41.234375 L 82.386719 46.378906 L 87.53125 46.378906 L 87.53125 41.234375 Z M 82.386719 92.660156 L 82.386719 97.800781 L 87.53125 97.800781 L 87.53125 92.660156 Z M 82.386719 97.800781 L 82.386719 102.945312 L 87.53125 102.945312 L 87.53125 97.800781 Z M 82.386719 102.945312 L 82.386719 108.085938 L 87.53125 108.085938 L 87.53125 102.945312 Z M 82.386719 108.085938 L 82.386719 113.230469 L 87.53125 113.230469 L 87.53125 108.085938 Z M 82.386719 113.230469 L 82.386719 118.375 L 87.53125 118.375 L 87.53125 113.230469 Z M 82.386719 118.375 L 82.386719 123.511719 L 87.53125 123.511719 L 87.53125 118.375 Z M 82.386719 123.511719 L 82.386719 128.65625 L 87.53125 128.65625 L 87.53125 123.511719 Z M 77.246094 36.09375 L 77.246094 41.234375 L 82.386719 41.234375 L 82.386719 36.09375 Z M 77.246094 41.234375 L 77.246094 46.378906 L 82.386719 46.378906 L 82.386719 41.234375 Z M 77.246094 46.378906 L 77.246094 51.519531 L 82.386719 51.519531 L 82.386719 46.378906 Z M 77.246094 92.660156 L 77.246094 97.800781 L 82.386719 97.800781 L 82.386719 92.660156 Z M 77.246094 97.800781 L 77.246094 102.945312 L 82.386719 102.945312 L 82.386719 97.800781 Z M 77.246094 102.945312 L 77.246094 108.085938 L 82.386719 108.085938 L 82.386719 102.945312 Z M 77.246094 108.085938 L 77.246094 113.230469 L 82.386719 113.230469 L 82.386719 108.085938 Z M 77.246094 113.230469 L 77.246094 118.375 L 82.386719 118.375 L 82.386719 113.230469 Z M 77.246094 118.375 L 77.246094 123.511719 L 82.386719 123.511719 L 82.386719 118.375 Z M 77.246094 123.511719 L 77.246094 128.65625 L 82.386719 128.65625 L 82.386719 123.511719 Z M 72.101562 41.234375 L 72.101562 46.378906 L 77.246094 46.378906 L 77.246094 41.234375 Z M 72.101562 46.378906 L 72.101562 51.519531 L 77.246094 51.519531 L 77.246094 46.378906 Z M 72.101562 51.519531 L 72.101562 56.660156 L 77.246094 56.660156 L 77.246094 51.519531 Z M 72.101562 56.660156 L 72.101562 61.804688 L 77.246094 61.804688 L 77.246094 56.660156 Z M 72.101562 92.660156 L 72.101562 97.800781 L 77.246094 97.800781 L 77.246094 92.660156 Z M 72.101562 97.800781 L 72.101562 102.945312 L 77.246094 102.945312 L 77.246094 97.800781 Z M 72.101562 102.945312 L 72.101562 108.085938 L 77.246094 108.085938 L 77.246094 102.945312 Z M 72.101562 108.085938 L 72.101562 113.230469 L 77.246094 113.230469 L 77.246094 108.085938 Z M 72.101562 113.230469 L 72.101562 118.375 L 77.246094 118.375 L 77.246094 113.230469 Z M 72.101562 118.375 L 72.101562 123.511719 L 77.246094 123.511719 L 77.246094 118.375 Z M 72.101562 123.511719 L 72.101562 128.65625 L 77.246094 128.65625 L 77.246094 123.511719 Z M 66.960938 51.519531 L 66.960938 56.660156 L 72.101562 56.660156 L 72.101562 51.519531 Z M 66.960938 56.660156 L 66.960938 61.804688 L 72.101562 61.804688 L 72.101562 56.660156 Z M 66.960938 61.804688 L 66.960938 66.949219 L 72.101562 66.949219 L 72.101562 61.804688 Z M 66.960938 92.660156 L 66.960938 97.800781 L 72.101562 97.800781 L 72.101562 92.660156 Z M 66.960938 97.800781 L 66.960938 102.945312 L 72.101562 102.945312 L 72.101562 97.800781 Z M 66.960938 102.945312 L 66.960938 108.085938 L 72.101562 108.085938 L 72.101562 102.945312 Z M 66.960938 108.085938 L 66.960938 113.230469 L 72.101562 113.230469 L 72.101562 108.085938 Z M 66.960938 113.230469 L 66.960938 118.375 L 72.101562 118.375 L 72.101562 113.230469 Z M 66.960938 118.375 L 66.960938 123.511719 L 72.101562 123.511719 L 72.101562 118.375 Z M 66.960938 123.511719 L 66.960938 128.65625 L 72.101562 128.65625 L 72.101562 123.511719 Z M 61.816406 61.804688 L 61.816406 66.949219 L 66.960938 66.949219 L 66.960938 61.804688 Z M 61.816406 66.949219 L 61.816406 72.089844 L 66.960938 72.089844 L 66.960938 66.949219 Z M 61.816406 72.089844 L 61.816406 77.230469 L 66.960938 77.230469 L 66.960938 72.089844 Z M 61.816406 82.375 L 61.816406 87.515625 L 66.960938 87.515625 L 66.960938 82.375 Z M 61.816406 87.515625 L 61.816406 92.660156 L 66.960938 92.660156 L 66.960938 87.515625 Z M 61.816406 92.660156 L 61.816406 97.800781 L 66.960938 97.800781 L 66.960938 92.660156 Z M 61.816406 97.800781 L 61.816406 102.945312 L 66.960938 102.945312 L 66.960938 97.800781 Z M 61.816406 102.945312 L 61.816406 108.085938 L 66.960938 108.085938 L 66.960938 102.945312 Z M 61.816406 108.085938 L 61.816406 113.230469 L 66.960938 113.230469 L 66.960938 108.085938 Z M 61.816406 113.230469 L 61.816406 118.375 L 66.960938 118.375 L 66.960938 113.230469 Z M 61.816406 118.375 L 61.816406 123.511719 L 66.960938 123.511719 L 66.960938 118.375 Z M 61.816406 123.511719 L 61.816406 128.65625 L 66.960938 128.65625 L 66.960938 123.511719 Z M 56.675781 56.660156 L 56.675781 61.804688 L 61.816406 61.804688 L 61.816406 56.660156 Z M 56.675781 61.804688 L 56.675781 66.949219 L 61.816406 66.949219 L 61.816406 61.804688 Z M 56.675781 66.949219 L 56.675781 72.089844 L 61.816406 72.089844 L 61.816406 66.949219 Z M 56.675781 72.089844 L 56.675781 77.230469 L 61.816406 77.230469 L 61.816406 72.089844 Z M 56.675781 77.230469 L 56.675781 82.375 L 61.816406 82.375 L 61.816406 77.230469 Z M 56.675781 82.375 L 56.675781 87.515625 L 61.816406 87.515625 L 61.816406 82.375 Z M 56.675781 87.515625 L 56.675781 92.660156 L 61.816406 92.660156 L 61.816406 87.515625 Z M 56.675781 92.660156 L 56.675781 97.800781 L 61.816406 97.800781 L 61.816406 92.660156 Z M 56.675781 113.230469 L 56.675781 118.375 L 61.816406 118.375 L 61.816406 113.230469 Z M 56.675781 118.375 L 56.675781 123.511719 L 61.816406 123.511719 L 61.816406 118.375 Z M 56.675781 123.511719 L 56.675781 128.65625 L 61.816406 128.65625 L 61.816406 123.511719 Z M 51.53125 56.660156 L 51.53125 61.804688 L 56.675781 61.804688 L 56.675781 56.660156 Z M 51.53125 61.804688 L 51.53125 66.949219 L 56.675781 66.949219 L 56.675781 61.804688 Z M 51.53125 72.089844 L 51.53125 77.230469 L 56.675781 77.230469 L 56.675781 72.089844 Z M 51.53125 77.230469 L 51.53125 82.375 L 56.675781 82.375 L 56.675781 77.230469 Z M 51.53125 82.375 L 51.53125 87.515625 L 56.675781 87.515625 L 56.675781 82.375 Z M 51.53125 118.375 L 51.53125 123.511719 L 56.675781 123.511719 L 56.675781 118.375 Z M 51.53125 123.511719 L 51.53125 128.65625 L 56.675781 128.65625 L 56.675781 123.511719 Z M 46.390625 56.660156 L 46.390625 61.804688 L 51.53125 61.804688 L 51.53125 56.660156 Z M 46.390625 61.804688 L 46.390625 66.949219 L 51.53125 66.949219 L 51.53125 61.804688 Z M 46.390625 118.375 L 46.390625 123.511719 L 51.53125 123.511719 L 51.53125 118.375 Z M 46.390625 123.511719 L 46.390625 128.65625 L 51.53125 128.65625 L 51.53125 123.511719 Z M 41.25 61.804688 L 41.25 66.949219 L 46.390625 66.949219 L 46.390625 61.804688 Z M 41.25 66.949219 L 41.25 72.089844 L 46.390625 72.089844 L 46.390625 66.949219 Z M 41.25 118.375 L 41.25 123.511719 L 46.390625 123.511719 L 46.390625 118.375 Z M 41.25 123.511719 L 41.25 128.65625 L 46.390625 128.65625 L 46.390625 123.511719 Z M 36.105469 61.804688 L 36.105469 66.949219 L 41.25 66.949219 L 41.25 61.804688 Z M 36.105469 66.949219 L 36.105469 72.089844 L 41.25 72.089844 L 41.25 66.949219 Z M 36.105469 118.375 L 36.105469 123.511719 L 41.25 123.511719 L 41.25 118.375 Z M 36.105469 123.511719 L 36.105469 128.65625 L 41.25 128.65625 L 41.25 123.511719 Z M 30.960938 61.804688 L 30.960938 66.949219 L 36.105469 66.949219 L 36.105469 61.804688 Z M 30.960938 66.949219 L 30.960938 72.089844 L 36.105469 72.089844 L 36.105469 66.949219 Z M 30.960938 72.089844 L 30.960938 77.230469 L 36.105469 77.230469 L 36.105469 72.089844 Z M 30.960938 92.660156 L 30.960938 97.800781 L 36.105469 97.800781 L 36.105469 92.660156 Z M 30.960938 97.800781 L 30.960938 102.945312 L 36.105469 102.945312 L 36.105469 97.800781 Z M 30.960938 102.945312 L 30.960938 108.085938 L 36.105469 108.085938 L 36.105469 102.945312 Z M 30.960938 113.230469 L 30.960938 118.375 L 36.105469 118.375 L 36.105469 113.230469 Z M 30.960938 118.375 L 30.960938 123.511719 L 36.105469 123.511719 L 36.105469 118.375 Z M 30.960938 123.511719 L 30.960938 128.65625 L 36.105469 128.65625 L 36.105469 123.511719 Z M 25.820312 66.949219 L 25.820312 72.089844 L 30.960938 72.089844 L 30.960938 66.949219 Z M 25.820312 72.089844 L 25.820312 77.230469 L 30.960938 77.230469 L 30.960938 72.089844 Z M 25.820312 77.230469 L 25.820312 82.375 L 30.960938 82.375 L 30.960938 77.230469 Z M 25.820312 82.375 L 25.820312 87.515625 L 30.960938 87.515625 L 30.960938 82.375 Z M 25.820312 87.515625 L 25.820312 92.660156 L 30.960938 92.660156 L 30.960938 87.515625 Z M 25.820312 92.660156 L 25.820312 97.800781 L 30.960938 97.800781 L 30.960938 92.660156 Z M 25.820312 97.800781 L 25.820312 102.945312 L 30.960938 102.945312 L 30.960938 97.800781 Z M 25.820312 102.945312 L 25.820312 108.085938 L 30.960938 108.085938 L 30.960938 102.945312 Z M 25.820312 108.085938 L 25.820312 113.230469 L 30.960938 113.230469 L 30.960938 108.085938 Z M 25.820312 113.230469 L 25.820312 118.375 L 30.960938 118.375 L 30.960938 113.230469 Z M 25.820312 118.375 L 25.820312 123.511719 L 30.960938 123.511719 L 30.960938 118.375 Z M 25.820312 123.511719 L 25.820312 128.65625 L 30.960938 128.65625 L 30.960938 123.511719 Z M 20.679688 72.089844 L 20.679688 77.230469 L 25.820312 77.230469 L 25.820312 72.089844 Z M 20.679688 77.230469 L 20.679688 82.375 L 25.820312 82.375 L 25.820312 77.230469 Z M 20.679688 82.375 L 20.679688 87.515625 L 25.820312 87.515625 L 25.820312 82.375 Z M 20.679688 87.515625 L 20.679688 92.660156 L 25.820312 92.660156 L 25.820312 87.515625 Z M 20.679688 92.660156 L 20.679688 97.800781 L 25.820312 97.800781 L 25.820312 92.660156 Z M 20.679688 97.800781 L 20.679688 102.945312 L 25.820312 102.945312 L 25.820312 97.800781 Z M 20.679688 102.945312 L 20.679688 108.085938 L 25.820312 108.085938 L 25.820312 102.945312 Z M 20.679688 108.085938 L 20.679688 113.230469 L 25.820312 113.230469 L 25.820312 108.085938 Z M 20.679688 113.230469 L 20.679688 118.375 L 25.820312 118.375 L 25.820312 113.230469 Z M 20.679688 118.375 L 20.679688 123.511719 L 25.820312 123.511719 L 25.820312 118.375 Z M 20.679688 123.511719 L 20.679688 128.65625 L 25.820312 128.65625 L 25.820312 123.511719 Z M 15.535156 77.230469 L 15.535156 82.375 L 20.679688 82.375 L 20.679688 77.230469 Z M 15.535156 82.375 L 15.535156 87.515625 L 20.679688 87.515625 L 20.679688 82.375 Z M 15.535156 87.515625 L 15.535156 92.660156 L 20.679688 92.660156 L 20.679688 87.515625 Z M 15.535156 92.660156 L 15.535156 97.800781 L 20.679688 97.800781 L 20.679688 92.660156 Z M 15.535156 97.800781 L 15.535156 102.945312 L 20.679688 102.945312 L 20.679688 97.800781 Z M 15.535156 102.945312 L 15.535156 108.085938 L 20.679688 108.085938 L 20.679688 102.945312 Z M 15.535156 108.085938 L 15.535156 113.230469 L 20.679688 113.230469 L 20.679688 108.085938 Z M 15.535156 113.230469 L 15.535156 118.375 L 20.679688 118.375 L 20.679688 113.230469 Z M 15.535156 118.375 L 15.535156 123.511719 L 20.679688 123.511719 L 20.679688 118.375 Z M 15.535156 123.511719 L 15.535156 128.65625 L 20.679688 128.65625 L 20.679688 123.511719 Z M 10.390625 87.515625 L 10.390625 92.660156 L 15.535156 92.660156 L 15.535156 87.515625 Z M 10.390625 92.660156 L 10.390625 97.800781 L 15.535156 97.800781 L 15.535156 92.660156 Z M 10.390625 97.800781 L 10.390625 102.945312 L 15.535156 102.945312 L 15.535156 97.800781 Z M 10.390625 102.945312 L 10.390625 108.085938 L 15.535156 108.085938 L 15.535156 102.945312 Z M 10.390625 108.085938 L 10.390625 113.230469 L 15.535156 113.230469 L 15.535156 108.085938 Z M 10.390625 113.230469 L 10.390625 118.375 L 15.535156 118.375 L 15.535156 113.230469 Z M 10.390625 118.375 L 10.390625 123.511719 L 15.535156 123.511719 L 15.535156 118.375 Z M 5.25 92.660156 L 5.25 97.800781 L 10.390625 97.800781 L 10.390625 92.660156 Z M 5.25 97.800781 L 5.25 102.945312 L 10.390625 102.945312 L 10.390625 97.800781 Z M 5.25 102.945312 L 5.25 108.085938 L 10.390625 108.085938 L 10.390625 102.945312 Z M 5.25 108.085938 L 5.25 113.230469 L 10.390625 113.230469 L 10.390625 108.085938 Z M 5.25 113.230469 L 5.25 118.375 L 10.390625 118.375 L 10.390625 113.230469 Z M 0.109375 97.800781 L 0.109375 102.945312 L 5.25 102.945312 L 5.25 97.800781 Z M 0.109375 102.945312 L 0.109375 108.085938 L 5.25 108.085938 L 5.25 102.945312 Z M 5.25 108.085938 L 5.25 113.230469 L 0.109375 113.230469 L 0.109375 108.085938 L 5.25 108.085938 " fill-opacity="1" fill-rule="nonzero"/></g><g fill="#6a3b79" fill-opacity="1"><g transform="translate(72.61914, 116.960442)"><g><path d="M 2.515625 -1.75 C 2.515625 -2.488281 2.679688 -3.050781 3.015625 -3.4375 C 3.359375 -3.820312 3.84375 -4.015625 4.46875 -4.015625 C 5.113281 -4.015625 5.613281 -3.820312 5.96875 -3.4375 C 6.332031 -3.050781 6.515625 -2.488281 6.515625 -1.75 C 6.515625 -1.03125 6.332031 -0.476562 5.96875 -0.09375 C 5.601562 0.289062 5.101562 0.484375 4.46875 0.484375 C 3.90625 0.484375 3.4375 0.3125 3.0625 -0.03125 C 2.695312 -0.382812 2.515625 -0.957031 2.515625 -1.75 Z M 2.515625 -1.75 "/></g></g></g></svg>